<svg width="207" height="70" viewBox="0 0 207 70" fill="none" xmlns="http://www.w3.org/2000/svg">
<path d="M29.2472 6.34339C30.3292 6.34339 31.3012 5.79179 31.8697 4.946C32.4016 5.05632 33.1902 5.25857 34.1621 5.58953C34.1621 5.64469 34.1621 5.69985 34.1621 5.75501C34.1621 7.18917 35.3175 8.36591 36.748 8.36591C37.4633 8.36591 38.1235 8.07173 38.582 7.59368C39.3706 8.05334 40.1958 8.56817 41.0211 9.17492C40.9478 9.37718 40.9111 9.59782 40.9111 9.83684C40.9111 10.9952 41.8464 11.9329 43.0018 11.9329C43.3502 11.9329 43.6803 11.841 43.9554 11.6939C44.6707 12.3926 45.3676 13.1648 46.0461 13.9922C46.0094 14.1393 45.9728 14.3048 45.9728 14.4703C45.9728 15.3712 46.7063 16.1251 47.6233 16.1251C48.1552 16.9341 48.6687 17.7799 49.1638 18.6992C48.9621 18.9198 48.8337 19.2324 48.8337 19.5634C48.8337 20.2804 49.4206 20.8688 50.1358 20.8688C50.8511 20.8688 51.4379 20.2804 51.4379 19.5634C51.4379 18.9014 50.9428 18.3498 50.2825 18.2763C49.9891 17.5592 49.549 16.6031 48.8887 15.5183C49.1272 15.2241 49.2739 14.8748 49.2739 14.4703C49.2739 13.5509 48.5403 12.8155 47.6233 12.8155C47.4399 12.8155 47.2565 12.8523 47.0915 12.9074C46.4863 12.1352 45.771 11.3262 44.9641 10.5171C45.0375 10.2965 45.0925 10.0759 45.0925 9.81846C45.0925 8.6601 44.1572 7.72238 43.0018 7.72238C42.635 7.72238 42.3049 7.81432 42.0114 7.97979C41.1862 7.37304 40.2875 6.76628 39.2972 6.19629C39.3155 6.0492 39.3522 5.90211 39.3522 5.73663C39.3522 4.30247 38.1968 3.14411 36.7664 3.14411C35.9778 3.14411 35.2809 3.51185 34.804 4.06344C34.0521 3.76926 33.2635 3.49346 32.4382 3.25443C32.4382 3.21766 32.4382 3.19927 32.4382 3.1625C32.4382 1.41577 31.0261 0 29.2655 0C27.5049 0 26.0928 1.41577 26.0928 3.1625C26.0928 4.90923 27.5049 6.34339 29.2655 6.34339H29.2472Z" fill="black"/>
<path d="M19.1614 11.9513C20.2067 11.6203 20.9587 10.8113 21.2521 9.83682C21.7839 9.78166 22.5909 9.74489 23.6179 9.76328C23.6179 9.81843 23.6179 9.87359 23.6546 9.92875C24.0764 11.3078 25.5435 12.0616 26.9007 11.6387C27.5976 11.4181 28.1294 10.94 28.4228 10.3516C29.3031 10.5539 30.2384 10.8113 31.2104 11.1423C31.2104 11.3629 31.2104 11.5836 31.3021 11.8042C31.6506 12.9074 32.8243 13.5141 33.9247 13.1832C34.2548 13.0729 34.5482 12.889 34.7683 12.6684C35.6486 13.128 36.5472 13.6429 37.4459 14.2496C37.4459 14.4151 37.4642 14.5622 37.5192 14.7277C37.7943 15.5918 38.7113 16.0883 39.5732 15.8125C40.3252 16.4192 41.0587 17.0812 41.8107 17.7982C41.6823 18.074 41.6456 18.405 41.7373 18.7176C41.9574 19.3979 42.6726 19.784 43.3695 19.5633C44.0481 19.3427 44.4332 18.6256 44.2131 17.9269C44.0114 17.2834 43.3695 16.9157 42.7276 17.0444C42.2325 16.456 41.5172 15.6838 40.5819 14.838C40.7286 14.4886 40.7653 14.1025 40.6369 13.7164C40.3618 12.8522 39.4449 12.3558 38.5829 12.6316C38.3995 12.6867 38.2528 12.7787 38.1061 12.8706C37.2991 12.319 36.3822 11.7674 35.3552 11.2342C35.3552 11.0136 35.3552 10.7745 35.2635 10.5355C34.915 9.43232 33.7413 8.82556 32.6409 9.15652C32.2925 9.26684 32.0174 9.4507 31.779 9.68973C30.807 9.35877 29.7616 9.06458 28.6613 8.80717C28.6429 8.66008 28.6246 8.51298 28.5696 8.34751C28.1477 6.96851 26.6806 6.21466 25.3235 6.63755C24.5715 6.87658 24.003 7.42817 23.7279 8.10848C22.921 8.05332 22.0957 8.03493 21.2338 8.03493C21.2338 7.99816 21.2338 7.97977 21.2338 7.943C20.7203 6.26982 18.9413 5.3321 17.2724 5.86531C15.6035 6.38014 14.6682 8.16364 15.2001 9.83682C15.7136 11.51 17.4925 12.4477 19.1614 11.9145V11.9513Z" fill="black"/>
<path d="M6.70779 23.0752C7.44137 22.2662 7.67979 21.1814 7.45971 20.2069C7.89986 19.8943 8.57842 19.453 9.47705 18.9566C9.51373 18.9934 9.55041 19.0485 9.58709 19.0853C10.6324 20.0598 12.283 19.9862 13.255 18.9382C13.7502 18.405 13.9702 17.7247 13.9335 17.0628C14.7955 16.787 15.7308 16.5296 16.7395 16.3273C16.8495 16.5112 16.9779 16.695 17.143 16.8605C17.9866 17.6511 19.307 17.596 20.0956 16.7318C20.334 16.4744 20.4807 16.1802 20.5724 15.8493C21.5628 15.7941 22.6081 15.7941 23.6718 15.8676C23.7452 15.9963 23.8552 16.1434 23.9653 16.2538C24.6255 16.8605 25.6708 16.8237 26.2944 16.1618C27.248 16.3089 28.22 16.5112 29.2287 16.7686C29.2654 17.0812 29.3937 17.3753 29.6321 17.596C30.164 18.074 30.9893 18.0556 31.4661 17.5224C31.9429 16.9892 31.9246 16.1618 31.3927 15.6838C30.8976 15.2425 30.1823 15.2425 29.6872 15.6838C28.9536 15.408 27.9633 15.0954 26.7162 14.838C26.6612 14.4703 26.4961 14.1209 26.2027 13.8451C25.5241 13.2384 24.4971 13.2751 23.8736 13.937C23.7452 14.0658 23.6535 14.2312 23.5801 14.3783C22.5898 14.3048 21.5261 14.2864 20.389 14.3416C20.279 14.1393 20.1506 13.9554 19.9672 13.7716C19.1236 12.9993 17.8032 13.0545 17.0146 13.9003C16.7762 14.1577 16.6295 14.4703 16.5378 14.8012C15.5291 15.0035 14.4837 15.2609 13.4017 15.6102C13.31 15.4815 13.2183 15.3712 13.0899 15.2609C12.0446 14.2864 10.394 14.3599 9.42204 15.408C8.89019 15.9963 8.68846 16.7502 8.76181 17.4857C8.02823 17.8534 7.313 18.2395 6.56108 18.6808C6.54274 18.6624 6.5244 18.6256 6.50606 18.6072C5.22229 17.4305 3.22329 17.5041 2.04956 18.7911C0.857497 20.0782 0.949194 22.0823 2.23296 23.2775C3.51672 24.4726 5.51573 24.3806 6.70779 23.0936V23.0752Z" fill="black"/>
<path d="M6.01075 33.6843C6.48758 32.7098 6.41422 31.5882 5.91906 30.724C6.24917 30.3011 6.78101 29.676 7.49625 28.9405C7.55127 28.9773 7.58795 29.0141 7.64297 29.0324C8.92673 29.6576 10.4856 29.1244 11.1091 27.8373C11.4209 27.1938 11.4576 26.4767 11.2375 25.8516C11.9894 25.3367 12.8147 24.8403 13.7317 24.3622C13.8784 24.5093 14.0618 24.6564 14.2635 24.7484C15.2905 25.2632 16.556 24.8219 17.0511 23.7923C17.1978 23.4797 17.2712 23.1487 17.2529 22.8178C18.1882 22.4868 19.1785 22.1926 20.2422 21.9536C20.3522 22.0639 20.4806 22.1558 20.6273 22.2294C21.4343 22.6339 22.4246 22.3029 22.8281 21.4755C23.7817 21.3468 24.772 21.2549 25.7991 21.2181C25.9091 21.5123 26.1292 21.7513 26.4226 21.8984C27.0645 22.211 27.8531 21.9536 28.1649 21.3101C28.4766 20.6665 28.2199 19.8943 27.578 19.5633C26.9728 19.2691 26.2759 19.4898 25.9274 20.023C25.1572 19.9678 24.1118 19.9494 22.8464 20.0598C22.6997 19.7288 22.4429 19.4346 22.0761 19.2508C21.2509 18.8463 20.2789 19.1956 19.8754 20.0046C19.802 20.1701 19.747 20.354 19.7287 20.5194C18.7567 20.7217 17.7297 21.0159 16.6477 21.3836C16.4826 21.2181 16.2992 21.071 16.0791 20.9607C15.0521 20.4459 13.7867 20.8872 13.2915 21.9168C13.1265 22.2478 13.0715 22.5787 13.0898 22.9097C12.1728 23.3877 11.2375 23.9393 10.3022 24.5645C10.1738 24.4726 10.0454 24.399 9.91707 24.3255C8.6333 23.7003 7.07444 24.2151 6.4509 25.5206C6.10245 26.2377 6.12079 27.0099 6.41422 27.6902C5.82736 28.2418 5.22216 28.8302 4.63529 29.4553C4.61695 29.4553 4.58028 29.4186 4.56194 29.4002C2.98474 28.6279 1.09577 29.2715 0.325515 30.8527C-0.444743 32.434 0.197139 34.3278 1.77433 35.1C3.35153 35.8723 5.2405 35.2287 6.01075 33.6475V33.6843Z" fill="black"/>
<path d="M11.4399 35.8171C11.3849 35.4678 11.2198 35.1736 11.0365 34.9162C11.5866 34.0888 12.2285 33.2798 12.9254 32.4524C13.0905 32.4708 13.2372 32.4708 13.4022 32.4524C14.3009 32.2869 14.8877 31.4411 14.741 30.5402C15.4379 29.8782 16.1898 29.2163 16.9968 28.5728C17.2535 28.7383 17.5836 28.8118 17.9138 28.7567C18.629 28.628 19.0875 27.9477 18.9591 27.249C18.8307 26.5503 18.1522 26.0722 17.4553 26.2009C16.795 26.3112 16.3549 26.8996 16.3916 27.5615C15.7314 27.9844 14.8877 28.5912 13.9341 29.4186C13.604 29.2347 13.2372 29.1612 12.8337 29.2163C11.9351 29.3818 11.3482 30.2276 11.4949 31.1285C11.5316 31.3124 11.5866 31.4779 11.6783 31.625C11.0181 32.3604 10.3579 33.2062 9.71601 34.1439C9.49593 34.1072 9.25752 34.1072 9.01911 34.1439C7.88206 34.3462 7.13014 35.431 7.33187 36.571C7.38689 36.9203 7.55195 37.2329 7.75368 37.4903C7.29519 38.4096 6.87339 39.4209 6.48826 40.4873C6.34154 40.4873 6.17649 40.4873 6.02977 40.5241C4.61763 40.7815 3.68232 42.1237 3.93907 43.5395C4.06745 44.3117 4.54427 44.9369 5.18615 45.3046C5.03944 46.0952 4.89272 46.9226 4.80103 47.7868C4.76435 47.7868 4.74601 47.7868 4.70933 47.7868C2.98542 48.0994 1.84837 49.7358 2.1418 51.4641C2.45357 53.1925 4.08579 54.3325 5.8097 54.0383C7.53361 53.7257 8.67066 52.0893 8.37722 50.3609C8.19383 49.2945 7.47859 48.4304 6.56162 48.0258C6.56162 47.4926 6.63497 46.6836 6.78169 45.654C6.83671 45.654 6.89173 45.654 6.94674 45.654C8.35889 45.3966 9.2942 44.0543 9.05579 42.6386C8.92741 41.9215 8.52394 41.3331 7.97376 40.9654C8.28553 40.1012 8.65232 39.2003 9.09246 38.2809C9.31254 38.3177 9.53261 38.3177 9.75269 38.2809C10.8897 38.0787 11.6417 36.9939 11.4399 35.8539V35.8171Z" fill="black"/>
<path d="M17.0698 61.9997C16.758 61.5584 16.3362 60.8781 15.8594 59.9588C15.896 59.922 15.9511 59.8852 15.9877 59.8485C16.9781 58.8004 16.9231 57.164 15.896 56.1711C15.3825 55.6747 14.704 55.4357 14.0438 55.4541C13.787 54.5899 13.5486 53.6338 13.3652 52.6225C13.5486 52.5122 13.732 52.4019 13.897 52.2364C14.6856 51.3906 14.6673 50.0668 13.8237 49.2761C13.5669 49.0371 13.2735 48.89 12.9617 48.7981C12.925 47.8052 12.9617 46.7572 13.0351 45.6908C13.1635 45.6172 13.3102 45.5253 13.4202 45.3966C14.0438 44.7347 14.0254 43.705 13.3652 43.0615C13.5302 42.1054 13.732 41.1309 14.0071 40.1196C14.3188 40.1012 14.6123 39.9725 14.8507 39.7335C15.3459 39.2187 15.3275 38.3913 14.814 37.8948C14.3005 37.3984 13.4752 37.4168 12.9801 37.95C12.5216 38.428 12.5216 39.1635 12.9434 39.6599C12.6683 40.377 12.3382 41.3883 12.0447 42.6386C11.678 42.6754 11.3295 42.8408 11.0544 43.135C10.4309 43.7969 10.4492 44.845 11.1094 45.4701C11.2378 45.5988 11.4029 45.6908 11.5496 45.7643C11.4579 46.7572 11.4212 47.8236 11.4579 48.9636C11.2562 49.0739 11.0544 49.2026 10.8894 49.3865C10.1008 50.2323 10.1191 51.5561 10.9627 52.3467C11.2195 52.5857 11.5312 52.7512 11.8614 52.8432C12.0447 53.8544 12.2832 54.9208 12.6133 56.0057C12.4849 56.0976 12.3749 56.1895 12.2648 56.2998C11.2745 57.3479 11.3112 58.9843 12.3565 59.9772C12.925 60.5288 13.677 60.7494 14.4105 60.6759C14.759 61.4113 15.1441 62.1468 15.5659 62.9006C15.5476 62.919 15.5109 62.9374 15.4926 62.9558C14.2822 64.2245 14.3372 66.2286 15.6026 67.4421C16.868 68.6557 18.867 68.6005 20.0774 67.3318C21.2878 66.0631 21.2328 64.059 19.9674 62.8455C19.1788 62.0916 18.0968 61.8342 17.1064 62.0365L17.0698 61.9997Z" fill="black"/>
<path d="M31.4854 63.967C30.5134 63.489 29.3947 63.5625 28.5328 64.0774C28.1109 63.7464 27.4874 63.2316 26.7538 62.4961C26.7905 62.441 26.8272 62.4042 26.8455 62.349C27.4691 61.062 26.9372 59.4991 25.6351 58.874C24.9932 58.5614 24.278 58.543 23.6361 58.7636C23.1226 58.0098 22.6091 57.1824 22.1323 56.2814C22.279 56.1343 22.4257 55.9505 22.5174 55.7482C23.0126 54.7002 22.5908 53.4499 21.5454 52.9535C21.2336 52.8064 20.9035 52.7512 20.5734 52.7512C20.2433 51.8135 19.9499 50.8206 19.6931 49.7726C19.8032 49.6623 19.8949 49.5335 19.9682 49.3865C20.3533 48.5591 20.0232 47.5846 19.198 47.1801C19.0696 46.224 18.9779 45.2311 18.9229 44.2014C19.2163 44.0911 19.4547 43.8705 19.6014 43.5763C19.9132 42.9327 19.6381 42.1421 18.9962 41.8296C18.3543 41.517 17.5841 41.7928 17.2723 42.4363C16.9789 43.0431 17.199 43.7418 17.7491 44.0911C17.6941 44.8633 17.6941 45.9114 17.8042 47.1801C17.474 47.3455 17.1806 47.603 16.9972 47.9523C16.5938 48.7797 16.9422 49.7542 17.7675 50.1587C17.9325 50.2322 18.1159 50.2874 18.281 50.3058C18.5011 51.2803 18.7761 52.3099 19.1613 53.3764C18.9962 53.5418 18.8495 53.7257 18.7395 53.9463C18.2443 54.9944 18.6661 56.2447 19.7115 56.7411C20.0416 56.8882 20.3717 56.9617 20.7201 56.9434C21.197 57.8627 21.7655 58.782 22.389 59.7197C22.2973 59.8484 22.224 59.9771 22.1506 60.1059C21.5271 61.3929 22.0589 62.9558 23.361 63.5809C24.0763 63.9303 24.8465 63.9119 25.5251 63.6177C26.0753 64.2061 26.6621 64.7944 27.304 65.3828C27.304 65.4012 27.2673 65.438 27.249 65.4564C26.4787 67.0376 27.139 68.9314 28.7161 69.6853C30.2933 70.4391 32.1823 69.7956 32.9342 68.2144C33.6861 66.6331 33.0443 64.7393 31.4671 63.9854L31.4854 63.967Z" fill="black"/>
<path d="M48.8704 62.5145C47.8067 62.6984 46.9447 63.4154 46.5413 64.3348C46.0094 64.3348 45.2025 64.2612 44.1755 64.1141C44.1755 64.059 44.1755 64.0038 44.1755 63.9486C43.9187 62.5329 42.58 61.5952 41.1678 61.8526C40.4526 61.9813 39.8657 62.3858 39.4989 62.9374C38.637 62.6248 37.7567 62.2571 36.8214 61.8158C36.858 61.5952 36.858 61.3745 36.8214 61.1539C36.6196 60.0139 35.5376 59.2601 34.4005 59.4623C34.0521 59.5175 33.7587 59.683 33.5019 59.8668C32.6766 59.3152 31.8514 58.6717 31.0444 57.973C31.0628 57.8075 31.0628 57.6604 31.0444 57.4949C30.8794 56.594 30.0357 56.0056 29.1371 56.1527C28.4769 55.454 27.8167 54.7186 27.1748 53.8912C27.3398 53.6337 27.4132 53.3028 27.3582 52.9718C27.2298 52.2548 26.5512 51.7951 25.8543 51.9238C25.1574 52.0525 24.6806 52.7328 24.809 53.4315C24.919 54.0934 25.5242 54.5347 26.1661 54.4979C26.5879 55.1598 27.1931 56.0056 28.0184 56.9617C27.835 57.2927 27.7616 57.6604 27.8167 58.0649C27.9817 58.9659 28.8253 59.5542 29.724 59.3888C29.9074 59.352 30.0724 59.2968 30.2191 59.2049C30.9527 59.8668 31.7963 60.5287 32.7316 61.1723C32.695 61.3929 32.695 61.6319 32.7316 61.871C32.9334 63.0109 34.0154 63.7648 35.1525 63.5625C35.5009 63.5074 35.8127 63.3419 36.0694 63.1396C36.9864 63.5993 37.9951 64.0222 39.0588 64.4083C39.0588 64.5554 39.0588 64.7209 39.0954 64.868C39.3522 66.2837 40.691 67.2215 42.1031 66.964C42.8734 66.817 43.4969 66.3389 43.8637 65.7138C44.6523 65.8609 45.4776 65.9896 46.3395 66.0999C46.3395 66.1367 46.3395 66.155 46.3395 66.1918C46.6513 67.9202 48.2835 69.0601 50.0074 68.7476C51.7313 68.435 52.8684 66.7986 52.575 65.0702C52.2632 63.3419 50.6126 62.2019 48.9071 62.5145H48.8704Z" fill="black"/>
<path d="M63.0833 52.7328C62.258 53.4499 61.8912 54.4796 62.0013 55.4908C61.5245 55.7482 60.8092 56.116 59.8556 56.5021C59.8189 56.4469 59.8005 56.4102 59.7639 56.355C58.8286 55.2702 57.1963 55.1415 56.1143 56.0792C55.5641 56.5389 55.2707 57.2008 55.2157 57.8627C54.317 58.0282 53.3634 58.1753 52.3364 58.2488C52.263 58.0466 52.153 57.8443 52.0063 57.6788C51.2543 56.7963 49.9339 56.7043 49.0536 57.4582C48.7969 57.6788 48.6135 57.973 48.4851 58.2672C47.4948 58.1937 46.4677 58.0649 45.4041 57.8811C45.349 57.734 45.2573 57.5869 45.1473 57.4766C44.5604 56.7779 43.5151 56.7043 42.8365 57.2927C41.9012 57.0353 40.9659 56.7227 39.9939 56.3366C39.9939 56.024 39.9022 55.7115 39.7005 55.454C39.242 54.9025 38.4167 54.8473 37.8665 55.307C37.3163 55.7666 37.2613 56.594 37.7198 57.1456C38.1416 57.6421 38.8752 57.7156 39.407 57.3663C40.1039 57.7156 41.0576 58.1569 42.268 58.5614C42.268 58.9291 42.3964 59.2968 42.6531 59.6094C43.24 60.3081 44.2853 60.3817 44.9639 59.7933C45.1106 59.6646 45.2207 59.5359 45.294 59.3704C46.266 59.5727 47.3297 59.7014 48.4484 59.7933C48.5401 60.0139 48.6501 60.2162 48.7969 60.4C49.5488 61.2826 50.8692 61.3745 51.7312 60.6207C52.0063 60.3817 52.1897 60.0875 52.318 59.7749C53.345 59.7014 54.4271 59.5543 55.5274 59.352C55.6008 59.4807 55.6925 59.6094 55.7842 59.7381C56.7195 60.8229 58.3517 60.9516 59.4338 60.0139C60.039 59.4991 60.3324 58.782 60.3324 58.0466C61.1026 57.7708 61.8729 57.4766 62.6615 57.1272C62.6798 57.1456 62.6982 57.1824 62.7165 57.2008C63.8536 58.5246 65.8526 58.6901 67.173 57.5501C68.4935 56.4102 68.6585 54.406 67.5215 53.0822C66.3844 51.7583 64.3854 51.5929 63.065 52.7328H63.0833Z" fill="black"/>
<path d="M72.2345 40.8734C70.7857 39.8989 68.8234 40.2667 67.8514 41.7192C67.2462 42.6202 67.1545 43.7234 67.5396 44.6611C67.1545 45.0288 66.5493 45.5804 65.724 46.2056C65.669 46.1688 65.6323 46.132 65.5956 46.0952C64.4036 45.2862 62.7897 45.5988 62.0011 46.7939C61.5976 47.3823 61.4693 48.0994 61.5976 48.7429C60.7724 49.1474 59.8921 49.5335 58.9201 49.8829C58.7917 49.7174 58.6267 49.5519 58.4433 49.4232C57.4896 48.7797 56.1875 49.0187 55.5456 49.9932C55.3439 50.2874 55.2522 50.6 55.2155 50.9309C54.2435 51.1332 53.2165 51.2803 52.1345 51.3722C52.0428 51.2435 51.9144 51.1332 51.786 51.0412C51.0341 50.5264 50.0071 50.7287 49.5119 51.4825C48.5583 51.4825 47.5496 51.4274 46.5226 51.317C46.4492 51.0229 46.2658 50.7471 45.9907 50.5448C45.4039 50.1403 44.5969 50.3058 44.1935 50.8941C43.79 51.4825 43.9551 52.2915 44.5419 52.696C45.0921 53.0638 45.8257 52.9535 46.2475 52.457C46.9994 52.6041 48.0448 52.7696 49.2919 52.8431C49.4019 53.1925 49.6036 53.5234 49.9521 53.7441C50.704 54.2589 51.731 54.0566 52.2445 53.3028C52.3545 53.1557 52.4096 52.9902 52.4646 52.8064C53.4549 52.7328 54.5186 52.6041 55.6373 52.3651C55.784 52.5489 55.9307 52.7144 56.1325 52.8615C57.0861 53.505 58.3882 53.266 59.0301 52.2915C59.2319 51.9973 59.3419 51.6664 59.3602 51.3354C60.3322 50.9861 61.3226 50.5632 62.3496 50.0668C62.4596 50.1771 62.5696 50.269 62.698 50.3609C63.8901 51.1699 65.504 50.8574 66.2926 49.6622C66.7327 49.0003 66.8244 48.2281 66.6227 47.511C67.2829 47.0513 67.9614 46.5549 68.6217 46.0033C68.64 46.0217 68.6583 46.0401 68.695 46.0585C70.1438 47.033 72.1062 46.6652 73.0965 45.2127C74.0685 43.7601 73.7017 41.7928 72.2529 40.7999L72.2345 40.8734Z" fill="black"/>
<path d="M68.5486 30.9263C67.1181 30.9263 65.9444 32.0663 65.926 33.5004C65.926 34.2175 66.2011 34.8794 66.678 35.3575C66.2195 36.1481 65.6876 36.9571 65.0824 37.7845C64.8807 37.7109 64.6606 37.6742 64.4405 37.6742C63.2852 37.6742 62.3498 38.5935 62.3315 39.7519C62.3315 40.1012 62.4232 40.4322 62.5699 40.7264C61.873 41.425 61.1028 42.1237 60.2591 42.804C60.1124 42.7489 59.9474 42.7305 59.7823 42.7305C58.8837 42.7305 58.1318 43.4476 58.1134 44.3669C57.3065 44.9001 56.4629 45.3966 55.5459 45.893C55.3075 45.6907 55.014 45.5436 54.6839 45.5436C53.9687 45.5436 53.3818 46.1136 53.3818 46.8307C53.3818 47.5478 53.9504 48.1362 54.6656 48.1362C55.3258 48.1362 55.876 47.6397 55.9677 46.9962C56.6829 46.702 57.6366 46.2791 58.7186 45.6356C58.9937 45.8746 59.3605 46.0217 59.764 46.0217C60.681 46.0217 61.4145 45.3046 61.4329 44.3853C61.4329 44.2014 61.3962 44.0176 61.3412 43.8521C62.1298 43.2453 62.9367 42.5466 63.7436 41.7376C63.9637 41.8112 64.1838 41.8663 64.4405 41.8663C65.5959 41.8663 66.5312 40.947 66.5496 39.7886C66.5496 39.4393 66.4579 39.0899 66.2928 38.7958C66.9164 37.9684 67.5032 37.0674 68.0901 36.0929C68.2368 36.1297 68.3835 36.1481 68.5486 36.1481C69.9791 36.1481 71.1528 35.0081 71.1711 33.574C71.1711 32.7833 70.8227 32.0846 70.2725 31.6066C70.5659 30.8527 70.841 30.0621 71.1161 29.2347C71.1528 29.2347 71.1711 29.2347 71.2078 29.2347C72.9501 29.2347 74.3805 27.8373 74.3989 26.0906C74.3989 24.3439 73.0051 22.9097 71.2628 22.8913C69.5206 22.8913 68.0901 24.2887 68.0718 26.0354C68.0718 27.1203 68.6036 28.0947 69.4289 28.6647C69.3188 29.1979 69.1171 29.9702 68.7687 30.9447C68.7136 30.9447 68.6586 30.9263 68.5853 30.9263H68.5486Z" fill="black"/>
<path d="M59.5622 33.6475C59.1037 34.53 58.5902 35.431 57.985 36.3319C57.8199 36.3319 57.6732 36.3503 57.5082 36.4055C56.6462 36.6813 56.1694 37.6006 56.4261 38.4648C55.8209 39.2186 55.1607 39.9725 54.4455 40.708C54.1704 40.5792 53.8403 40.5425 53.5101 40.6528C52.8316 40.8734 52.4465 41.5905 52.6665 42.2892C52.8866 42.9695 53.6018 43.3556 54.2987 43.135C54.9406 42.9327 55.3074 42.2892 55.179 41.6457C55.7659 41.1492 56.5362 40.4505 57.3798 39.4944C57.7282 39.6415 58.1134 39.6599 58.4985 39.5496C59.3604 39.2738 59.8373 38.3545 59.5805 37.4903C59.5255 37.3064 59.4338 37.1593 59.3421 37.0122C59.8923 36.2032 60.4425 35.2839 60.9743 34.2542C61.1944 34.2542 61.4328 34.2542 61.6712 34.1623C62.7716 33.813 63.3768 32.6362 63.0467 31.533C62.9366 31.1837 62.7533 30.9079 62.5148 30.6689C62.8449 29.6944 63.1384 28.6463 63.3951 27.5431C63.5418 27.5431 63.6886 27.488 63.8353 27.4512C65.2107 27.0283 65.9627 25.5574 65.5408 24.1968C65.3024 23.4429 64.7523 22.8913 64.0737 22.5971C64.1287 21.7881 64.1471 20.9607 64.1471 20.0965C64.1837 20.0965 64.2021 20.0965 64.2387 20.0965C65.9076 19.5817 66.8246 17.7982 66.3111 16.125C65.7976 14.4519 64.0187 13.5141 62.3498 14.0473C60.6809 14.5622 59.7639 16.3457 60.2774 18.0189C60.6075 19.0669 61.4145 19.8207 62.3865 20.0965C62.4415 20.6298 62.4782 21.4388 62.4598 22.4684C62.4048 22.4684 62.3498 22.4684 62.2948 22.5052C60.9193 22.9281 60.1674 24.399 60.5892 25.7596C60.8093 26.4399 61.2861 26.9915 61.873 27.2857C61.6896 28.1683 61.4328 29.106 61.1027 30.0805C60.8826 30.0805 60.6625 30.0805 60.4425 30.1724C59.3421 30.5218 58.7369 31.6985 59.067 32.8017C59.1771 33.1327 59.3604 33.4268 59.5805 33.6475H59.5622Z" fill="black"/>
<path d="M46.9628 7.79591C47.8248 8.47622 48.9251 8.62331 49.8788 8.31074C50.2272 8.71525 50.7224 9.35878 51.2909 10.2229C51.2542 10.2597 51.1992 10.2965 51.1625 10.3517C50.2822 11.4916 50.484 13.1096 51.621 14.0106C52.1895 14.4519 52.8865 14.6174 53.5467 14.5438C53.8951 15.3896 54.2069 16.3089 54.5003 17.3018C54.3169 17.4121 54.1519 17.5592 54.0052 17.7431C53.2899 18.6624 53.455 19.9679 54.3536 20.6849C54.6287 20.9056 54.9405 21.0343 55.2522 21.0894C55.3806 22.0823 55.4723 23.112 55.4907 24.1968C55.3623 24.2887 55.2339 24.399 55.1422 24.5277C54.592 25.2448 54.7021 26.2745 55.4173 26.8445C55.3439 27.8006 55.2339 28.7934 55.0505 29.8231C54.7387 29.8782 54.4636 30.0253 54.2619 30.2828C53.8218 30.8527 53.9135 31.6617 54.482 32.103C55.0505 32.5443 55.8574 32.434 56.2976 31.8824C56.7011 31.3492 56.646 30.6137 56.1876 30.154C56.3893 29.4002 56.6277 28.3889 56.7928 27.1203C57.1595 27.0467 57.4897 26.8445 57.7464 26.5319C58.2966 25.8148 58.1866 24.7852 57.4713 24.2152C57.3246 24.1048 57.1595 24.0313 56.9945 23.9578C56.9945 22.9649 56.9211 21.8985 56.7744 20.7585C56.9762 20.6298 57.1412 20.4827 57.3063 20.2988C58.0215 19.3795 57.8565 18.074 56.9395 17.357C56.6644 17.1363 56.3343 17.0076 56.0042 16.9525C55.7291 15.9596 55.3806 14.9299 54.9588 13.8819C55.0688 13.7716 55.1789 13.6796 55.2706 13.5509C56.1509 12.411 55.9491 10.7929 54.8304 9.89199C54.2069 9.39555 53.4366 9.26684 52.7214 9.39555C52.2996 8.69686 51.8594 7.99817 51.3643 7.28109C51.3826 7.2627 51.401 7.24432 51.4193 7.22593C52.5013 5.84693 52.2446 3.84279 50.8691 2.77637C49.4936 1.69156 47.513 1.94897 46.431 3.32797C45.3489 4.70696 45.6057 6.69272 46.9811 7.77753L46.9628 7.79591Z" fill="black"/>
<path d="M87.2376 33.2614L85.9171 40.2299H84.4316L85.7521 33.2614H87.2376Z" fill="black"/>
<path d="M87.2925 40.2483L88.613 33.2797H90.3552L91.2722 35.9458C91.5473 36.8283 91.7307 37.5638 91.8957 38.3177H91.9324C91.9691 37.6006 92.0608 36.8467 92.2442 35.8171L92.721 33.2797H94.0965L92.776 40.2483H91.2355L90.2635 37.4719C89.9518 36.5342 89.7684 35.8906 89.585 35.0448H89.5483C89.4566 35.7251 89.2915 36.718 89.0898 37.8212L88.6313 40.2666H87.2559L87.2925 40.2483Z" fill="black"/>
<path d="M94.4629 38.6303C94.8847 38.8693 95.4716 39.0715 96.0952 39.0715C96.682 39.0715 97.1955 38.7957 97.1955 38.2625C97.1955 37.8764 96.9021 37.619 96.2602 37.288C95.5083 36.8835 94.8114 36.3503 94.8114 35.431C94.8114 34.0152 96.0401 33.1694 97.5623 33.1694C98.4059 33.1694 98.9011 33.3533 99.2129 33.5188L98.7544 34.7691C98.5343 34.6404 98.0391 34.4565 97.4523 34.4565C96.7554 34.4565 96.4069 34.8058 96.4069 35.192C96.4069 35.5965 96.8287 35.8355 97.4156 36.1665C98.2592 36.6077 98.7911 37.1777 98.7911 38.0051C98.7911 39.5496 97.5073 40.3586 95.9668 40.3586C94.9948 40.3586 94.2979 40.1012 93.9678 39.8622L94.4629 38.6486V38.6303Z" fill="black"/>
<path d="M101.763 34.5668H99.9287L100.185 33.2614H105.357L105.1 34.5668H103.248L102.184 40.2299H100.699L101.763 34.5668Z" fill="black"/>
<path d="M107.65 33.2614L106.329 40.2299H104.844L106.164 33.2614H107.65Z" fill="black"/>
<path d="M110.033 34.5668H108.199L108.456 33.2614H113.628L113.371 34.5668H111.519L110.455 40.2299H108.969L110.033 34.5668Z" fill="black"/>
<path d="M115.921 33.2614L115.151 37.2697C115.096 37.5087 115.077 37.7845 115.077 38.097C115.077 38.6486 115.426 39.0899 116.086 39.0899C116.856 39.0899 117.37 38.5751 117.626 37.2697L118.397 33.243H119.882L119.13 37.2145C118.727 39.329 117.792 40.3402 115.903 40.3402C114.472 40.3402 113.592 39.6048 113.592 38.1154C113.592 37.8212 113.628 37.4719 113.702 37.1409L114.435 33.243H115.921V33.2614Z" fill="black"/>
<path d="M122.229 34.5668H120.396L120.652 33.2614H125.824L125.586 34.5668H123.733L122.67 40.2299H121.184L122.248 34.5668H122.229Z" fill="black"/>
<path d="M132.114 36.0561C132.114 37.3248 131.674 38.5567 130.867 39.3474C130.226 39.9725 129.345 40.3586 128.3 40.3586C126.484 40.3586 125.476 39.0716 125.476 37.4535C125.476 36.1849 125.934 34.9346 126.759 34.1439C127.401 33.5188 128.3 33.1511 129.309 33.1511C131.142 33.1511 132.114 34.4014 132.114 36.0561ZM127.933 34.9162C127.383 35.4678 127.071 36.5526 127.071 37.3984C127.071 38.3729 127.511 39.1083 128.52 39.1083C128.96 39.1083 129.364 38.9061 129.694 38.5935C130.244 38.0419 130.537 36.9019 130.537 36.0929C130.537 35.2287 130.226 34.383 129.125 34.383C128.667 34.383 128.245 34.5852 127.933 34.9162Z" fill="black"/>
<path d="M135.654 33.3901C136.094 33.2798 136.791 33.2062 137.469 33.2062C138.093 33.2062 138.808 33.3165 139.322 33.6659C139.78 33.9784 140.074 34.4749 140.074 35.1368C140.074 36.0194 139.67 36.6813 139.12 37.1042C138.552 37.5455 137.745 37.7477 136.901 37.7477C136.644 37.7477 136.442 37.7293 136.296 37.7109L135.819 40.2299H134.37L135.654 33.3901ZM136.516 36.5158C136.663 36.5526 136.828 36.571 137.084 36.571C137.983 36.571 138.57 35.9826 138.57 35.3023C138.57 34.622 138.093 34.4197 137.506 34.4197C137.231 34.4197 137.029 34.4381 136.901 34.4749L136.516 36.5342V36.5158Z" fill="black"/>
<path d="M147.062 36.0561C147.062 37.3248 146.622 38.5567 145.815 39.3474C145.173 39.9725 144.292 40.3586 143.247 40.3586C141.432 40.3586 140.423 39.0716 140.423 37.4535C140.423 36.1849 140.881 34.9346 141.707 34.1439C142.349 33.5188 143.247 33.1511 144.237 33.1511C146.071 33.1511 147.043 34.4014 147.043 36.0561H147.062ZM142.88 34.9162C142.33 35.4678 142.018 36.5526 142.018 37.3984C142.018 38.3729 142.459 39.1083 143.467 39.1083C143.907 39.1083 144.311 38.9061 144.641 38.5935C145.191 38.0419 145.485 36.9019 145.485 36.0929C145.485 35.2287 145.173 34.383 144.072 34.383C143.614 34.383 143.192 34.5852 142.88 34.9162Z" fill="black"/>
<path d="M149.372 34.5668H147.538L147.795 33.2614H152.967L152.728 34.5668H150.876L149.812 40.2299H148.327L149.39 34.5668H149.372Z" fill="black"/>
<path d="M159.256 36.0561C159.256 37.3248 158.816 38.5567 158.009 39.3474C157.367 39.9725 156.487 40.3586 155.441 40.3586C153.626 40.3586 152.617 39.0716 152.617 37.4535C152.617 36.1849 153.076 34.9346 153.901 34.1439C154.543 33.5188 155.441 33.1511 156.432 33.1511C158.266 33.1511 159.238 34.4014 159.238 36.0561H159.256ZM155.075 34.9162C154.525 35.4678 154.213 36.5526 154.213 37.3984C154.213 38.3729 154.653 39.1083 155.662 39.1083C156.102 39.1083 156.505 38.9061 156.835 38.5935C157.385 38.0419 157.679 36.9019 157.679 36.0929C157.679 35.2287 157.367 34.383 156.267 34.383C155.808 34.383 155.386 34.5852 155.075 34.9162Z" fill="black"/>
<path d="M159.899 38.6303C160.321 38.8693 160.907 39.0715 161.549 39.0715C162.136 39.0715 162.65 38.7957 162.65 38.2625C162.65 37.8764 162.356 37.619 161.714 37.288C160.962 36.8835 160.265 36.3503 160.265 35.431C160.265 34.0152 161.494 33.1694 163.016 33.1694C163.86 33.1694 164.355 33.3533 164.667 33.5188L164.208 34.7691C163.988 34.6404 163.493 34.4565 162.906 34.4565C162.209 34.4565 161.861 34.8058 161.861 35.192C161.861 35.5965 162.283 35.8355 162.87 36.1665C163.713 36.6077 164.245 37.1777 164.245 38.0051C164.245 39.5496 162.961 40.3586 161.421 40.3586C160.449 40.3586 159.752 40.1012 159.422 39.8622L159.917 38.6486L159.899 38.6303Z" fill="black"/>
<path d="M167.637 33.2614L166.317 40.2299H164.831L166.151 33.2614H167.637Z" fill="black"/>
<path d="M167.692 40.2483L169.013 33.2797H170.755L171.672 35.9458C171.947 36.8283 172.13 37.5638 172.295 38.3177H172.332C172.369 37.6006 172.46 36.8467 172.644 35.8171L173.121 33.2797H174.496L173.194 40.2483H171.653L170.682 37.4719C170.37 36.5342 170.186 35.8906 170.003 35.0448H169.966C169.893 35.7251 169.71 36.718 169.508 37.8212L169.049 40.2666H167.674L167.692 40.2483Z" fill="black"/>
<path d="M181.502 36.0561C181.502 37.3248 181.062 38.5567 180.255 39.3474C179.613 39.9725 178.733 40.3586 177.688 40.3586C175.872 40.3586 174.863 39.0716 174.863 37.4535C174.863 36.1849 175.322 34.9346 176.147 34.1439C176.789 33.5188 177.688 33.1511 178.678 33.1511C180.512 33.1511 181.484 34.4014 181.484 36.0561H181.502ZM177.321 34.9162C176.771 35.4678 176.459 36.5526 176.459 37.3984C176.459 38.3729 176.899 39.1083 177.908 39.1083C178.348 39.1083 178.751 38.9061 179.081 38.5935C179.632 38.0419 179.925 36.9019 179.925 36.0929C179.925 35.2287 179.613 34.383 178.513 34.383C178.054 34.383 177.633 34.5852 177.321 34.9162Z" fill="black"/>
<path d="M185.06 33.3717C185.647 33.2614 186.307 33.2246 186.986 33.2246C188.068 33.2246 188.93 33.482 189.516 33.9785C190.067 34.4381 190.433 35.1368 190.433 36.1665C190.433 37.5087 189.865 38.6854 189.003 39.3841C188.196 40.0277 187.169 40.3035 185.665 40.3035C184.822 40.3035 184.106 40.2483 183.758 40.1748L185.042 33.3901L185.06 33.3717ZM185.463 39.0348C185.647 39.0716 185.849 39.0716 186.105 39.0716C186.912 39.0716 187.627 38.7774 188.086 38.2625C188.563 37.7293 188.801 36.9939 188.801 36.1665C188.801 35.0633 188.196 34.4197 186.967 34.4197C186.71 34.4197 186.49 34.4197 186.344 34.4565L185.463 39.0348Z" fill="black"/>
<path d="M195.294 37.288H192.818L192.506 38.9796H195.275L195.037 40.2483H190.782L192.103 33.2797H196.229L195.972 34.5484H193.35L193.056 36.0377H195.532L195.294 37.288Z" fill="black"/>
<path d="M87.2376 45.6907L85.9171 52.6593H84.4316L85.7521 45.6907H87.2376Z" fill="black"/>
<path d="M87.2925 52.6593L88.613 45.6907H90.3552L91.2722 48.3568C91.5473 49.2394 91.7307 49.9748 91.8957 50.7287H91.9324C91.9691 50.0116 92.0608 49.2577 92.2442 48.2281L92.721 45.6907H94.0965L92.776 52.6593H91.2355L90.2635 49.8829C89.9518 48.9452 89.7684 48.3016 89.585 47.4558H89.5483C89.4566 48.1362 89.2915 49.129 89.0898 50.2322L88.6313 52.6776H87.2559L87.2925 52.6593Z" fill="black"/>
<path d="M95.6559 52.6593L94.7939 45.6907H96.3345L96.6462 49.0187C96.7196 49.7542 96.7746 50.4345 96.8113 51.1699H96.8296C97.0864 50.4896 97.4165 49.7358 97.7649 49.0187L99.3238 45.7091H100.993L97.3981 52.6776H95.6742L95.6559 52.6593Z" fill="black"/>
<path d="M104.991 49.699H102.515L102.203 51.3906H104.973L104.734 52.6593H100.479L101.8 45.6907H105.926L105.688 46.9594H103.065L102.772 48.4487H105.248L105.009 49.699H104.991Z" fill="black"/>
<path d="M106.108 51.0413C106.53 51.2803 107.117 51.4825 107.741 51.4825C108.328 51.4825 108.841 51.2067 108.841 50.6735C108.841 50.2874 108.548 50.03 107.906 49.699C107.154 49.2945 106.457 48.7613 106.457 47.842C106.457 46.4262 107.686 45.5804 109.208 45.5804C110.051 45.5804 110.547 45.7643 110.858 45.9298L110.4 47.1801C110.18 47.0514 109.685 46.8675 109.098 46.8675C108.401 46.8675 108.052 47.2169 108.052 47.603C108.052 48.0075 108.474 48.2465 109.061 48.5775C109.905 49.0187 110.437 49.5887 110.437 50.4161C110.437 51.9606 109.153 52.7696 107.612 52.7696C106.64 52.7696 105.943 52.5122 105.613 52.2732L106.108 51.0597V51.0413Z" fill="black"/>
<path d="M113.408 46.9962H111.574L111.831 45.6907H117.003L116.746 46.9962H114.894L113.83 52.6593H112.344L113.408 46.9962Z" fill="black"/>
<path d="M119.295 45.6907L117.975 52.6593H116.489L117.81 45.6907H119.295Z" fill="black"/>
<path d="M125.091 52.3467C124.559 52.5306 123.716 52.7328 122.835 52.7328C121.882 52.7328 121.093 52.4754 120.506 51.9606C119.956 51.4641 119.626 50.6919 119.626 49.8093C119.626 48.5039 120.158 47.3823 121.056 46.6285C121.845 45.9849 122.909 45.6172 124.119 45.6172C125.036 45.6172 125.696 45.8011 125.971 45.9298L125.531 47.1984C125.22 47.0513 124.669 46.9043 124.046 46.9043C123.349 46.9043 122.744 47.1065 122.267 47.4558C121.662 47.9339 121.258 48.7613 121.258 49.7174C121.258 50.8942 121.955 51.4825 123.037 51.4825C123.386 51.4825 123.624 51.4274 123.789 51.3538L124.064 49.8829H122.982L123.202 48.6878H125.733L125.036 52.3467H125.091Z" fill="black"/>
<path d="M128.207 50.8574L127.382 52.6777H125.805L129.198 45.7091H131.105L131.912 52.6777H130.353L130.206 50.8574H128.207ZM130.151 49.7174L130.023 48.2097C129.986 47.8236 129.949 47.272 129.913 46.8491H129.894C129.711 47.272 129.528 47.8052 129.344 48.2097L128.647 49.7174H130.151Z" fill="black"/>
<path d="M137.598 52.457C137.231 52.6225 136.589 52.7512 135.764 52.7512C133.93 52.7512 132.683 51.6296 132.683 49.7909C132.683 48.2281 133.38 47.0146 134.443 46.2975C135.158 45.7827 136.02 45.5436 137.011 45.5436C137.763 45.5436 138.331 45.7275 138.533 45.8378L138.129 47.0513C137.928 46.941 137.469 46.8307 136.864 46.8307C136.259 46.8307 135.69 47.0146 135.268 47.3639C134.682 47.842 134.315 48.6326 134.315 49.6071C134.315 50.7103 134.938 51.4641 136.167 51.4641C136.644 51.4641 137.139 51.3906 137.488 51.2435L137.616 52.4386L137.598 52.457Z" fill="black"/>
<path d="M141.174 45.6907L139.854 52.6593H138.368L139.689 45.6907H141.174Z" fill="black"/>
<path d="M148.143 48.4855C148.143 49.7542 147.703 50.9861 146.896 51.7767C146.254 52.4018 145.374 52.788 144.328 52.788C142.513 52.788 141.504 51.5009 141.504 49.8829C141.504 48.6142 141.962 47.3639 142.788 46.5733C143.43 45.9481 144.328 45.5804 145.319 45.5804C147.152 45.5804 148.124 46.8307 148.124 48.4855H148.143ZM143.961 47.3455C143.411 47.8971 143.099 48.9819 143.099 49.8277C143.099 50.8022 143.54 51.5377 144.548 51.5377C144.988 51.5377 145.392 51.3354 145.722 51.0229C146.272 50.4713 146.566 49.3313 146.566 48.5223C146.566 47.6581 146.254 46.8123 145.153 46.8123C144.695 46.8123 144.273 47.0146 143.961 47.3455ZM147.354 43.9808L145.997 45.2862H144.732L145.704 43.9808H147.354Z" fill="black"/>
<path d="M148.51 52.6593L149.83 45.6907H151.572L152.489 48.3568C152.764 49.2394 152.948 49.9748 153.113 50.7287H153.149C153.186 50.0116 153.278 49.2577 153.461 48.2281L153.938 45.6907H155.313L154.011 52.6593H152.471L151.499 49.8829C151.187 48.9452 151.004 48.3016 150.82 47.4558H150.784C150.71 48.1362 150.527 49.129 150.325 50.2322L149.867 52.6776H148.491L148.51 52.6593Z" fill="black"/>
<path d="M162.503 52.457C162.136 52.6225 161.494 52.7512 160.669 52.7512C158.835 52.7512 157.588 51.6296 157.588 49.7909C157.588 48.2281 158.285 47.0146 159.348 46.2975C160.064 45.7827 160.926 45.5436 161.916 45.5436C162.668 45.5436 163.236 45.7275 163.438 45.8378L163.035 47.0513C162.833 46.941 162.374 46.8307 161.769 46.8307C161.164 46.8307 160.596 47.0146 160.174 47.3639C159.587 47.842 159.22 48.6326 159.22 49.6071C159.22 50.7103 159.844 51.4641 161.072 51.4641C161.549 51.4641 162.044 51.3906 162.393 51.2435L162.521 52.4386L162.503 52.457Z" fill="black"/>
<path d="M166.079 45.6907L164.759 52.6593H163.273L164.594 45.6907H166.079Z" fill="black"/>
<path d="M170.646 49.699H168.17L167.858 51.3906H170.628L170.389 52.6593H166.116L167.437 45.6907H171.563L171.306 46.9594H168.684L168.39 48.4487H170.866L170.628 49.699H170.646Z" fill="black"/>
<path d="M171.47 52.6593L172.791 45.6907H174.533L175.45 48.3568C175.725 49.2394 175.909 49.9748 176.074 50.7287H176.11C176.147 50.0116 176.239 49.2577 176.422 48.2281L176.899 45.6907H178.274L176.972 52.6593H175.432L174.46 49.8829C174.148 48.9452 173.965 48.3016 173.781 47.4558H173.745C173.671 48.1362 173.488 49.129 173.286 50.2322L172.828 52.6776H171.452L171.47 52.6593Z" fill="black"/>
<path d="M180.678 46.9962H178.844L179.101 45.6907H184.272L184.015 46.9962H182.163L181.099 52.6593H179.614L180.678 46.9962Z" fill="black"/>
<path d="M186.564 45.6907L185.243 52.6592H183.758L185.078 45.6907H186.564ZM187.756 43.9991L186.399 45.3046H185.133L186.105 43.9991H187.756Z" fill="black"/>
<path d="M187.921 45.6907H191.992L191.754 46.9594H189.168L188.856 48.5958H191.277L191.02 49.8645H188.599L188.068 52.6776H186.582L187.902 45.7091L187.921 45.6907Z" fill="black"/>
<path d="M194.67 45.6907L193.35 52.6593H191.864L193.185 45.6907H194.67Z" fill="black"/>
<path d="M199.933 52.457C199.566 52.6225 198.924 52.7512 198.099 52.7512C196.265 52.7512 195.018 51.6296 195.018 49.7909C195.018 48.2281 195.714 47.0146 196.778 46.2975C197.493 45.7827 198.355 45.5436 199.346 45.5436C200.098 45.5436 200.666 45.7275 200.868 45.8378L200.464 47.0513C200.263 46.941 199.804 46.8307 199.199 46.8307C198.594 46.8307 198.025 47.0146 197.603 47.3639C197.017 47.842 196.65 48.6326 196.65 49.6071C196.65 50.7103 197.273 51.4641 198.502 51.4641C198.979 51.4641 199.474 51.3906 199.823 51.2435L199.951 52.4386L199.933 52.457Z" fill="black"/>
<path d="M202.721 50.8574L201.896 52.6777H200.318L203.711 45.7091H205.618L206.425 52.6777H204.867L204.72 50.8574H202.721ZM204.665 49.7174L204.536 48.2097C204.5 47.8236 204.463 47.272 204.426 46.8491H204.408C204.225 47.272 204.041 47.8052 203.858 48.2097L203.161 49.7174H204.665Z" fill="black"/>
<path d="M85.8077 65.0886L86.3395 62.2387L84.9824 58.1017H86.578L87.0181 59.8668C87.1465 60.4552 87.2198 60.7862 87.2932 61.1355H87.3115C87.5133 60.7678 87.7333 60.3633 88.0268 59.8668L89.0721 58.1017H90.8511L87.8434 62.2019L87.2932 65.0702H85.8077V65.0886Z" fill="black"/>
<path d="M94.5732 59.4072H92.7393L92.996 58.1017H98.1677L97.911 59.4072H96.0587L94.995 65.0702H93.5095L94.5732 59.4072Z" fill="black"/>
<path d="M102.202 62.1284H99.7261L99.4143 63.82H102.184L101.945 65.0886H97.6904L99.0109 58.1201H103.137L102.881 59.3888H100.258L99.9645 60.8781H102.44L102.202 62.1284Z" fill="black"/>
<path d="M108.255 64.8864C107.888 65.0518 107.246 65.1805 106.421 65.1805C104.587 65.1805 103.34 64.059 103.34 62.2203C103.34 60.6574 104.037 59.4439 105.1 58.7268C105.816 58.212 106.678 57.973 107.668 57.973C108.42 57.973 108.988 58.1569 109.19 58.2672L108.787 59.4807C108.585 59.3704 108.126 59.2601 107.521 59.2601C106.916 59.2601 106.348 59.4439 105.926 59.7933C105.339 60.2713 104.972 61.0619 104.972 62.0364C104.972 63.1396 105.596 63.8935 106.824 63.8935C107.301 63.8935 107.796 63.8199 108.145 63.6728L108.273 64.868L108.255 64.8864Z" fill="black"/>
<path d="M109.044 65.0886L110.364 58.1201H112.106L113.023 60.7862C113.298 61.6687 113.482 62.4042 113.647 63.158H113.683C113.72 62.441 113.812 61.6871 113.995 60.6575L114.472 58.1201H115.847L114.527 65.0886H112.986L112.015 62.3123C111.703 61.3745 111.519 60.731 111.336 59.8852H111.299C111.208 60.5655 111.043 61.5584 110.841 62.6616L110.382 65.107H109.007L109.044 65.0886Z" fill="black"/>
<path d="M122.853 60.8965C122.853 62.1652 122.413 63.3971 121.606 64.1877C120.964 64.8128 120.083 65.1989 119.038 65.1989C117.223 65.1989 116.214 63.9119 116.214 62.2939C116.214 61.0252 116.672 59.7749 117.498 58.9843C118.14 58.3591 119.038 57.9914 120.028 57.9914C121.862 57.9914 122.834 59.2417 122.834 60.8965H122.853ZM118.671 59.7565C118.121 60.3081 117.809 61.3929 117.809 62.2387C117.809 63.2132 118.25 63.9487 119.258 63.9487C119.698 63.9487 120.102 63.7464 120.432 63.4338C120.982 62.8822 121.276 61.7423 121.276 60.9333C121.276 60.0691 120.964 59.2233 119.863 59.2233C119.405 59.2233 118.983 59.4255 118.671 59.7565Z" fill="black"/>
<path d="M124.521 58.1017H126.007L124.925 63.7648H127.602L127.346 65.0702H123.183L124.503 58.1017H124.521Z" fill="black"/>
<path d="M134.718 60.8965C134.718 62.1652 134.278 63.3971 133.471 64.1877C132.829 64.8128 131.949 65.1989 130.903 65.1989C129.088 65.1989 128.079 63.9119 128.079 62.2939C128.079 61.0252 128.538 59.7749 129.363 58.9843C130.005 58.3591 130.903 57.9914 131.894 57.9914C133.728 57.9914 134.7 59.2417 134.7 60.8965H134.718ZM130.537 59.7565C129.986 60.3081 129.675 61.3929 129.675 62.2387C129.675 63.2132 130.115 63.9487 131.123 63.9487C131.564 63.9487 131.967 63.7464 132.297 63.4338C132.847 62.8822 133.141 61.7423 133.141 60.9332C133.141 60.0691 132.829 59.2233 131.729 59.2233C131.27 59.2233 130.848 59.4255 130.537 59.7565ZM133.929 56.3918L132.572 57.6972H131.307L132.279 56.3918H133.929Z" fill="black"/>
<path d="M140.826 64.7577C140.295 64.9415 139.451 65.1438 138.571 65.1438C137.617 65.1438 136.828 64.8864 136.242 64.3716C135.691 63.8751 135.361 63.1029 135.361 62.2203C135.361 60.9149 135.893 59.7933 136.792 59.0394C137.58 58.3959 138.644 58.0282 139.854 58.0282C140.771 58.0282 141.432 58.212 141.707 58.3407L141.267 59.6094C140.955 59.4623 140.405 59.3152 139.799 59.3152C139.103 59.3152 138.479 59.5175 138.021 59.8668C137.415 60.3449 137.012 61.1723 137.012 62.1284C137.012 63.3051 137.709 63.8935 138.791 63.8935C139.139 63.8935 139.378 63.8383 139.543 63.7648L139.818 62.2939H138.736L138.956 61.0987H141.487L140.79 64.7577H140.826Z" fill="black"/>
<path d="M144.786 58.1017L143.466 65.0702H141.98L143.301 58.1017H144.786Z" fill="black"/>
<path d="M150.068 64.8864C149.702 65.0518 149.06 65.1805 148.234 65.1805C146.4 65.1805 145.153 64.059 145.153 62.2203C145.153 60.6574 145.85 59.4439 146.914 58.7268C147.629 58.212 148.491 57.973 149.481 57.973C150.233 57.973 150.802 58.1569 151.004 58.2672L150.6 59.4807C150.398 59.3704 149.94 59.2601 149.335 59.2601C148.73 59.2601 148.161 59.4439 147.739 59.7933C147.152 60.2713 146.786 61.0619 146.786 62.0364C146.786 63.1396 147.409 63.8935 148.638 63.8935C149.115 63.8935 149.61 63.8199 149.958 63.6728L150.087 64.868L150.068 64.8864Z" fill="black"/>
<path d="M152.857 63.2684L152.031 65.0886H150.454L153.847 58.1201H155.754L156.561 65.0886H155.002L154.856 63.2684H152.857ZM154.801 62.1284L154.672 60.6207C154.636 60.2346 154.599 59.683 154.562 59.2601H154.544C154.36 59.683 154.177 60.2162 153.994 60.6207L153.297 62.1284H154.801Z" fill="black"/>
<path d="M156.524 66.3206C156.983 65.4012 157.441 64.3164 157.698 63.3787L159.312 63.2684C158.835 64.3164 158.212 65.4196 157.606 66.2102L156.524 66.3022V66.3206Z" fill="black"/>
<path d="M163.824 63.2684L162.999 65.0886H161.422L164.815 58.1201H166.722L167.529 65.0886H165.97L165.823 63.2684H163.824ZM165.768 62.1284L165.64 60.6207C165.603 60.2346 165.567 59.683 165.53 59.2601H165.512C165.328 59.683 165.145 60.2162 164.961 60.6207L164.264 62.1284H165.768Z" fill="black"/>
<path d="M168.28 64.3348C168.28 63.7648 168.684 63.2867 169.289 63.2867C169.802 63.2867 170.151 63.6545 170.151 64.1693C170.151 64.7761 169.711 65.199 169.124 65.199C168.61 65.199 168.28 64.8312 168.28 64.3348Z" fill="black"/>
<path d="M176.185 64.8864C175.818 65.0518 175.176 65.1805 174.351 65.1805C172.517 65.1805 171.27 64.059 171.27 62.2203C171.27 60.6574 171.966 59.4439 173.03 58.7268C173.745 58.212 174.607 57.973 175.598 57.973C176.35 57.973 176.918 58.1569 177.12 58.2672L176.716 59.4807C176.515 59.3704 176.056 59.2601 175.451 59.2601C174.846 59.2601 174.277 59.4439 173.855 59.7933C173.269 60.2713 172.902 61.0619 172.902 62.0364C172.902 63.1396 173.525 63.8935 174.754 63.8935C175.231 63.8935 175.726 63.8199 176.074 63.6728L176.203 64.868L176.185 64.8864Z" fill="black"/>
<path d="M176.972 64.3348C176.972 63.7648 177.375 63.2867 177.98 63.2867C178.494 63.2867 178.842 63.6545 178.842 64.1693C178.842 64.776 178.402 65.1989 177.815 65.1989C177.302 65.1989 176.972 64.8312 176.972 64.3348Z" fill="black"/>
<path d="M93.6 4.04501L89.2719 26.8996H84.3936L88.7217 4.04501H93.6Z" fill="black"/>
<path d="M97.9827 4.48631C99.4315 4.11857 101.742 3.87955 103.943 3.87955C105.979 3.87955 108.345 4.21051 109.995 5.40564C111.517 6.45367 112.471 8.05331 112.471 10.2597C112.471 13.1464 111.15 15.316 109.353 16.695C107.501 18.1476 104.86 18.7911 102.091 18.7911C101.284 18.7911 100.605 18.7176 100.092 18.6624L98.5329 26.8996H93.7646L97.9827 4.48631ZM100.825 14.6909C101.339 14.8012 101.871 14.8564 102.678 14.8564C105.612 14.8564 107.556 12.9625 107.556 10.6826C107.556 8.40266 105.96 7.75912 104.071 7.75912C103.154 7.75912 102.513 7.83267 102.109 7.9246L100.825 14.6725V14.6909Z" fill="black"/>
<path d="M121.934 4.04501L117.606 26.8996H112.728L117.056 4.04501H121.934Z" fill="black"/>
<path d="M139.21 26.2561C138 26.8077 135.928 27.2306 133.195 27.2306C127.18 27.2306 123.108 23.5716 123.108 17.5408C123.108 12.4293 125.401 8.42106 128.849 6.12273C131.214 4.46793 134.02 3.67731 137.23 3.67731C139.706 3.67731 141.558 4.24729 142.2 4.6518L140.879 8.62331C140.201 8.29235 138.715 7.86946 136.753 7.86946C134.791 7.86946 132.938 8.47622 131.545 9.63457C129.619 11.1974 128.409 13.8083 128.409 16.9892C128.409 20.6114 130.444 23.0568 134.461 23.0568C136.056 23.0568 137.633 22.781 138.789 22.303L139.192 26.2377L139.21 26.2561Z" fill="black"/>
<path d="M146.381 26.8996L148.141 17.5776L143.703 4.04501H148.912L150.36 9.8368C150.764 11.7306 151.002 12.8154 151.241 13.9738H151.314C151.993 12.7603 152.671 11.4732 153.643 9.80003L157.054 4.04501H162.868L153.02 17.4672L151.222 26.8996H146.344H146.381Z" fill="black"/>
<path d="M168.865 8.31071H162.85L163.693 4.04501H180.639L179.832 8.31071H173.743L170.259 26.8812H165.38L168.865 8.31071Z" fill="black"/>
</svg>
