<svg width="320" height="32" viewBox="0 0 320 32" fill="none" xmlns="http://www.w3.org/2000/svg">
<g opacity="0.35" clip-path="url(#clip0_2059_637)">
<path d="M125.26 18.91C124.85 19.09 124.2 19.25 123.39 19.25C121.57 19.25 120.47 18.11 120.47 16.27C120.47 14.91 121.01 13.62 122.01 12.79C122.75 12.16 123.67 11.82 124.73 11.82C125.53 11.82 126.1 12.02 126.29 12.17L126 12.89C125.73 12.73 125.22 12.59 124.58 12.59C123.83 12.59 123.07 12.88 122.52 13.4C121.85 14.03 121.42 15.05 121.42 16.14C121.42 17.43 122.01 18.49 123.61 18.49C124.16 18.49 124.75 18.38 125.15 18.18L125.27 18.91H125.26Z" fill="black"/>
<path d="M131.07 16.01C131.07 17.6 129.94 19.26 128.2 19.26C126.91 19.26 126.18 18.3 126.18 17.13C126.18 15.43 127.37 13.85 129.05 13.85C130.45 13.85 131.07 14.91 131.07 16.01ZM127.1 17.1C127.1 17.94 127.56 18.55 128.32 18.55C129.37 18.55 130.16 17.2 130.16 15.99C130.16 15.39 129.88 14.55 128.95 14.55C127.84 14.55 127.09 15.91 127.1 17.1Z" fill="black"/>
<path d="M136.69 16.01C136.69 17.6 135.56 19.26 133.82 19.26C132.53 19.26 131.8 18.3 131.8 17.13C131.8 15.43 132.99 13.85 134.67 13.85C136.07 13.85 136.69 14.91 136.69 16.01ZM132.72 17.1C132.72 17.94 133.18 18.55 133.94 18.55C134.99 18.55 135.78 17.2 135.78 15.99C135.78 15.39 135.5 14.55 134.57 14.55C133.46 14.55 132.71 15.91 132.72 17.1Z" fill="black"/>
<path d="M137.31 19.14L137.94 15.8C138.07 15.13 138.15 14.44 138.21 13.96H138.99C138.95 14.32 138.91 14.69 138.85 15.08H138.88C139.21 14.37 139.77 13.84 140.46 13.84C140.54 13.84 140.64 13.85 140.71 13.86L140.54 14.74C140.49 14.73 140.4 14.72 140.3 14.72C139.53 14.72 138.84 15.65 138.62 16.86L138.19 19.14H137.3H137.31Z" fill="black"/>
<path d="M146.15 11.55L145.02 17.51C144.91 18.05 144.83 18.64 144.8 19.15H143.99L144.13 18.12H144.11C143.64 18.86 142.99 19.26 142.25 19.26C141.24 19.26 140.7 18.44 140.7 17.38C140.7 15.54 142.07 13.85 143.9 13.85C144.23 13.85 144.6 13.93 144.82 14.03L145.28 11.55H146.17H146.15ZM144.67 14.78C144.49 14.66 144.19 14.57 143.81 14.57C142.57 14.57 141.61 15.89 141.61 17.27C141.61 17.89 141.82 18.54 142.58 18.54C143.26 18.54 144.09 17.76 144.31 16.59L144.66 14.78H144.67Z" fill="black"/>
<path d="M146.26 19.14L147.25 13.96H148.14L147.15 19.14H146.26ZM147.42 12.52C147.42 12.18 147.69 11.92 148.01 11.92C148.33 11.92 148.53 12.16 148.53 12.48C148.52 12.83 148.27 13.08 147.93 13.08C147.62 13.08 147.42 12.84 147.42 12.52Z" fill="black"/>
<path d="M148.71 19.14L149.41 15.47C149.53 14.89 149.59 14.39 149.66 13.96H150.45L150.32 14.98H150.34C150.8 14.25 151.49 13.85 152.25 13.85C152.87 13.85 153.57 14.2 153.57 15.29C153.57 15.51 153.53 15.85 153.47 16.12L152.89 19.14H152L152.57 16.16C152.61 15.96 152.64 15.71 152.64 15.5C152.64 14.98 152.44 14.59 151.83 14.59C151.22 14.59 150.3 15.35 150.07 16.63L149.6 19.14H148.71Z" fill="black"/>
<path d="M157.86 19.14C157.86 18.83 157.91 18.34 157.98 17.8H157.96C157.39 18.87 156.69 19.25 155.95 19.25C155.04 19.25 154.46 18.52 154.46 17.54C154.46 15.74 155.79 13.84 158.04 13.84C158.53 13.84 159.08 13.93 159.43 14.04L158.91 16.74C158.74 17.64 158.66 18.56 158.69 19.14H157.87H157.86ZM158.44 14.63C158.31 14.6 158.12 14.55 157.82 14.55C156.48 14.55 155.39 15.95 155.38 17.38C155.38 17.96 155.58 18.52 156.27 18.52C157.01 18.52 157.89 17.56 158.14 16.18L158.44 14.62V14.63Z" fill="black"/>
<path d="M163.57 18.94C163.3 19.07 162.77 19.25 162.07 19.25C160.73 19.25 160.08 18.35 160.08 17.25C160.08 15.48 161.39 13.86 163.25 13.86C163.73 13.86 164.17 14 164.33 14.08L164.07 14.79C163.87 14.69 163.58 14.6 163.19 14.6C161.84 14.6 161 15.93 161 17.15C161 17.98 161.44 18.53 162.28 18.53C162.8 18.53 163.21 18.37 163.48 18.24L163.57 18.95V18.94Z" fill="black"/>
<path d="M164.54 19.14L165.53 13.96H166.42L165.43 19.14H164.54ZM165.69 12.52C165.69 12.18 165.96 11.92 166.28 11.92C166.6 11.92 166.8 12.16 166.8 12.48C166.79 12.83 166.54 13.08 166.2 13.08C165.89 13.08 165.69 12.84 165.69 12.52Z" fill="black"/>
<path d="M171.95 16.01C171.95 17.6 170.82 19.26 169.08 19.26C167.79 19.26 167.06 18.3 167.06 17.13C167.06 15.43 168.25 13.85 169.93 13.85C171.33 13.85 171.95 14.91 171.95 16.01ZM167.98 17.1C167.98 17.94 168.44 18.55 169.2 18.55C170.25 18.55 171.04 17.2 171.04 15.99C171.04 15.39 170.76 14.55 169.83 14.55C168.72 14.55 167.97 15.91 167.98 17.1ZM171.67 11.8L170.25 13.33H169.55L170.6 11.8H171.67Z" fill="black"/>
<path d="M172.569 19.14L173.269 15.47C173.389 14.89 173.449 14.39 173.519 13.96H174.309L174.179 14.98H174.199C174.659 14.25 175.349 13.85 176.109 13.85C176.729 13.85 177.429 14.2 177.429 15.29C177.429 15.51 177.389 15.85 177.329 16.12L176.749 19.14H175.859L176.429 16.16C176.469 15.96 176.499 15.71 176.499 15.5C176.499 14.98 176.299 14.59 175.689 14.59C175.079 14.59 174.159 15.35 173.929 16.63L173.459 19.14H172.569Z" fill="black"/>
<path d="M185.74 11.55L184.61 17.51C184.5 18.05 184.42 18.64 184.39 19.15H183.58L183.72 18.12H183.7C183.23 18.86 182.58 19.26 181.84 19.26C180.83 19.26 180.29 18.44 180.29 17.38C180.29 15.54 181.66 13.85 183.49 13.85C183.82 13.85 184.19 13.93 184.41 14.03L184.87 11.55H185.76H185.74ZM184.26 14.78C184.08 14.66 183.78 14.57 183.4 14.57C182.16 14.57 181.2 15.89 181.2 17.27C181.2 17.89 181.41 18.54 182.17 18.54C182.85 18.54 183.68 17.76 183.9 16.59L184.25 14.78H184.26Z" fill="black"/>
<path d="M189.59 18.84C189.21 19.06 188.57 19.25 187.88 19.25C186.51 19.25 185.91 18.32 185.91 17.17C185.91 15.61 187.07 13.84 188.73 13.84C189.71 13.84 190.25 14.43 190.25 15.17C190.25 16.53 188.72 16.89 186.81 16.86C186.77 17.08 186.8 17.57 186.92 17.84C187.12 18.3 187.54 18.54 188.08 18.54C188.69 18.54 189.15 18.35 189.47 18.18L189.6 18.84H189.59ZM188.6 14.54C187.75 14.54 187.12 15.36 186.91 16.18C188.3 16.19 189.39 16.01 189.39 15.21C189.39 14.78 189.07 14.55 188.6 14.55V14.54Z" fill="black"/>
<path d="M195.15 12.7H193.04L193.19 11.93H198.3L198.15 12.7H196.03L194.81 19.14H193.92L195.14 12.7H195.15Z" fill="black"/>
<path d="M200.82 18.84C200.44 19.06 199.8 19.25 199.11 19.25C197.74 19.25 197.14 18.32 197.14 17.17C197.14 15.61 198.3 13.84 199.96 13.84C200.94 13.84 201.48 14.43 201.48 15.17C201.48 16.53 199.95 16.89 198.04 16.86C198 17.08 198.03 17.57 198.15 17.84C198.35 18.3 198.77 18.54 199.31 18.54C199.92 18.54 200.38 18.35 200.7 18.18L200.83 18.84H200.82ZM199.84 14.54C198.99 14.54 198.36 15.36 198.15 16.18C199.54 16.19 200.63 16.01 200.63 15.21C200.63 14.78 200.31 14.55 199.84 14.55V14.54Z" fill="black"/>
<path d="M205.5 18.94C205.23 19.07 204.7 19.25 204 19.25C202.66 19.25 202.01 18.35 202.01 17.25C202.01 15.48 203.32 13.86 205.18 13.86C205.66 13.86 206.1 14 206.26 14.08L206 14.79C205.8 14.69 205.51 14.6 205.12 14.6C203.77 14.6 202.93 15.93 202.93 17.15C202.93 17.98 203.37 18.53 204.21 18.53C204.73 18.53 205.14 18.37 205.41 18.24L205.5 18.95V18.94Z" fill="black"/>
<path d="M206.46 19.14L207.16 15.47C207.28 14.89 207.34 14.39 207.41 13.96H208.2L208.07 14.98H208.09C208.55 14.25 209.25 13.85 210 13.85C210.62 13.85 211.32 14.2 211.32 15.29C211.32 15.51 211.28 15.85 211.22 16.12L210.64 19.14H209.75L210.32 16.16C210.36 15.96 210.39 15.71 210.39 15.5C210.39 14.98 210.19 14.59 209.58 14.59C208.97 14.59 208.05 15.35 207.82 16.63L207.35 19.14H206.46Z" fill="black"/>
<path d="M217.14 16.01C217.14 17.6 216.01 19.26 214.27 19.26C212.98 19.26 212.25 18.3 212.25 17.13C212.25 15.43 213.44 13.85 215.12 13.85C216.52 13.85 217.14 14.91 217.14 16.01ZM213.17 17.1C213.17 17.94 213.63 18.55 214.39 18.55C215.44 18.55 216.23 17.2 216.23 15.99C216.23 15.39 215.95 14.55 215.02 14.55C213.91 14.55 213.16 15.91 213.17 17.1Z" fill="black"/>
<path d="M217.77 19.14L219.21 11.55H220.1L218.65 19.14H217.77Z" fill="black"/>
<path d="M225.169 16.01C225.169 17.6 224.039 19.26 222.299 19.26C221.009 19.26 220.279 18.3 220.279 17.13C220.279 15.43 221.469 13.85 223.149 13.85C224.549 13.85 225.169 14.91 225.169 16.01ZM221.209 17.1C221.209 17.94 221.669 18.55 222.429 18.55C223.479 18.55 224.269 17.2 224.269 15.99C224.269 15.39 223.989 14.55 223.059 14.55C221.949 14.55 221.199 15.91 221.209 17.1Z" fill="black"/>
<path d="M225.88 20.32C226.19 20.51 226.7 20.66 227.25 20.66C228.12 20.66 228.8 20.21 229.11 18.81L229.28 18.04H229.25C228.8 18.78 228.17 19.14 227.45 19.14C226.41 19.14 225.88 18.26 225.88 17.34C225.88 15.59 227.16 13.84 229.16 13.84C229.76 13.84 230.41 14.01 230.82 14.2L230.03 18.48C229.82 19.57 229.53 20.33 228.98 20.79C228.47 21.24 227.77 21.37 227.17 21.37C226.54 21.37 225.95 21.22 225.62 21.01L225.88 20.31V20.32ZM229.85 14.73C229.69 14.65 229.37 14.56 228.99 14.56C227.7 14.56 226.81 15.91 226.8 17.19C226.8 17.76 227 18.43 227.8 18.43C228.6 18.43 229.33 17.47 229.52 16.45L229.85 14.73Z" fill="black"/>
<path d="M231.439 19.14L232.429 13.96H233.319L232.329 19.14H231.439ZM234.589 11.8L233.169 13.33H232.469L233.519 11.8H234.589Z" fill="black"/>
<path d="M237.32 19.14C237.32 18.83 237.37 18.34 237.44 17.8H237.42C236.85 18.87 236.15 19.25 235.41 19.25C234.5 19.25 233.92 18.52 233.92 17.54C233.92 15.74 235.25 13.84 237.5 13.84C237.99 13.84 238.54 13.93 238.89 14.04L238.37 16.74C238.2 17.64 238.12 18.56 238.15 19.14H237.33H237.32ZM237.9 14.63C237.77 14.6 237.58 14.55 237.28 14.55C235.94 14.55 234.85 15.95 234.84 17.38C234.84 17.96 235.04 18.52 235.73 18.52C236.47 18.52 237.35 17.56 237.6 16.18L237.9 14.62V14.63Z" fill="black"/>
<path d="M239.51 18.24C239.76 18.39 240.21 18.56 240.62 18.56C241.22 18.56 241.6 18.17 241.6 17.71C241.6 17.3 241.42 17.06 240.88 16.76C240.28 16.43 239.95 15.97 239.95 15.44C239.95 14.53 240.73 13.84 241.82 13.84C242.29 13.84 242.71 13.97 242.9 14.1L242.65 14.77C242.47 14.66 242.14 14.53 241.75 14.53C241.21 14.53 240.83 14.86 240.83 15.31C240.83 15.68 241.08 15.92 241.54 16.18C242.12 16.51 242.51 16.96 242.51 17.54C242.51 18.63 241.62 19.24 240.53 19.24C239.97 19.24 239.48 19.07 239.25 18.89L239.5 18.24H239.51Z" fill="black"/>
<path d="M250.92 11.55L249.79 17.51C249.68 18.05 249.6 18.64 249.57 19.15H248.76L248.9 18.12H248.88C248.41 18.86 247.76 19.26 247.02 19.26C246.01 19.26 245.47 18.44 245.47 17.38C245.47 15.54 246.84 13.85 248.67 13.85C249 13.85 249.37 13.93 249.59 14.03L250.05 11.55H250.94H250.92ZM249.43 14.78C249.25 14.66 248.95 14.57 248.57 14.57C247.33 14.57 246.37 15.89 246.37 17.27C246.37 17.89 246.58 18.54 247.34 18.54C248.02 18.54 248.85 17.76 249.07 16.59L249.42 14.78H249.43Z" fill="black"/>
<path d="M254.76 18.84C254.38 19.06 253.74 19.25 253.05 19.25C251.68 19.25 251.08 18.32 251.08 17.17C251.08 15.61 252.24 13.84 253.9 13.84C254.88 13.84 255.42 14.43 255.42 15.17C255.42 16.53 253.89 16.89 251.98 16.86C251.94 17.08 251.97 17.57 252.09 17.84C252.29 18.3 252.71 18.54 253.25 18.54C253.86 18.54 254.32 18.35 254.64 18.18L254.77 18.84H254.76ZM253.78 14.54C252.93 14.54 252.3 15.36 252.09 16.18C253.48 16.19 254.57 16.01 254.57 15.21C254.57 14.78 254.25 14.55 253.78 14.55V14.54Z" fill="black"/>
<path d="M257.83 19.14L259.27 11.55H260.16L258.71 19.14H257.83Z" fill="black"/>
<path d="M263.71 19.14C263.71 18.83 263.76 18.34 263.83 17.8H263.81C263.24 18.87 262.54 19.25 261.8 19.25C260.89 19.25 260.31 18.52 260.31 17.54C260.31 15.74 261.64 13.84 263.89 13.84C264.38 13.84 264.93 13.93 265.28 14.04L264.76 16.74C264.59 17.64 264.51 18.56 264.54 19.14H263.72H263.71ZM264.28 14.63C264.15 14.6 263.96 14.55 263.66 14.55C262.32 14.55 261.23 15.95 261.22 17.38C261.22 17.96 261.42 18.52 262.11 18.52C262.85 18.52 263.73 17.56 263.98 16.18L264.28 14.62V14.63Z" fill="black"/>
<path d="M270.079 11.93L268.709 19.14H267.819L269.189 11.93H270.079Z" fill="black"/>
<path d="M270.3 19.14L271 15.47C271.12 14.89 271.18 14.39 271.25 13.96H272.04L271.91 14.98H271.93C272.39 14.25 273.09 13.85 273.84 13.85C274.46 13.85 275.16 14.2 275.16 15.29C275.16 15.51 275.12 15.85 275.06 16.12L274.48 19.14H273.59L274.16 16.16C274.2 15.96 274.23 15.71 274.23 15.5C274.23 14.98 274.03 14.59 273.42 14.59C272.81 14.59 271.89 15.35 271.66 16.63L271.19 19.14H270.3Z" fill="black"/>
<path d="M276.14 19.14L276.98 14.66H276.3L276.43 13.96H277.13L277.18 13.69C277.3 12.96 277.55 12.3 278.02 11.88C278.34 11.58 278.8 11.42 279.25 11.42C279.6 11.42 279.84 11.48 279.96 11.56L279.77 12.27C279.63 12.21 279.45 12.17 279.25 12.17C278.54 12.17 278.2 12.85 278.05 13.71L278.01 13.96H279.17L279.03 14.66H277.89L277.03 19.14H276.15H276.14Z" fill="black"/>
<path d="M283.999 16.01C283.999 17.6 282.869 19.26 281.129 19.26C279.839 19.26 279.109 18.3 279.109 17.13C279.109 15.43 280.299 13.85 281.979 13.85C283.379 13.85 283.999 14.91 283.999 16.01ZM280.029 17.1C280.029 17.94 280.489 18.55 281.249 18.55C282.299 18.55 283.089 17.2 283.089 15.99C283.089 15.39 282.809 14.55 281.879 14.55C280.769 14.55 280.019 15.91 280.029 17.1Z" fill="black"/>
<path d="M284.63 19.14L285.26 15.8C285.39 15.13 285.47 14.44 285.53 13.96H286.31C286.27 14.32 286.23 14.69 286.17 15.08H286.2C286.53 14.37 287.09 13.84 287.78 13.84C287.86 13.84 287.96 13.85 288.03 13.86L287.86 14.74C287.81 14.73 287.72 14.72 287.62 14.72C286.85 14.72 286.16 15.65 285.94 16.86L285.51 19.14H284.62H284.63Z" fill="black"/>
<path d="M288.03 19.14L288.73 15.47C288.84 14.89 288.91 14.39 288.97 13.96H289.75L289.61 14.93H289.64C290.12 14.21 290.77 13.84 291.46 13.84C292.25 13.84 292.63 14.34 292.67 15C293.13 14.25 293.79 13.86 294.57 13.84C295.17 13.84 295.82 14.23 295.82 15.2C295.82 15.45 295.79 15.79 295.73 16.08L295.15 19.14H294.28L294.84 16.16C294.88 15.97 294.91 15.7 294.91 15.49C294.91 14.94 294.71 14.59 294.13 14.59C293.49 14.59 292.73 15.34 292.51 16.49L292.01 19.14H291.15L291.73 16.1C291.77 15.88 291.79 15.67 291.79 15.47C291.79 15.03 291.67 14.58 291.02 14.58C290.37 14.58 289.56 15.44 289.36 16.54L288.88 19.14H288.01H288.03Z" fill="black"/>
<path d="M300.11 19.14C300.11 18.83 300.16 18.34 300.23 17.8H300.21C299.64 18.87 298.94 19.25 298.2 19.25C297.29 19.25 296.71 18.52 296.71 17.54C296.71 15.74 298.04 13.84 300.29 13.84C300.78 13.84 301.33 13.93 301.68 14.04L301.16 16.74C300.99 17.64 300.91 18.56 300.94 19.14H300.12H300.11ZM300.69 14.63C300.56 14.6 300.37 14.55 300.07 14.55C298.73 14.55 297.64 15.95 297.63 17.38C297.63 17.96 297.83 18.52 298.52 18.52C299.26 18.52 300.14 17.56 300.39 16.18L300.69 14.62V14.63Z" fill="black"/>
<path d="M305.82 18.94C305.55 19.07 305.02 19.25 304.32 19.25C302.98 19.25 302.33 18.35 302.33 17.25C302.33 15.48 303.64 13.86 305.5 13.86C305.98 13.86 306.42 14 306.58 14.08L306.32 14.79C306.12 14.69 305.83 14.6 305.44 14.6C304.09 14.6 303.25 15.93 303.25 17.15C303.25 17.98 303.69 18.53 304.53 18.53C305.05 18.53 305.46 18.37 305.73 18.24L305.82 18.95V18.94Z" fill="black"/>
<path d="M306.79 19.14L307.78 13.96H308.67L307.68 19.14H306.79ZM307.94 12.52C307.94 12.18 308.21 11.92 308.53 11.92C308.85 11.92 309.05 12.16 309.05 12.48C309.04 12.83 308.79 13.08 308.45 13.08C308.14 13.08 307.94 12.84 307.94 12.52Z" fill="black"/>
<path d="M314.2 16.01C314.2 17.6 313.07 19.26 311.33 19.26C310.04 19.26 309.31 18.3 309.31 17.13C309.31 15.43 310.5 13.85 312.18 13.85C313.58 13.85 314.2 14.91 314.2 16.01ZM310.23 17.1C310.23 17.94 310.69 18.55 311.45 18.55C312.5 18.55 313.29 17.2 313.29 15.99C313.29 15.39 313.01 14.55 312.08 14.55C310.97 14.55 310.22 15.91 310.23 17.1ZM313.92 11.8L312.5 13.33H311.8L312.85 11.8H313.92Z" fill="black"/>
<path d="M314.819 19.14L315.519 15.47C315.639 14.89 315.699 14.39 315.769 13.96H316.559L316.429 14.98H316.449C316.909 14.25 317.599 13.85 318.359 13.85C318.979 13.85 319.679 14.2 319.679 15.29C319.679 15.51 319.639 15.85 319.579 16.12L318.999 19.14H318.109L318.679 16.16C318.719 15.96 318.749 15.71 318.749 15.5C318.749 14.98 318.549 14.59 317.939 14.59C317.329 14.59 316.409 15.35 316.179 16.63L315.709 19.14H314.819Z" fill="black"/>
<path d="M107.59 2H106.62V29.99H107.59V2Z" fill="black"/>
<path d="M13.4 2.9C13.9 2.9 14.34 2.65 14.6 2.26C14.84 2.31 15.2 2.4 15.65 2.55C15.65 2.58 15.65 2.6 15.65 2.63C15.65 3.29 16.18 3.82 16.84 3.82C17.17 3.82 17.47 3.68 17.68 3.47C18.04 3.68 18.42 3.92 18.8 4.19C18.77 4.28 18.75 4.38 18.75 4.49C18.75 5.02 19.18 5.45 19.71 5.45C19.87 5.45 20.02 5.41 20.15 5.34C20.47 5.66 20.8 6.01 21.11 6.39C21.09 6.46 21.07 6.53 21.07 6.61C21.07 7.03 21.41 7.36 21.82 7.36C22.06 7.73 22.3 8.12 22.53 8.54C22.44 8.65 22.38 8.78 22.38 8.94C22.38 9.27 22.65 9.53 22.97 9.53C23.29 9.53 23.56 9.26 23.56 8.94C23.56 8.63 23.33 8.39 23.03 8.35C22.89 8.02 22.69 7.59 22.39 7.09C22.5 6.96 22.57 6.79 22.57 6.61C22.57 6.19 22.23 5.86 21.82 5.86C21.74 5.86 21.66 5.88 21.58 5.9C21.3 5.54 20.97 5.18 20.6 4.81C20.64 4.71 20.66 4.6 20.66 4.49C20.66 3.96 20.23 3.53 19.7 3.53C19.54 3.53 19.38 3.58 19.25 3.65C18.87 3.37 18.46 3.1 18.01 2.84C18.02 2.77 18.03 2.7 18.03 2.63C18.03 1.97 17.5 1.44 16.84 1.44C16.48 1.44 16.16 1.6 15.94 1.86C15.59 1.73 15.23 1.6 14.86 1.49C14.86 1.48 14.86 1.46 14.86 1.45C14.86 0.65 14.21 0 13.41 0C12.61 0 11.96 0.65 11.96 1.45C11.96 2.25 12.61 2.9 13.41 2.9" fill="black"/>
<path d="M8.7799 5.46001C9.2599 5.31001 9.5999 4.94001 9.7399 4.50001C9.9799 4.48001 10.3499 4.45001 10.8299 4.47001C10.8299 4.50001 10.8299 4.52001 10.8499 4.55001C11.0399 5.18001 11.7099 5.53001 12.3399 5.33001C12.6599 5.23001 12.8999 5.01001 13.0399 4.74001C13.4499 4.83001 13.8699 4.95001 14.3199 5.10001C14.3199 5.20001 14.3199 5.30001 14.3599 5.40001C14.5199 5.90001 15.0499 6.19001 15.5599 6.03001C15.7099 5.98001 15.8399 5.90001 15.9499 5.79001C16.3499 6.00001 16.7699 6.24001 17.1799 6.51001C17.1799 6.58001 17.1799 6.66001 17.2099 6.73001C17.3299 7.13001 17.7599 7.35001 18.1499 7.23001C18.4899 7.51001 18.8299 7.81001 19.1699 8.14001C19.1099 8.27001 19.0999 8.42001 19.1399 8.56001C19.2399 8.87001 19.5699 9.05001 19.8899 8.95001C20.1999 8.85001 20.3799 8.52001 20.2799 8.20001C20.1899 7.91001 19.8899 7.74001 19.5999 7.80001C19.3699 7.53001 19.0499 7.17001 18.6199 6.79001C18.6799 6.63001 18.6999 6.45001 18.6399 6.28001C18.5199 5.88001 18.0899 5.66001 17.6999 5.79001C17.6199 5.82001 17.5499 5.86001 17.4799 5.90001C17.1099 5.64001 16.6899 5.39001 16.2199 5.15001C16.2199 5.04001 16.2199 4.94001 16.1799 4.83001C16.0199 4.33001 15.4899 4.04001 14.9799 4.20001C14.8199 4.25001 14.6899 4.34001 14.5799 4.45001C14.1299 4.30001 13.6599 4.16001 13.1499 4.05001C13.1499 3.98001 13.1299 3.91001 13.1099 3.84001C12.9099 3.21001 12.2499 2.86001 11.6199 3.06001C11.2699 3.17001 11.0199 3.42001 10.8899 3.73001C10.5199 3.71001 10.1399 3.69001 9.7399 3.70001C9.7399 3.69001 9.7399 3.67001 9.7399 3.66001C9.4999 2.90001 8.6899 2.47001 7.9199 2.71001C7.1599 2.95001 6.7299 3.76001 6.9699 4.53001C7.2099 5.30001 8.0199 5.72001 8.7899 5.48001" fill="black"/>
<path d="M3.06019 10.55C3.40019 10.18 3.51019 9.68999 3.40019 9.23999C3.60019 9.09999 3.91019 8.88999 4.33019 8.66999C4.35019 8.68999 4.36019 8.70999 4.38019 8.72999C4.86019 9.16999 5.62019 9.13999 6.06019 8.65999C6.28019 8.41999 6.39019 8.10999 6.37019 7.79999C6.77019 7.66999 7.20019 7.55999 7.66019 7.46999C7.71019 7.55999 7.77019 7.63999 7.84019 7.70999C8.23019 8.06999 8.83019 8.03999 9.19019 7.64999C9.30019 7.52999 9.37019 7.38999 9.41019 7.24999C9.86019 7.22999 10.3402 7.22999 10.8302 7.24999C10.8702 7.30999 10.9102 7.36999 10.9702 7.41999C11.2802 7.69999 11.7502 7.67999 12.0302 7.37999C12.4702 7.44999 12.9102 7.53999 13.3802 7.65999C13.3902 7.79999 13.4502 7.93999 13.5602 8.03999C13.8002 8.25999 14.1802 8.24999 14.4002 7.99999C14.6202 7.75999 14.6102 7.37999 14.3602 7.15999C14.1402 6.94999 13.8002 6.95999 13.5802 7.15999C13.2502 7.03999 12.7902 6.88999 12.2202 6.76999C12.2002 6.59999 12.1202 6.43999 11.9902 6.31999C11.6802 6.03999 11.2102 6.05999 10.9202 6.36999C10.8602 6.42999 10.8202 6.49999 10.7902 6.57999C10.3402 6.54999 9.85019 6.53999 9.33019 6.55999C9.28019 6.46999 9.22019 6.37999 9.14019 6.29999C8.75019 5.93999 8.15019 5.96999 7.79019 6.35999C7.68019 6.47999 7.61019 6.61999 7.57019 6.76999C7.11019 6.85999 6.63019 6.97999 6.13019 7.13999C6.09019 7.07999 6.04019 7.02999 5.99019 6.97999C5.51019 6.53999 4.75019 6.56999 4.31019 7.04999C4.07019 7.31999 3.97019 7.65999 4.01019 7.99999C3.68019 8.15999 3.34019 8.33999 3.00019 8.53999C3.00019 8.53999 2.98019 8.51999 2.97019 8.50999C2.38019 7.96999 1.46019 8.00999 0.92019 8.59999C0.38019 9.18999 0.42019 10.11 1.01019 10.65C1.60019 11.19 2.52019 11.15 3.06019 10.56" fill="black"/>
<path d="M2.74988 15.4C2.96988 14.95 2.93988 14.45 2.70988 14.04C2.85988 13.85 3.09988 13.56 3.42988 13.23C3.44988 13.24 3.46988 13.26 3.49988 13.27C4.08988 13.56 4.79988 13.32 5.08988 12.73C5.23988 12.43 5.24988 12.11 5.14988 11.82C5.49988 11.59 5.86988 11.36 6.28988 11.14C6.35988 11.21 6.43988 11.27 6.52988 11.32C6.99988 11.55 7.57988 11.36 7.80988 10.88C7.87988 10.74 7.90988 10.58 7.89988 10.44C8.32988 10.29 8.78989 10.16 9.26989 10.04C9.31989 10.09 9.37988 10.13 9.44988 10.17C9.81988 10.35 10.2699 10.2 10.4599 9.82998C10.8999 9.76998 11.3499 9.72998 11.8299 9.70998C11.8799 9.83998 11.9799 9.95998 12.1199 10.02C12.4199 10.16 12.7699 10.04 12.9199 9.74998C13.0699 9.45998 12.9399 9.09998 12.6499 8.94998C12.3799 8.81998 12.0499 8.90998 11.8899 9.15998C11.5399 9.13998 11.0599 9.12998 10.4799 9.17998C10.4099 9.02998 10.2899 8.88998 10.1299 8.80998C9.75988 8.62998 9.29988 8.77998 9.11988 9.14998C9.07988 9.22998 9.05989 9.30998 9.04988 9.37998C8.60989 9.46998 8.12988 9.59998 7.63988 9.77998C7.56988 9.69998 7.47988 9.63998 7.37988 9.58998C6.90988 9.35998 6.32988 9.54998 6.09988 10.03C6.02988 10.18 5.99988 10.33 6.00988 10.49C5.58988 10.71 5.15988 10.96 4.72988 11.25C4.66988 11.21 4.61988 11.17 4.54988 11.14C3.95988 10.85 3.24988 11.09 2.95988 11.68C2.79988 12.01 2.80988 12.36 2.93988 12.67C2.66988 12.92 2.39988 13.19 2.12988 13.48C2.11988 13.48 2.10988 13.46 2.09988 13.46C1.37988 13.11 0.509885 13.4 0.159885 14.12C-0.190115 14.84 0.0998846 15.71 0.819885 16.06C1.53988 16.41 2.40988 16.12 2.75988 15.4" fill="black"/>
<path d="M5.23979 16.37C5.20979 16.21 5.13979 16.07 5.04979 15.96C5.30979 15.59 5.58979 15.21 5.91979 14.83C5.98979 14.83 6.05979 14.84 6.13979 14.83C6.54979 14.76 6.81979 14.37 6.74979 13.96C7.06979 13.65 7.40979 13.35 7.77979 13.06C7.89979 13.14 8.04979 13.17 8.19979 13.14C8.51979 13.08 8.73979 12.77 8.67979 12.45C8.61979 12.13 8.30979 11.91 7.98979 11.97C7.68979 12.02 7.48979 12.29 7.49979 12.59C7.19979 12.78 6.80979 13.06 6.36979 13.44C6.21979 13.36 6.04979 13.32 5.86979 13.35C5.45979 13.42 5.18979 13.81 5.25979 14.23C5.26979 14.31 5.30979 14.39 5.33979 14.46C5.03979 14.8 4.72979 15.18 4.43979 15.61C4.33979 15.59 4.22979 15.59 4.11979 15.61C3.59979 15.7 3.24979 16.2 3.34979 16.72C3.37979 16.88 3.44979 17.02 3.54979 17.14C3.33979 17.56 3.14979 18.02 2.96979 18.51C2.89979 18.51 2.82979 18.51 2.75979 18.53C2.10979 18.65 1.67979 19.26 1.79979 19.91C1.85979 20.27 2.07979 20.55 2.36979 20.72C2.29979 21.08 2.23979 21.46 2.18979 21.85C2.17979 21.85 2.15979 21.85 2.14979 21.85C1.35979 21.99 0.839793 22.74 0.979793 23.53C1.11979 24.32 1.86979 24.84 2.65979 24.7C3.44979 24.56 3.96979 23.81 3.82979 23.02C3.73979 22.53 3.41979 22.14 2.98979 21.95C2.98979 21.7 3.01979 21.33 3.08979 20.87C3.11979 20.87 3.13979 20.87 3.16979 20.87C3.81979 20.76 4.24979 20.14 4.12979 19.49C4.06979 19.17 3.88979 18.9 3.63979 18.72C3.77979 18.33 3.94979 17.92 4.15979 17.49C4.25979 17.5 4.35979 17.51 4.45979 17.49C4.97979 17.4 5.32979 16.9 5.22979 16.38" fill="black"/>
<path d="M7.81973 28.35C7.67973 28.15 7.47973 27.84 7.25973 27.42C7.27973 27.4 7.29973 27.39 7.31973 27.37C7.76973 26.89 7.74973 26.14 7.27973 25.69C7.03973 25.46 6.72973 25.35 6.42973 25.36C6.30973 24.96 6.19973 24.53 6.11973 24.07C6.20973 24.02 6.28973 23.97 6.35973 23.89C6.71973 23.51 6.70973 22.9 6.32973 22.54C6.20973 22.43 6.07973 22.36 5.92973 22.32C5.90973 21.87 5.92973 21.39 5.95973 20.9C6.01973 20.86 6.07973 20.82 6.13973 20.77C6.42973 20.47 6.41973 19.99 6.10973 19.71C6.17973 19.27 6.27973 18.83 6.40973 18.37C6.54973 18.36 6.68973 18.3 6.78973 18.19C7.01973 17.95 7.00973 17.58 6.76973 17.35C6.52973 17.12 6.15973 17.13 5.92973 17.37C5.71973 17.59 5.71973 17.92 5.90973 18.15C5.77973 18.48 5.62973 18.94 5.49973 19.51C5.32973 19.53 5.16973 19.6 5.03973 19.74C4.74973 20.04 4.75973 20.52 5.06973 20.81C5.12973 20.87 5.19973 20.91 5.26973 20.94C5.22973 21.39 5.20973 21.88 5.22973 22.4C5.13973 22.45 5.04973 22.51 4.96973 22.59C4.60973 22.97 4.61973 23.58 4.99973 23.94C5.11973 24.05 5.25973 24.12 5.40973 24.17C5.48973 24.63 5.59973 25.12 5.74973 25.62C5.68973 25.66 5.63973 25.71 5.58973 25.76C5.13973 26.24 5.15973 26.99 5.62973 27.44C5.88973 27.69 6.23973 27.79 6.56973 27.76C6.72973 28.09 6.89973 28.43 7.09973 28.78C7.09973 28.78 7.07973 28.8 7.06973 28.81C6.51973 29.39 6.53973 30.31 7.11973 30.86C7.69973 31.41 8.61973 31.39 9.16973 30.81C9.71973 30.23 9.69973 29.31 9.11973 28.76C8.75973 28.42 8.26973 28.3 7.80973 28.39" fill="black"/>
<path d="M14.4297 29.24C13.9797 29.02 13.4797 29.06 13.0697 29.29C12.8797 29.14 12.5897 28.9 12.2497 28.57C12.2597 28.55 12.2797 28.53 12.2897 28.5C12.5797 27.91 12.3297 27.2 11.7397 26.91C11.4397 26.77 11.1197 26.76 10.8297 26.86C10.5997 26.52 10.3597 26.14 10.1397 25.72C10.2097 25.65 10.2697 25.57 10.3197 25.47C10.5497 24.99 10.3497 24.42 9.86967 24.19C9.72967 24.12 9.56967 24.09 9.42967 24.1C9.27967 23.67 9.13967 23.22 9.02967 22.73C9.07967 22.68 9.11967 22.62 9.15967 22.55C9.33967 22.18 9.17967 21.73 8.80967 21.54C8.74967 21.1 8.69967 20.65 8.68967 20.17C8.81967 20.12 8.93967 20.02 8.99967 19.88C9.13967 19.58 9.01967 19.23 8.71967 19.09C8.41967 18.95 8.06967 19.07 7.92967 19.37C7.79967 19.64 7.89967 19.97 8.14967 20.13C8.12967 20.48 8.11967 20.96 8.16967 21.54C8.01967 21.61 7.87967 21.73 7.79967 21.89C7.61967 22.26 7.77967 22.72 8.14967 22.9C8.22967 22.94 8.30967 22.96 8.38967 22.97C8.48967 23.41 8.61967 23.88 8.79967 24.38C8.71967 24.45 8.65967 24.54 8.60967 24.64C8.37967 25.12 8.57967 25.69 9.04967 25.92C9.19967 25.99 9.35967 26.02 9.50967 26.01C9.72967 26.43 9.98967 26.85 10.2797 27.28C10.2397 27.34 10.1997 27.39 10.1697 27.46C9.87967 28.05 10.1297 28.76 10.7197 29.05C11.0397 29.21 11.3997 29.2 11.7097 29.06C11.9597 29.33 12.2297 29.6 12.5197 29.87C12.5197 29.88 12.4997 29.89 12.4997 29.91C12.1497 30.63 12.4497 31.5 13.1697 31.85C13.8897 32.2 14.7597 31.9 15.1097 31.18C15.4597 30.46 15.1597 29.59 14.4397 29.24" fill="black"/>
<path d="M22.3995 28.59C21.9095 28.68 21.5195 29 21.3295 29.43C21.0795 29.43 20.7095 29.4 20.2495 29.33C20.2495 29.3 20.2495 29.28 20.2495 29.25C20.1395 28.6 19.5195 28.17 18.8695 28.29C18.5495 28.35 18.2795 28.53 18.0995 28.78C17.7095 28.64 17.2995 28.47 16.8695 28.26C16.8795 28.16 16.8895 28.06 16.8695 27.96C16.7795 27.44 16.2795 27.09 15.7595 27.19C15.5995 27.22 15.4595 27.29 15.3495 27.38C14.9695 27.12 14.5995 26.83 14.2195 26.51C14.2195 26.44 14.2295 26.36 14.2195 26.29C14.1495 25.88 13.7595 25.61 13.3495 25.68C13.0395 25.36 12.7395 25.02 12.4495 24.65C12.5195 24.53 12.5595 24.38 12.5295 24.23C12.4695 23.91 12.1595 23.69 11.8395 23.75C11.5195 23.81 11.2995 24.12 11.3595 24.44C11.4095 24.74 11.6795 24.94 11.9795 24.93C12.1695 25.23 12.4495 25.62 12.8295 26.06C12.7495 26.21 12.7095 26.38 12.7395 26.56C12.8095 26.97 13.2095 27.24 13.6195 27.17C13.6995 27.16 13.7795 27.12 13.8495 27.09C14.1895 27.39 14.5695 27.69 14.9995 27.99C14.9795 28.09 14.9795 28.2 14.9995 28.31C15.0895 28.83 15.5895 29.18 16.1095 29.08C16.2695 29.05 16.4095 28.98 16.5295 28.88C16.9495 29.09 17.4095 29.28 17.8995 29.46C17.8995 29.53 17.8995 29.6 17.9195 29.67C18.0295 30.32 18.6495 30.75 19.2995 30.63C19.6495 30.57 19.9395 30.35 20.1095 30.06C20.4695 30.13 20.8495 30.19 21.2395 30.24C21.2395 30.25 21.2395 30.27 21.2395 30.28C21.3795 31.07 22.1295 31.59 22.9195 31.45C23.7095 31.31 24.2295 30.56 24.0895 29.77C23.9495 28.98 23.1895 28.46 22.4095 28.6" fill="black"/>
<path d="M28.9199 24.12C28.5399 24.45 28.3699 24.92 28.4199 25.38C28.1999 25.5 27.8699 25.66 27.4299 25.84C27.4099 25.82 27.3999 25.79 27.3899 25.77C26.9599 25.27 26.2099 25.21 25.7099 25.64C25.4599 25.85 25.3199 26.15 25.2999 26.45C24.8899 26.53 24.4499 26.59 23.9799 26.63C23.9399 26.54 23.8899 26.45 23.8299 26.37C23.4799 25.97 22.8799 25.92 22.4799 26.26C22.3599 26.36 22.2699 26.49 22.2199 26.63C21.7699 26.6 21.2999 26.54 20.8099 26.45C20.7799 26.38 20.7499 26.32 20.6999 26.26C20.4299 25.94 19.9599 25.91 19.6399 26.18C19.2199 26.06 18.7799 25.92 18.3399 25.74C18.3399 25.6 18.2999 25.46 18.1999 25.34C17.9899 25.09 17.6099 25.06 17.3599 25.28C17.1099 25.49 17.0799 25.87 17.2899 26.12C17.4899 26.35 17.8199 26.38 18.0599 26.22C18.3799 26.38 18.8199 26.58 19.3699 26.77C19.3699 26.94 19.4299 27.11 19.5499 27.25C19.8199 27.57 20.2999 27.6 20.6099 27.33C20.6699 27.27 20.7199 27.21 20.7699 27.14C21.2099 27.23 21.6999 27.3 22.2199 27.33C22.2599 27.43 22.3099 27.52 22.3799 27.61C22.7199 28.01 23.3299 28.06 23.7299 27.72C23.8499 27.61 23.9399 27.48 23.9999 27.34C24.4699 27.31 24.9599 27.24 25.4699 27.15C25.5099 27.21 25.5399 27.27 25.5899 27.32C26.0199 27.82 26.7699 27.88 27.2699 27.45C27.5399 27.22 27.6799 26.88 27.6799 26.55C28.0299 26.43 28.3799 26.29 28.7499 26.13C28.7499 26.14 28.7699 26.15 28.7699 26.17C29.2899 26.78 30.2099 26.85 30.8099 26.33C31.4199 25.81 31.4899 24.89 30.9699 24.29C30.4499 23.68 29.5299 23.61 28.9299 24.13" fill="black"/>
<path d="M33.1001 18.68C32.4401 18.23 31.5401 18.41 31.0901 19.07C30.8101 19.48 30.7701 19.99 30.9501 20.42C30.7701 20.59 30.5001 20.84 30.1201 21.13C30.1001 21.11 30.0801 21.09 30.0601 21.08C29.5201 20.71 28.7801 20.86 28.4101 21.4C28.2201 21.67 28.1701 22 28.2301 22.29C27.8601 22.47 27.4501 22.65 27.0101 22.81C26.9501 22.73 26.8801 22.66 26.7901 22.6C26.3501 22.3 25.7601 22.42 25.4601 22.86C25.3701 22.99 25.3201 23.14 25.3101 23.29C24.8601 23.38 24.3901 23.45 23.9001 23.49C23.8501 23.43 23.8001 23.38 23.7401 23.34C23.4001 23.11 22.9301 23.2 22.6901 23.54C22.2501 23.54 21.7901 23.52 21.3201 23.47C21.2901 23.33 21.2001 23.21 21.0801 23.12C20.8101 22.94 20.4401 23.01 20.2501 23.28C20.0701 23.55 20.1401 23.92 20.4101 24.11C20.6601 24.28 21.0001 24.23 21.1901 24C21.5401 24.07 22.0101 24.14 22.5901 24.18C22.6401 24.34 22.7401 24.49 22.8901 24.59C23.2301 24.82 23.7001 24.73 23.9401 24.39C23.9901 24.32 24.0201 24.25 24.0401 24.17C24.4901 24.14 24.9801 24.07 25.4901 23.97C25.5501 24.06 25.6301 24.13 25.7201 24.2C26.1601 24.5 26.7501 24.38 27.0501 23.94C27.1401 23.8 27.1901 23.65 27.2101 23.5C27.6501 23.34 28.1101 23.15 28.5801 22.92C28.6301 22.97 28.6801 23.01 28.7401 23.05C29.2801 23.42 30.0201 23.27 30.3901 22.73C30.5901 22.43 30.6301 22.07 30.5501 21.75C30.8501 21.54 31.1601 21.31 31.4701 21.06C31.4801 21.06 31.4901 21.08 31.5001 21.09C32.1601 21.54 33.0701 21.36 33.5101 20.7C33.9601 20.04 33.7901 19.13 33.1201 18.69" fill="black"/>
<path d="M31.42 14.14C30.76 14.14 30.23 14.66 30.22 15.32C30.22 15.65 30.35 15.95 30.56 16.17C30.35 16.53 30.11 16.9 29.83 17.28C29.74 17.25 29.64 17.23 29.53 17.23C29 17.23 28.57 17.65 28.56 18.18C28.56 18.34 28.6 18.49 28.67 18.62C28.35 18.94 28 19.26 27.61 19.57C27.54 19.55 27.47 19.53 27.39 19.53C26.97 19.53 26.63 19.86 26.63 20.28C26.26 20.52 25.87 20.76 25.45 20.98C25.34 20.88 25.21 20.82 25.06 20.82C24.73 20.82 24.46 21.08 24.46 21.41C24.46 21.74 24.72 22.01 25.05 22.01C25.36 22.01 25.61 21.79 25.64 21.49C25.97 21.36 26.4 21.16 26.9 20.87C27.03 20.98 27.19 21.05 27.38 21.05C27.8 21.05 28.14 20.72 28.14 20.3C28.14 20.22 28.12 20.14 28.1 20.06C28.46 19.78 28.83 19.46 29.2 19.09C29.3 19.13 29.41 19.15 29.52 19.15C30.05 19.15 30.48 18.73 30.49 18.2C30.49 18.04 30.45 17.88 30.38 17.75C30.66 17.37 30.94 16.96 31.2 16.51C31.27 16.52 31.34 16.53 31.41 16.53C32.07 16.53 32.6 16.01 32.61 15.35C32.61 14.99 32.45 14.67 32.2 14.45C32.34 14.11 32.46 13.75 32.58 13.37C32.59 13.37 32.61 13.37 32.62 13.37C33.42 13.37 34.08 12.73 34.08 11.93C34.08 11.13 33.44 10.47 32.64 10.47C31.84 10.47 31.18 11.11 31.18 11.91C31.18 12.41 31.42 12.85 31.8 13.12C31.75 13.36 31.66 13.72 31.5 14.17C31.47 14.17 31.45 14.17 31.42 14.17" fill="black"/>
<path d="M27.3 15.39C27.09 15.8 26.85 16.21 26.58 16.62C26.51 16.62 26.43 16.62 26.36 16.65C25.96 16.77 25.74 17.2 25.87 17.59C25.59 17.93 25.29 18.28 24.96 18.61C24.83 18.55 24.68 18.54 24.53 18.58C24.22 18.68 24.04 19.01 24.14 19.33C24.24 19.64 24.57 19.82 24.89 19.72C25.18 19.63 25.35 19.34 25.29 19.04C25.56 18.81 25.91 18.49 26.3 18.06C26.46 18.12 26.63 18.14 26.81 18.09C27.21 17.97 27.43 17.54 27.3 17.14C27.27 17.06 27.23 16.99 27.19 16.92C27.45 16.55 27.7 16.13 27.94 15.66C28.04 15.66 28.15 15.66 28.26 15.62C28.77 15.46 29.05 14.93 28.89 14.42C28.84 14.26 28.75 14.13 28.64 14.02C28.79 13.57 28.93 13.1 29.04 12.59C29.11 12.59 29.18 12.57 29.25 12.55C29.88 12.35 30.23 11.69 30.03 11.06C29.92 10.72 29.67 10.46 29.36 10.33C29.38 9.96002 29.4 9.58002 29.39 9.18002C29.4 9.18002 29.42 9.18002 29.43 9.18002C30.19 8.94002 30.62 8.13002 30.38 7.36002C30.14 6.60002 29.33 6.17002 28.56 6.41002C27.8 6.65002 27.37 7.46002 27.61 8.23002C27.76 8.71002 28.13 9.05002 28.58 9.18002C28.6 9.43002 28.62 9.80002 28.61 10.27C28.58 10.27 28.56 10.27 28.53 10.29C27.9 10.48 27.56 11.15 27.75 11.78C27.85 12.09 28.07 12.34 28.34 12.48C28.25 12.89 28.13 13.31 27.98 13.76C27.88 13.76 27.78 13.76 27.68 13.8C27.18 13.96 26.9 14.5 27.05 15C27.1 15.15 27.18 15.28 27.29 15.39" fill="black"/>
<path d="M21.5197 3.57001C21.9097 3.88001 22.4197 3.95001 22.8597 3.81001C23.0197 4.00001 23.2497 4.29001 23.5097 4.69001C23.4897 4.71001 23.4697 4.73001 23.4497 4.75001C23.0497 5.27001 23.1397 6.01001 23.6597 6.42001C23.9197 6.62001 24.2397 6.70001 24.5397 6.66001C24.6997 7.05001 24.8497 7.46001 24.9697 7.92001C24.8897 7.97001 24.8097 8.04001 24.7497 8.12001C24.4197 8.54001 24.4997 9.14001 24.9097 9.46001C25.0397 9.56001 25.1797 9.62001 25.3297 9.64001C25.3897 10.09 25.4297 10.56 25.4397 11.06C25.3797 11.1 25.3197 11.15 25.2797 11.21C25.0197 11.54 25.0797 12.01 25.4097 12.27C25.3797 12.71 25.3197 13.16 25.2397 13.63C25.0997 13.66 24.9697 13.72 24.8697 13.84C24.6697 14.1 24.7097 14.47 24.9697 14.68C25.2297 14.88 25.5997 14.84 25.7997 14.58C25.9897 14.34 25.9597 14 25.7497 13.79C25.8497 13.45 25.9497 12.98 26.0197 12.41C26.1897 12.37 26.3397 12.29 26.4497 12.14C26.7097 11.81 26.6497 11.34 26.3197 11.08C26.2497 11.03 26.1797 10.99 26.0997 10.97C26.0997 10.52 26.0697 10.03 25.9997 9.51001C26.0897 9.45001 26.1697 9.39001 26.2397 9.30001C26.5697 8.88001 26.4897 8.28001 26.0797 7.96001C25.9497 7.86001 25.7997 7.80001 25.6497 7.78001C25.5197 7.33001 25.3597 6.86001 25.1697 6.37001C25.2197 6.32001 25.2697 6.27001 25.3197 6.22001C25.7197 5.70001 25.6297 4.96001 25.1197 4.55001C24.8397 4.33001 24.4797 4.26001 24.1497 4.33001C23.9597 4.01001 23.7497 3.69001 23.5297 3.37001C23.5297 3.36001 23.5497 3.35001 23.5597 3.34001C24.0497 2.71001 23.9397 1.80001 23.3097 1.30001C22.6797 0.810009 21.7697 0.920009 21.2697 1.55001C20.7797 2.18001 20.8897 3.09001 21.5197 3.59001" fill="black"/>
<path d="M45.0995 9.61005L42.6695 22.41H39.9395L42.3695 9.61005H45.0995Z" fill="black"/>
<path d="M47.5692 9.86002C48.3892 9.65002 49.6792 9.52002 50.9092 9.52002C52.0492 9.52002 53.3792 9.71002 54.3092 10.37C55.1592 10.96 55.6992 11.85 55.6992 13.08C55.6992 14.69 54.9592 15.91 53.9492 16.69C52.9092 17.51 51.4292 17.87 49.8692 17.87C49.4092 17.87 49.0392 17.83 48.7492 17.79L47.8792 22.4H45.1992L47.5692 9.85002V9.86002ZM49.1592 15.57C49.4392 15.63 49.7492 15.66 50.1992 15.66C51.8492 15.66 52.9292 14.6 52.9292 13.33C52.9292 12.06 52.0392 11.7 50.9692 11.7C50.4592 11.7 50.0992 11.74 49.8692 11.79L49.1492 15.57H49.1592Z" fill="black"/>
<path d="M61.0098 9.61005L58.5798 22.41H55.8398L58.2698 9.61005H61.0098Z" fill="black"/>
<path d="M70.7099 22.05C70.0299 22.35 68.8699 22.6 67.3299 22.6C63.9499 22.6 61.6699 20.55 61.6699 17.17C61.6699 14.3 62.9599 12.06 64.8999 10.77C66.2299 9.84003 67.7999 9.40002 69.6099 9.40002C70.9999 9.40002 72.0399 9.72002 72.3999 9.95002L71.6599 12.17C71.2799 11.98 70.4499 11.75 69.3399 11.75C68.2299 11.75 67.1999 12.09 66.4199 12.74C65.3399 13.61 64.6499 15.07 64.6499 16.86C64.6499 18.89 65.7899 20.26 68.0499 20.26C68.9399 20.26 69.8299 20.11 70.4799 19.84L70.7099 22.04V22.05Z" fill="black"/>
<path d="M74.7295 22.41L75.7195 17.19L73.2295 9.62H76.1495L76.9695 12.87C77.1995 13.93 77.3295 14.54 77.4595 15.19H77.4995C77.8795 14.51 78.2595 13.79 78.8095 12.86L80.7295 9.63H83.9995L78.4795 17.15L77.4695 22.43H74.7395L74.7295 22.41Z" fill="black"/>
<path d="M87.3497 12H83.9697L84.4497 9.61005H93.9597L93.4997 12H90.0797L88.1297 22.41H85.3997L87.3497 12Z" fill="black"/>
</g>
<defs>
<clipPath id="clip0_2059_637">
<rect width="319.68" height="32" fill="white"/>
</clipPath>
</defs>
</svg>
