<svg width="54" height="45" viewBox="0 0 54 45" fill="none" xmlns="http://www.w3.org/2000/svg">
<g clip-path="url(#clip0_2043_530)">
<path d="M53.9801 19.26L53.0001 8.63001C52.5501 3.74001 48.4501 0.0100098 43.5401 0.0100098H26.2301C21.2101 0.0100098 17.0101 3.83001 16.5501 8.83001L15.5801 19.26C15.5601 19.43 15.5601 19.6 15.5601 19.77V32.93C15.5601 35.99 18.0401 38.48 21.1101 38.48H48.4601C51.5201 38.48 54.0101 36 54.0101 32.93V19.77C54.0101 19.6 54.0101 19.43 53.9901 19.26H53.9801ZM22.0701 8.77001C22.1901 7.43001 23.3101 6.40001 24.6501 6.40001H44.9101C46.2501 6.40001 47.3801 7.43001 47.4901 8.77001L48.2301 17.28H21.3201L22.0601 8.77001H22.0701ZM22.4001 31.86C21.0101 31.86 19.8801 30.73 19.8801 29.34C19.8801 27.95 21.0101 26.82 22.4001 26.82C23.7901 26.82 24.9201 27.95 24.9201 29.34C24.9201 30.73 23.7901 31.86 22.4001 31.86ZM47.7801 32.25C46.3901 32.25 45.2601 31.12 45.2601 29.73C45.2601 28.34 46.3901 27.21 47.7801 27.21C49.1701 27.21 50.3001 28.34 50.3001 29.73C50.3001 31.12 49.1701 32.25 47.7801 32.25Z" fill="#2453F7"/>
<path d="M19.8701 43.45C19.8701 44.09 20.3901 44.61 21.0301 44.61H23.8301C24.4701 44.61 24.9901 44.09 24.9901 43.45V39.49H19.8801V43.45H19.8701Z" fill="#2453F7"/>
<path d="M45.22 43.45C45.22 44.09 45.74 44.61 46.38 44.61H49.18C49.82 44.61 50.34 44.09 50.34 43.45V39.49H45.23V43.45H45.22Z" fill="#2453F7"/>
<path d="M5.32 14.2V41.92H6.51L9.2 44.61H0L2.7 41.92H3.88V14.2H2.7L0 11.51V7.70001L2.7 5.01001H6.51L9.2 7.70001V11.51L6.51 14.2H5.32Z" fill="#2453F7"/>
</g>
<defs>
<clipPath id="clip0_2043_530">
<rect width="54" height="44.61" fill="white"/>
</clipPath>
</defs>
</svg>
