<svg width="81" height="74" viewBox="0 0 81 74" fill="none" xmlns="http://www.w3.org/2000/svg">
<g clip-path="url(#clip0_2010_583)">
<path d="M73.4837 21.4274H60.2103V16.5926C60.2103 13.1713 57.4436 10.3924 54.0373 10.3924H47.4486V6.97113C47.4486 5.10788 46.7289 3.341 45.4176 2.03994C44.1062 0.722813 42.3631 0 40.508 0C36.6699 0 33.5514 3.11613 33.5514 6.97113V10.3924H26.9627C23.5564 10.3924 20.7897 13.1713 20.7897 16.5926V21.4274H7.53228C3.37433 21.4274 0 24.8166 0 28.9768V66.4506C0 70.6108 3.37433 74 7.53228 74H73.4837C77.6257 74 81 70.6108 81 66.4506V28.9768C81 24.8166 77.6257 21.4274 73.4837 21.4274ZM35.2946 6.97113C35.2946 4.07988 37.6294 1.73475 40.508 1.73475C41.8993 1.73475 43.2107 2.28088 44.1862 3.27675C45.1777 4.25657 45.7054 5.57369 45.7054 6.97113V20.801H35.2946V6.97113ZM47.4486 22.5518V17.2672C47.4486 17.2672 47.4806 17.2833 47.4965 17.2833C47.6565 17.3315 47.8164 17.3957 47.9603 17.46C47.9923 17.476 48.0083 17.4921 48.0403 17.5081C48.1842 17.5724 48.3281 17.6527 48.4561 17.7491C48.4721 17.7491 48.4721 17.7651 48.4881 17.7651C48.632 17.8615 48.7599 17.974 48.8719 18.0864C48.9039 18.0864 48.9198 18.1346 48.9518 18.1506C49.0638 18.2631 49.1757 18.3916 49.2717 18.5201C49.2717 18.5361 49.3037 18.5683 49.3196 18.5843C49.4316 18.7128 49.5116 18.8574 49.5915 19.002C49.5915 19.018 49.6075 19.018 49.6075 19.0341C49.6875 19.1786 49.7514 19.3393 49.8154 19.4999C49.8154 19.532 49.8314 19.5641 49.8474 19.5963C49.8954 19.7569 49.9273 19.9175 49.9593 20.0781C49.9753 20.1103 49.9753 20.1424 49.9753 20.1745C50.0073 20.3512 50.0233 20.544 50.0233 20.7206C50.0233 21.1704 49.9433 21.588 49.7834 22.0056C49.6235 22.4715 49.3356 22.9051 48.9678 23.2746C48.2962 23.9492 47.4006 24.3186 46.4411 24.3186H34.5589C33.0717 24.3186 31.7283 23.387 31.2166 21.9896C31.0567 21.588 30.9767 21.1704 30.9767 20.7206C30.9767 19.7569 31.3605 18.8574 32.0322 18.1828C32.1761 18.0382 32.336 17.9097 32.496 17.7973C32.5279 17.7651 32.5759 17.733 32.6079 17.717C32.7838 17.6045 32.9597 17.5081 33.1356 17.4278C33.2636 17.3636 33.4075 17.3315 33.5514 17.2833V22.5518H47.4486ZM79.2569 66.4506C79.2569 69.6631 76.6661 72.2653 73.4837 72.2653H7.53228C4.33386 72.2653 1.74314 69.6631 1.74314 66.4506V28.9768C1.74314 25.7803 4.33386 23.1782 7.53228 23.1782H22.5169V16.5926C22.5169 14.135 24.5159 12.1272 26.9627 12.1272H33.5514V15.4843C33.5514 15.4843 33.5194 15.4843 33.5035 15.5003C33.2796 15.5485 33.0557 15.5967 32.8318 15.677C32.7998 15.677 32.7518 15.7091 32.7038 15.7252C32.5119 15.7895 32.32 15.8698 32.1441 15.9661C32.1121 15.9822 32.0802 15.9983 32.0482 16.0143C31.8403 16.1268 31.6484 16.2553 31.4565 16.3838C31.4245 16.4159 31.3765 16.448 31.3445 16.4801C31.1526 16.6247 30.9767 16.7853 30.8008 16.946C29.7933 17.9579 29.2496 19.2911 29.2496 20.7206C29.2496 21.3953 29.3615 22.0217 29.5854 22.6C30.369 24.672 32.352 26.0695 34.5589 26.0695H46.4411C46.617 26.0695 46.7929 26.0534 46.9688 26.0373C48.1842 25.9249 49.3196 25.3788 50.1992 24.4953C50.7429 23.9492 51.1587 23.2906 51.4146 22.616C51.6385 22.0217 51.7504 21.3953 51.7504 20.7206C51.7504 20.56 51.7504 20.3833 51.7345 20.2066C51.7345 20.1585 51.7185 20.0942 51.7185 20.046C51.7025 19.9336 51.6865 19.8211 51.6545 19.7087C51.6545 19.6445 51.6385 19.5802 51.6225 19.516C51.5905 19.4196 51.5745 19.3232 51.5425 19.2268C51.5266 19.1626 51.5106 19.0983 51.4786 19.0341C51.4786 18.9377 51.4306 18.8574 51.3826 18.761C51.3826 18.6968 51.3346 18.6325 51.3187 18.5683C51.2707 18.488 51.2387 18.4076 51.1907 18.3113C51.1587 18.2631 51.1268 18.1988 51.0948 18.1346C51.0468 18.0543 50.9988 17.974 50.9508 17.8936C50.9189 17.8294 50.8869 17.7812 50.8549 17.717C50.7909 17.6366 50.7429 17.5724 50.679 17.4921C50.647 17.4439 50.599 17.3796 50.567 17.3315C50.5031 17.2511 50.4231 17.1708 50.3591 17.0905C50.3112 17.0584 50.2792 17.0263 50.2472 16.9781C50.1352 16.8656 50.0233 16.7693 49.9114 16.6729C49.9114 16.6729 49.906 16.6675 49.8954 16.6568C49.7834 16.5444 49.6555 16.448 49.5275 16.3677C49.4796 16.3356 49.4316 16.3035 49.3996 16.2713C49.3036 16.2231 49.2077 16.1589 49.1117 16.0946C49.0638 16.0946 49.0158 16.0465 48.9518 16.0143C48.8719 15.9661 48.7759 15.918 48.696 15.8858C48.632 15.8537 48.568 15.8216 48.504 15.8055C48.4241 15.7573 48.3281 15.7252 48.2482 15.6931C48.1682 15.6931 48.1042 15.6449 48.0403 15.6288C47.9443 15.5967 47.8644 15.5806 47.7684 15.5485C47.7044 15.5325 47.6245 15.5164 47.5605 15.5003C47.5285 15.5003 47.4806 15.4843 47.4486 15.4843V12.1272H54.0373C56.4841 12.1272 58.4671 14.135 58.4671 16.5926V23.1782H73.4837C76.6661 23.1782 79.2569 25.7803 79.2569 28.9768V66.4506Z" fill="black"/>
<path d="M44.1863 3.27674C43.2108 2.28087 41.8994 1.73474 40.5081 1.73474C37.6295 1.73474 35.2947 4.07987 35.2947 6.97112V20.8009H45.7055V6.97112C45.7055 5.57368 45.1778 4.25656 44.1863 3.27674ZM40.5081 10.2318C38.5731 10.2318 36.9898 8.65768 36.9898 6.71412C36.9898 4.77056 38.5731 3.19643 40.5081 3.19643C42.4431 3.19643 44.0104 4.77056 44.0104 6.71412C44.0104 8.65768 42.4272 10.2318 40.5081 10.2318Z" fill="white"/>
<path d="M73.4837 23.1782H58.4672V16.5926C58.4672 14.135 56.4841 12.1272 54.0373 12.1272H47.4486V15.4843C47.4486 15.4843 47.5285 15.5003 47.5605 15.5003C47.6245 15.5164 47.7045 15.5325 47.7684 15.5485C47.8644 15.5806 47.9443 15.5967 48.0403 15.6288C48.1043 15.6449 48.1682 15.677 48.2482 15.6931C48.3282 15.7252 48.4241 15.7573 48.5041 15.8055C48.568 15.8216 48.632 15.8537 48.696 15.8858C48.7759 15.918 48.8719 15.9661 48.9518 16.0143C49.0158 16.0465 49.0638 16.0786 49.1118 16.0946C49.2077 16.1589 49.3037 16.2231 49.3996 16.2713C49.4316 16.3035 49.4796 16.3356 49.5276 16.3677C49.6555 16.448 49.7834 16.5444 49.8954 16.6568C49.8954 16.6568 49.9007 16.6622 49.9114 16.6729C50.0233 16.7693 50.1353 16.8656 50.2472 16.9781C50.2792 17.0263 50.3112 17.0584 50.3591 17.0905C50.4231 17.1708 50.5031 17.2511 50.5671 17.3315C50.599 17.3796 50.647 17.4439 50.679 17.4921C50.743 17.5724 50.7909 17.6366 50.8549 17.717C50.8869 17.7812 50.9189 17.8294 50.9509 17.8936C50.9988 17.974 51.0468 18.0543 51.0948 18.1346C51.1268 18.1988 51.1588 18.2631 51.1907 18.3113C51.2387 18.4076 51.2707 18.488 51.3187 18.5683C51.3347 18.6325 51.3667 18.6968 51.3826 18.761C51.4306 18.8574 51.4626 18.9377 51.4786 19.0341C51.5106 19.0983 51.5266 19.1626 51.5426 19.2268C51.5746 19.3232 51.5905 19.4196 51.6225 19.516C51.6385 19.5802 51.6545 19.6445 51.6545 19.7087C51.6865 19.8211 51.7025 19.9336 51.7185 20.046C51.7185 20.0942 51.7345 20.1585 51.7345 20.2066C51.7505 20.3833 51.7505 20.56 51.7505 20.7206C51.7505 21.3953 51.6385 22.0217 51.4146 22.616C51.1588 23.2906 50.743 23.9492 50.1992 24.4953C49.3197 25.3788 48.1842 25.9249 46.9688 26.0373C46.7929 26.0534 46.617 26.0695 46.4411 26.0695H34.559C32.352 26.0695 30.369 24.672 29.5854 22.6C29.3615 22.0217 29.2496 21.3953 29.2496 20.7206C29.2496 19.2911 29.7933 17.9579 30.8008 16.946C30.9767 16.7853 31.1526 16.6247 31.3445 16.4801C31.3765 16.448 31.4245 16.4159 31.4565 16.3838C31.6484 16.2553 31.8403 16.1268 32.0482 16.0143C32.0802 15.9983 32.1122 15.9822 32.1441 15.9661C32.3201 15.8698 32.512 15.7894 32.7039 15.7252C32.7519 15.7091 32.7998 15.6931 32.8318 15.677C33.0557 15.5967 33.2796 15.5485 33.5035 15.5003C33.5195 15.4843 33.5355 15.4843 33.5515 15.4843V12.1272H26.9627C24.5159 12.1272 22.5169 14.135 22.5169 16.5926V23.1782H7.5323C4.33388 23.1782 1.74316 25.7803 1.74316 28.9768V66.4506C1.74316 69.6631 4.33388 72.2653 7.5323 72.2653H73.4837C76.6662 72.2653 79.2569 69.6631 79.2569 66.4506V28.9768C79.2569 25.7803 76.6662 23.1782 73.4837 23.1782ZM36.7819 33.153H45.0178V34.679H36.398C36.398 34.1328 36.2701 33.5064 36.7819 33.153ZM41.9473 42.9351H43.0028L43.2427 44.3647H41.7234L41.9473 42.9351ZM35.3746 37.2329C38.8928 36.7028 38.8928 39.2889 35.3746 38.7588V37.2329ZM34.8788 45.8906V51.7374C34.3351 51.7534 33.7114 51.8659 33.3595 51.3519V45.8906H34.8788ZM23.7163 33.153H33.6154V43.8507H23.7163V33.153ZM23.7163 47.9145H28.0342V49.1995H23.7163V47.9145ZM29.2976 57.8572V61.407H28.0342V57.8572H29.2976ZM25.6354 56.5882L24.2281 56.8292V52.5084L25.5074 52.6208C25.9712 52.926 25.7473 55.8815 25.6354 56.5882ZM23.7163 59.3831H25.2516V61.664H23.7163V59.3831ZM29.5534 65.7439H23.7163V64.4749H29.5534V65.7439ZM30.321 53.2633H28.5299V51.9944H30.321V53.2633ZM31.8403 48.6855H30.5609V46.1315H31.8403V48.6855ZM37.4055 65.7439H33.6154V64.4749H37.4055V65.7439ZM37.4055 60.3951H32.3361V59.1261H37.4055V60.3951ZM38.6849 56.5722H34.1112V55.0462H38.6849V56.5722ZM39.4365 52.2514H37.9173C38.1572 50.6933 37.0217 47.9627 39.4365 48.4285V52.2514ZM40.2042 45.1196H38.6689V42.3247H40.2042V45.1196ZM40.444 59.8811H43.7544V61.1661H40.444V59.8811ZM42.7309 56.0742V50.2114H43.9943V56.0742H42.7309ZM44.7619 65.7439H42.475V64.4589H44.7619V65.7439ZM44.7619 47.4165C43.2587 47.3202 41.6275 48.0269 41.9633 45.8906H44.7619V47.4165ZM45.2737 40.0278H41.9633V38.5018H45.2737V40.0278ZM46.7929 50.2114H49.8314V51.4804H46.7929V50.2114ZM56.9319 65.7439H47.2887V55.0462H56.9319V65.7439ZM55.6525 47.6735H50.3432V46.1476H55.6525V47.6735ZM56.4202 51.2234C56.4202 51.7855 56.5481 52.412 56.0364 52.7654H51.8624V51.2234H56.4202ZM56.9319 43.8507H47.2887V33.153H56.9319V43.8507Z" fill="white"/>
<path d="M40.508 3.19641C38.573 3.19641 36.9897 4.77054 36.9897 6.7141C36.9897 8.65767 38.573 10.2318 40.508 10.2318C42.4431 10.2318 44.0103 8.65767 44.0103 6.7141C44.0103 4.77054 42.4271 3.19641 40.508 3.19641ZM40.508 8.48098C39.5325 8.48098 38.7329 7.69391 38.7329 6.7141C38.7329 5.73429 39.5325 4.93116 40.508 4.93116C41.4835 4.93116 42.2671 5.73429 42.2671 6.7141C42.2671 7.69391 41.4835 8.48098 40.508 8.48098Z" fill="black"/>
<path d="M23.7163 33.153V43.8506H33.6154V33.153H23.7163ZM32.0802 42.3247H25.2516V34.679H32.0802V42.3247Z" fill="black"/>
<path d="M25.2515 34.679V42.3247H32.0801V34.679H25.2515ZM30.8167 40.7988H26.5148V36.2049H30.8167V40.7988Z" fill="white"/>
<path d="M47.2886 33.153V43.8506H56.9318V33.153H47.2886ZM55.6524 42.3247H48.5679V34.679H55.6524V42.3247Z" fill="black"/>
<path d="M48.5681 34.679V42.3247H55.6526V34.679H48.5681ZM54.3892 40.7988H49.8315V36.2049H54.3892V40.7988Z" fill="white"/>
<path d="M47.2886 55.0463V65.7439H56.9318V55.0463H47.2886ZM55.6524 64.218H48.5679V56.5722H55.6524V64.218Z" fill="black"/>
<path d="M48.5681 56.5721V64.2179H55.6526V56.5721H48.5681ZM54.3892 62.692H49.8315V58.0981H54.3892V62.692Z" fill="white"/>
<path d="M45.0177 33.153V34.679H36.398C36.398 34.1328 36.2701 33.5064 36.7818 33.153H45.0177Z" fill="black"/>
<path d="M34.8789 45.8906V51.7374C34.3351 51.7534 33.7114 51.8659 33.3596 51.3519V45.8906H34.8789Z" fill="black"/>
<path d="M55.6524 46.1476H50.343V47.6735H55.6524V46.1476Z" fill="black"/>
<path d="M29.5534 64.4749H23.7163V65.7439H29.5534V64.4749Z" fill="black"/>
<path d="M43.9943 50.2114H42.731V56.0742H43.9943V50.2114Z" fill="black"/>
<path d="M38.6848 55.0463H34.1111V56.5722H38.6848V55.0463Z" fill="black"/>
<path d="M56.0362 52.7654H51.8623V51.2234H56.4201C56.4201 51.7856 56.548 52.412 56.0362 52.7654Z" fill="black"/>
<path d="M37.4054 59.1261H32.3359V60.395H37.4054V59.1261Z" fill="black"/>
<path d="M25.6353 56.5882L24.228 56.8292V52.5084L25.5074 52.6208C25.9712 52.926 25.7473 55.8815 25.6353 56.5882Z" fill="black"/>
<path d="M39.4366 48.4285V52.2514H37.9173C38.1572 50.6933 37.0218 47.9627 39.4366 48.4285Z" fill="black"/>
<path d="M28.0342 47.9145H23.7163V49.1995H28.0342V47.9145Z" fill="black"/>
<path d="M45.2737 38.5018H41.9634V40.0278H45.2737V38.5018Z" fill="black"/>
<path d="M37.4056 64.4749H33.6155V65.7439H37.4056V64.4749Z" fill="black"/>
<path d="M29.2976 57.8572H28.0342V61.407H29.2976V57.8572Z" fill="black"/>
<path d="M40.2042 42.3247H38.6689V45.1196H40.2042V42.3247Z" fill="black"/>
<path d="M44.762 45.8906V47.4166C43.2587 47.3202 41.6275 48.0269 41.9633 45.8906H44.762Z" fill="black"/>
<path d="M43.7545 59.881H40.4441V61.166H43.7545V59.881Z" fill="black"/>
<path d="M49.8315 50.2114H46.793V51.4804H49.8315V50.2114Z" fill="black"/>
<path d="M35.3745 38.7589V37.2329C38.8928 36.7029 38.8928 39.2889 35.3745 38.7589Z" fill="black"/>
<path d="M25.2516 59.3831H23.7163V61.664H25.2516V59.3831Z" fill="black"/>
<path d="M31.8402 46.1315H30.5608V48.6855H31.8402V46.1315Z" fill="black"/>
<path d="M44.762 64.4589H42.4751V65.7439H44.762V64.4589Z" fill="black"/>
<path d="M30.3211 51.9944H28.53V53.2633H30.3211V51.9944Z" fill="black"/>
<path d="M43.2426 44.3647H41.7234L41.9473 42.9351H43.0028L43.2426 44.3647Z" fill="black"/>
<path d="M26.5149 36.2049V40.7988H30.8168V36.2049H26.5149ZM29.5534 39.5298H27.5224V37.4899H29.5534V39.5298Z" fill="black"/>
<path d="M29.5535 37.4899H27.5225V39.5299H29.5535V37.4899Z" fill="white"/>
<path d="M49.8313 36.2049V40.7988H54.389V36.2049H49.8313ZM53.1257 39.5298H51.0947V37.4899H53.1257V39.5298Z" fill="black"/>
<path d="M53.1257 37.4899H51.0947V39.5299H53.1257V37.4899Z" fill="white"/>
<path d="M49.8313 58.0981V62.692H54.389V58.0981H49.8313ZM53.1257 61.407H51.0947V59.3831H53.1257V61.407Z" fill="black"/>
<path d="M53.1257 59.3831H51.0947V61.407H53.1257V59.3831Z" fill="white"/>
</g>
<defs>
<clipPath id="clip0_2010_583">
<rect width="81" height="74" fill="white"/>
</clipPath>
</defs>
</svg>
