<svg width="26" height="23" viewBox="0 0 26 23" fill="none" xmlns="http://www.w3.org/2000/svg">
<g clip-path="url(#clip0_2043_607)">
<path d="M23.9668 6.57141C25.09 6.57141 26 7.49141 26 8.62696C26 9.7625 25.09 10.6825 23.9668 10.6825H16.4424C16.8272 11.1188 17.0612 11.6919 17.0612 12.328C17.0612 13.3847 16.4008 14.2889 15.4752 14.6359C15.9484 15.088 16.2448 15.7241 16.2448 16.4338C16.2448 17.7323 15.2568 18.7943 13.9932 18.8942C14.3832 19.3305 14.6172 19.9088 14.6172 20.5396C14.6172 21.9012 13.5252 23.0052 12.1784 23.0052H9.7396H8.9284H6.4896C2.912 23 0 20.0612 0 16.4286V15.6084V12.3227V12.0494C0 11.7918 0.0156 11.5394 0.052 11.2923C0.338 8.45347 1.7784 5.84067 4.0612 4.10581L8.9388 0.410041C9.8384 -0.273388 11.1072 -0.0893877 11.7832 0.820098C12.4592 1.72958 12.2772 3.01233 11.3776 3.69576L7.5868 6.57141H23.972H23.9668ZM10.5612 12.3227C11.0084 12.3227 11.3724 11.9547 11.3724 11.5026C11.3724 11.0505 11.0084 10.6825 10.5612 10.6825H5.6836C5.2364 10.6825 4.8724 11.0505 4.8724 11.5026C4.8724 11.9547 5.2364 12.3227 5.6836 12.3227H10.5612ZM11.3776 14.7883C11.3776 14.3362 11.0136 13.9682 10.5664 13.9682H5.6888C5.2416 13.9682 4.8776 14.3362 4.8776 14.7883C4.8776 15.2404 5.2416 15.6084 5.6888 15.6084H10.5664C11.0136 15.6084 11.3776 15.2404 11.3776 14.7883ZM10.5612 18.8942C11.0084 18.8942 11.3724 18.5262 11.3724 18.074C11.3724 17.6219 11.0084 17.2539 10.5612 17.2539H5.6836C5.2364 17.2539 4.8724 17.6219 4.8724 18.074C4.8724 18.5262 5.2364 18.8942 5.6836 18.8942H10.5612Z" fill="#1346D6"/>
</g>
<defs>
<clipPath id="clip0_2043_607">
<rect width="26" height="23" fill="white"/>
</clipPath>
</defs>
</svg>
