<?xml version="1.0" encoding="UTF-8"?>
<svg id="Capa_2" data-name="Capa 2" xmlns="http://www.w3.org/2000/svg" viewBox="0 0 126.09 36">
  <defs>
    <style>
      .cls-1 {
        fill: #fff;
      }
    </style>
  </defs>
  <g id="Capa_1-2" data-name="Capa 1">
    <g>
      <g>
        <path class="cls-1" d="M15.07,3.26c.56,0,1.06-.28,1.35-.72.27.06.68.16,1.18.33,0,.03,0,.06,0,.09,0,.74.6,1.34,1.34,1.34.37,0,.71-.15.95-.4.41.23.83.5,1.26.81-.04.11-.06.22-.06.34,0,.59.48,1.08,1.08,1.08.18,0,.35-.05.5-.13.37.36.73.75,1.08,1.19-.02.08-.04.16-.04.25,0,.47.38.85.85.85.27.41.54.85.79,1.32-.11.12-.17.27-.17.45,0,.37.3.67.67.67s.67-.3.67-.67c0-.34-.26-.62-.59-.66-.15-.37-.38-.86-.72-1.42.12-.15.2-.33.2-.54,0-.47-.38-.85-.85-.85-.09,0-.19.02-.27.05-.32-.4-.68-.81-1.1-1.23.04-.11.06-.23.06-.36,0-.59-.48-1.08-1.08-1.08-.18,0-.36.05-.51.13-.43-.32-.89-.62-1.4-.91.01-.08.02-.15.02-.24,0-.74-.6-1.34-1.34-1.34-.41,0-.77.18-1.01.47-.39-.15-.79-.29-1.22-.42,0-.02,0-.03,0-.05,0-.9-.73-1.63-1.63-1.63s-1.63.73-1.63,1.63.73,1.63,1.63,1.63"/>
        <path class="cls-1" d="M9.87,6.15c.53-.17.92-.59,1.07-1.09.28-.03.69-.05,1.22-.04,0,.03,0,.06.02.09.22.7.97,1.1,1.67.88.36-.11.63-.36.79-.66.46.1.94.23,1.44.4,0,.11,0,.22.04.34.18.57.78.88,1.35.71.17-.05.32-.15.44-.27.45.23.92.5,1.38.81,0,.08,0,.16.04.25.14.45.61.7,1.06.56.39.31.77.65,1.15,1.02-.07.15-.08.31-.03.48.11.35.49.55.84.44.35-.11.55-.49.44-.84-.1-.33-.43-.52-.76-.45-.26-.31-.62-.7-1.1-1.14.07-.18.09-.38.03-.57-.14-.45-.62-.7-1.06-.56-.09.03-.17.07-.24.13-.42-.29-.89-.57-1.41-.84,0-.12,0-.24-.04-.36-.18-.57-.78-.88-1.35-.71-.18.05-.32.15-.44.28-.5-.17-1.04-.33-1.61-.45,0-.08-.02-.15-.05-.23-.22-.71-.97-1.1-1.68-.88-.39.12-.68.41-.83.75-.42-.03-.85-.04-1.29-.04,0-.02,0-.03,0-.05-.27-.86-1.19-1.34-2.04-1.07-.86.27-1.34,1.18-1.07,2.04.27.86,1.18,1.34,2.04,1.07"/>
        <path class="cls-1" d="M3.45,11.87c.38-.41.5-.97.39-1.48.23-.16.58-.39,1.04-.65.02.02.04.05.06.07.54.5,1.39.46,1.89-.08.25-.27.37-.62.35-.97.45-.14.93-.27,1.45-.37.05.1.12.19.21.27.44.4,1.12.37,1.52-.06.12-.13.2-.29.24-.45.51-.03,1.05-.02,1.6.01.04.07.09.14.15.2.34.32.88.29,1.2-.05.49.08,1,.18,1.52.31.02.16.08.31.21.43.27.25.7.23.95-.04.25-.27.23-.7-.04-.95-.25-.23-.62-.22-.88,0-.37-.14-.89-.3-1.54-.44-.03-.19-.11-.37-.26-.51-.35-.32-.88-.29-1.2.05-.06.07-.11.15-.15.23-.51-.04-1.06-.05-1.65-.02-.06-.1-.13-.2-.22-.29-.44-.4-1.12-.37-1.52.06-.12.14-.2.3-.25.46-.52.1-1.06.24-1.62.41-.05-.06-.1-.12-.16-.18-.54-.5-1.39-.46-1.89.08-.27.3-.38.69-.34,1.06-.37.19-.75.39-1.14.61-.01-.01-.02-.02-.03-.03-.66-.61-1.69-.57-2.3.1-.61.66-.57,1.7.1,2.3.66.61,1.7.57,2.31-.1"/>
        <path class="cls-1" d="M3.1,17.32c.25-.5.21-1.07-.05-1.53.17-.22.44-.54.82-.91.03.01.05.03.08.05.66.33,1.46.05,1.79-.61.16-.33.18-.7.06-1.03.39-.26.82-.52,1.28-.77.08.08.17.15.27.2.53.26,1.18.04,1.44-.49.08-.16.11-.33.1-.5.48-.17,1-.32,1.54-.45.06.06.13.11.2.15.42.21.93.03,1.13-.39.49-.07,1-.11,1.54-.13.06.15.17.28.32.35.33.16.73.03.9-.31.16-.33.03-.73-.31-.9-.31-.15-.67-.04-.85.24-.4-.03-.94-.04-1.59.02-.08-.17-.21-.32-.4-.41-.42-.21-.93-.03-1.14.39-.04.09-.06.18-.08.26-.5.11-1.03.25-1.58.45-.08-.08-.18-.16-.29-.22-.53-.26-1.18-.04-1.44.49-.08.17-.11.34-.1.51-.47.25-.95.53-1.44.85-.06-.05-.13-.09-.2-.12-.66-.33-1.46-.05-1.79.61-.18.37-.17.77-.02,1.12-.31.28-.61.58-.92.91-.01,0-.02-.02-.04-.03-.81-.4-1.79-.06-2.18.75-.4.81-.06,1.79.75,2.18.81.4,1.79.06,2.18-.75"/>
        <path class="cls-1" d="M5.89,18.42c-.03-.18-.11-.33-.21-.47.29-.42.61-.85.98-1.27.08.01.16.01.25,0,.46-.08.77-.52.69-.98.36-.34.74-.68,1.16-1.01.13.08.3.12.47.09.36-.07.61-.41.54-.78-.06-.36-.41-.61-.78-.54-.34.06-.57.36-.55.7-.34.21-.78.53-1.27.95-.17-.09-.36-.14-.56-.1-.46.08-.77.52-.69.98.02.09.05.18.09.26-.34.38-.68.81-1.01,1.3-.12-.02-.24-.02-.36,0-.59.1-.98.66-.87,1.25.03.18.11.34.22.48-.24.48-.45.99-.65,1.54-.08,0-.16,0-.24.02-.73.13-1.21.82-1.08,1.55.07.4.32.72.64.91-.08.41-.15.83-.2,1.27-.02,0-.03,0-.05,0-.89.16-1.48,1-1.32,1.89.16.89,1,1.48,1.89,1.32.89-.16,1.48-1.01,1.32-1.89-.1-.55-.46-.99-.94-1.2,0-.28.04-.69.12-1.22.03,0,.06,0,.09,0,.73-.13,1.21-.82,1.08-1.55-.07-.37-.27-.67-.56-.86.16-.44.35-.9.58-1.38.11.02.23.02.34,0,.58-.1.97-.66.87-1.25"/>
        <path class="cls-1" d="M8.79,31.89c-.16-.23-.38-.58-.63-1.05.02-.02.05-.04.07-.06.51-.53.49-1.38-.05-1.89-.27-.26-.62-.38-.96-.37-.13-.45-.26-.93-.35-1.46.1-.05.19-.12.27-.2.41-.43.39-1.11-.04-1.52-.13-.12-.28-.2-.45-.25-.02-.51,0-1.05.04-1.6.07-.04.14-.09.2-.15.32-.34.31-.87-.03-1.2.08-.49.19-.99.33-1.51.16-.01.31-.08.43-.2.26-.27.24-.69-.02-.95-.27-.25-.69-.24-.95.02-.24.25-.23.62-.02.88-.14.37-.32.89-.46,1.53-.19.02-.37.1-.51.25-.32.34-.31.88.03,1.2.07.06.15.11.23.15-.05.51-.07,1.06-.05,1.65-.11.05-.21.12-.29.21-.41.43-.39,1.11.04,1.52.13.13.29.21.46.25.09.52.22,1.07.38,1.63-.06.05-.12.1-.18.15-.51.54-.49,1.38.05,1.89.29.28.68.39,1.06.35.18.38.37.76.59,1.15-.01.01-.02.02-.04.03-.62.65-.6,1.69.06,2.31.65.62,1.69.6,2.31-.06.62-.65.59-1.69-.06-2.31-.41-.39-.96-.52-1.47-.41"/>
        <path class="cls-1" d="M16.23,32.9c-.51-.24-1.07-.2-1.53.06-.22-.17-.54-.44-.92-.81.02-.03.04-.05.05-.08.32-.66.04-1.46-.62-1.79-.33-.16-.7-.17-1.03-.06-.26-.39-.53-.81-.78-1.28.08-.08.15-.17.2-.28.26-.54.03-1.18-.5-1.44-.16-.08-.33-.11-.5-.1-.17-.48-.33-.99-.45-1.54.06-.06.11-.12.14-.2.2-.42.03-.93-.39-1.13-.07-.49-.12-1-.14-1.54.15-.06.28-.17.35-.33.16-.33.02-.73-.31-.89-.33-.16-.73-.02-.89.31-.15.31-.04.67.25.85-.02.4-.03.94.03,1.59-.17.08-.32.21-.41.4-.2.42-.03.93.4,1.13.09.04.17.06.27.07.11.5.26,1.03.46,1.58-.09.08-.16.18-.21.29-.26.54-.03,1.18.5,1.44.17.08.34.11.52.1.25.47.53.95.86,1.43-.05.06-.09.13-.12.2-.32.67-.04,1.47.62,1.79.36.18.77.17,1.12.02.29.3.59.61.91.91,0,.01-.02.02-.02.04-.39.81-.05,1.79.76,2.18.81.39,1.79.05,2.18-.76.39-.81.05-1.79-.76-2.18"/>
        <path class="cls-1" d="M25.2,32.16c-.55.1-.99.47-1.2.94-.28,0-.69-.04-1.22-.12,0-.03,0-.06,0-.09-.13-.73-.83-1.21-1.55-1.08-.36.07-.67.27-.86.56-.44-.16-.9-.35-1.38-.58.02-.11.02-.22,0-.34-.11-.59-.66-.98-1.25-.87-.18.03-.33.11-.47.21-.42-.29-.85-.61-1.27-.98,0-.08.01-.16,0-.25-.08-.46-.52-.77-.98-.69-.34-.36-.68-.74-1.02-1.16.08-.14.12-.3.09-.47-.06-.37-.41-.61-.78-.54-.36.07-.6.41-.54.78.06.34.36.57.7.55.22.34.53.78.95,1.27-.09.17-.14.36-.1.56.08.46.52.77.99.69.09-.02.18-.05.26-.1.38.34.81.68,1.3,1.01-.02.12-.02.24,0,.36.11.59.66.97,1.25.87.18-.03.34-.11.48-.22.48.24.99.45,1.54.65,0,.08,0,.16.02.24.13.73.83,1.21,1.55,1.08.4-.07.72-.32.91-.64.41.08.83.15,1.28.2,0,.02,0,.03,0,.05.16.89,1.01,1.48,1.89,1.32.89-.16,1.48-1.01,1.32-1.89-.16-.89-1.01-1.48-1.89-1.32"/>
        <path class="cls-1" d="M32.53,27.13c-.43.37-.62.9-.56,1.42-.24.13-.62.32-1.11.52-.02-.03-.03-.05-.05-.08-.48-.56-1.33-.63-1.89-.15-.28.24-.44.57-.46.92-.46.09-.96.16-1.48.2-.04-.1-.1-.2-.17-.29-.39-.45-1.07-.5-1.52-.12-.14.12-.23.26-.29.42-.51-.03-1.04-.1-1.59-.2-.03-.07-.07-.15-.13-.21-.3-.36-.84-.4-1.2-.09-.48-.13-.97-.29-1.47-.49,0-.16-.04-.32-.15-.45-.24-.28-.66-.31-.94-.07-.28.24-.31.66-.07.94.22.26.59.3.87.11.36.18.85.41,1.47.62,0,.19.07.38.2.54.31.36.84.4,1.2.09.07-.06.13-.14.17-.21.5.1,1.05.17,1.63.22.04.11.1.22.18.31.39.45,1.07.5,1.52.12.14-.12.24-.27.3-.43.53-.04,1.08-.11,1.66-.22.04.07.08.13.13.19.48.56,1.33.63,1.89.15.31-.26.46-.64.46-1.01.39-.14.79-.3,1.2-.47.01.01.02.03.03.04.59.68,1.62.76,2.3.18.68-.59.76-1.62.18-2.3-.59-.69-1.62-.76-2.3-.18"/>
        <path class="cls-1" d="M37.24,21.02c-.75-.5-1.76-.31-2.26.44-.32.46-.36,1.03-.16,1.52-.2.19-.51.47-.93.79-.02-.02-.04-.04-.07-.06-.61-.41-1.44-.25-1.86.36-.21.31-.27.67-.2,1.01-.42.21-.88.41-1.38.59-.07-.09-.15-.17-.25-.24-.49-.33-1.16-.2-1.5.29-.1.15-.15.31-.17.48-.5.1-1.03.18-1.59.23-.05-.06-.11-.12-.18-.17-.39-.26-.91-.16-1.18.23-.5,0-1.01-.03-1.54-.08-.04-.15-.13-.3-.27-.39-.31-.21-.72-.13-.93.18-.21.31-.13.72.18.93.28.19.66.13.88-.12.39.08.92.16,1.57.2.05.18.17.35.34.46.39.26.91.16,1.18-.23.05-.08.09-.16.11-.25.51-.04,1.06-.11,1.63-.22.07.1.15.18.26.25.49.33,1.16.2,1.49-.29.1-.15.16-.32.17-.5.5-.18,1.02-.39,1.54-.65.06.05.12.11.18.15.61.42,1.44.25,1.86-.36.23-.34.27-.74.17-1.1.34-.24.69-.49,1.03-.77.01.01.02.02.04.03.75.5,1.76.31,2.27-.44.51-.75.31-1.76-.44-2.27"/>
        <path class="cls-1" d="M35.35,15.91c-.74,0-1.34.59-1.35,1.33,0,.37.15.71.39.95-.24.4-.51.82-.82,1.25-.11-.04-.22-.06-.34-.06-.59,0-1.08.47-1.09,1.07,0,.18.04.35.12.5-.36.36-.76.72-1.2,1.07-.08-.02-.16-.04-.25-.04-.47,0-.85.37-.86.84-.41.27-.85.53-1.33.78-.12-.11-.27-.18-.44-.18-.37,0-.67.29-.68.66,0,.37.29.67.66.67.34,0,.62-.25.67-.58.37-.15.86-.37,1.42-.7.15.12.33.2.54.2.47,0,.85-.37.86-.84,0-.09-.02-.19-.05-.27.4-.31.82-.67,1.24-1.09.11.04.23.07.36.07.59,0,1.08-.47,1.09-1.07,0-.18-.05-.36-.13-.51.32-.42.63-.89.93-1.39.08.01.15.02.24.03.74,0,1.34-.59,1.35-1.33,0-.41-.18-.77-.46-1.02.15-.39.3-.79.43-1.22.02,0,.03,0,.05,0,.9,0,1.64-.72,1.65-1.62,0-.9-.72-1.64-1.62-1.65-.9,0-1.64.72-1.65,1.62,0,.56.27,1.06.7,1.36-.06.27-.16.67-.34,1.18-.03,0-.06-.01-.09-.01"/>
        <path class="cls-1" d="M30.71,17.31c-.23.46-.5.92-.81,1.38-.08,0-.16.01-.25.04-.45.14-.69.61-.56,1.06-.31.39-.65.77-1.02,1.15-.15-.06-.31-.08-.48-.03-.35.11-.55.48-.44.84.11.35.49.55.84.44.33-.1.52-.43.45-.76.31-.26.7-.62,1.14-1.11.18.07.38.09.57.03.45-.14.7-.61.56-1.06-.03-.09-.07-.17-.13-.24.29-.42.57-.89.84-1.41.12,0,.24,0,.36-.04.57-.18.88-.78.71-1.35-.06-.18-.15-.32-.28-.44.17-.5.33-1.04.45-1.61.08,0,.15-.02.23-.05.7-.22,1.1-.97.88-1.68-.12-.39-.41-.67-.75-.82.03-.42.04-.85.04-1.29.02,0,.03,0,.05,0,.86-.27,1.34-1.18,1.07-2.04-.27-.86-1.18-1.34-2.04-1.07-.86.27-1.34,1.19-1.07,2.04.17.54.59.92,1.09,1.07.03.28.05.69.04,1.22-.03,0-.06,0-.09.02-.7.22-1.1.97-.88,1.68.11.35.35.63.66.79-.1.46-.23.94-.4,1.44-.11,0-.23,0-.34.04-.57.18-.88.78-.71,1.35.05.17.15.32.27.44"/>
        <path class="cls-1" d="M24.22,4.01c.44.35,1.01.43,1.5.27.18.21.44.54.73.99-.02.02-.04.04-.06.06-.45.58-.35,1.42.23,1.88.29.23.65.32.99.27.18.43.34.9.49,1.41-.09.06-.18.13-.25.23-.37.47-.28,1.15.18,1.51.14.11.3.18.47.21.07.51.11,1.04.12,1.6-.07.05-.13.1-.18.17-.29.37-.22.9.15,1.19-.04.5-.1,1.01-.19,1.53-.16.03-.31.11-.41.24-.23.29-.18.71.11.94.29.23.71.17.94-.11.21-.27.18-.65-.06-.89.11-.38.23-.91.31-1.56.19-.04.36-.14.49-.3.29-.37.22-.9-.15-1.19-.08-.06-.16-.1-.24-.13,0-.51-.04-1.06-.11-1.64.1-.06.19-.14.27-.24.37-.47.28-1.15-.19-1.51-.15-.11-.31-.18-.48-.21-.14-.51-.32-1.04-.54-1.58.06-.05.11-.11.16-.17.46-.58.35-1.42-.23-1.88-.32-.25-.72-.33-1.09-.25-.22-.36-.45-.72-.7-1.08,0-.01.02-.02.03-.03.55-.71.43-1.74-.28-2.29-.71-.56-1.74-.43-2.29.28-.55.71-.43,1.74.28,2.29"/>
      </g>
      <g>
        <polygon class="cls-1" points="53.07 8.45 49.44 27.58 45.35 27.58 48.98 8.45 53.07 8.45"/>
        <path class="cls-1" d="M56.75,8.82c1.22-.31,3.15-.51,4.99-.51,1.7,0,3.69.28,5.08,1.28,1.28.88,2.07,2.21,2.07,4.06,0,2.41-1.11,4.23-2.61,5.39-1.56,1.22-3.77,1.76-6.1,1.76-.68,0-1.25-.06-1.67-.11l-1.3,6.89h-4l3.55-18.75ZM59.14,17.36c.43.09.88.14,1.56.14,2.47,0,4.08-1.59,4.08-3.49s-1.33-2.44-2.92-2.44c-.77,0-1.31.06-1.64.14l-1.08,5.65Z"/>
        <polygon class="cls-1" points="76.84 8.45 73.21 27.58 69.12 27.58 72.76 8.45 76.84 8.45"/>
        <path class="cls-1" d="M91.34,27.04c-1.02.45-2.75.82-5.05.82-5.05,0-8.45-3.06-8.45-8.11,0-4.28,1.93-7.63,4.82-9.56,1.99-1.39,4.34-2.04,7.04-2.04,2.07,0,3.63.48,4.17.82l-1.11,3.32c-.57-.28-1.82-.62-3.46-.62s-3.21.51-4.37,1.47c-1.62,1.31-2.64,3.49-2.64,6.16,0,3.04,1.7,5.08,5.08,5.08,1.33,0,2.67-.23,3.63-.62l.34,3.29Z"/>
        <path class="cls-1" d="M97.35,27.58l1.48-7.8-3.72-11.32h4.37l1.22,4.85c.34,1.59.54,2.5.74,3.46h.06c.57-1.02,1.13-2.1,1.96-3.49l2.86-4.82h4.88l-8.26,11.23-1.5,7.89h-4.09Z"/>
        <polygon class="cls-1" points="116.22 12.03 111.17 12.03 111.88 8.45 126.09 8.45 125.41 12.03 120.3 12.03 117.38 27.58 113.3 27.58 116.22 12.03"/>
      </g>
    </g>
  </g>
</svg>