<?xml version="1.0" encoding="UTF-8"?>
<svg id="Capa_2" data-name="Capa 2" xmlns="http://www.w3.org/2000/svg" viewBox="0 0 127.15 43">
  <defs>
    <style>
      .cls-1 {
        fill: #fff;
      }
    </style>
  </defs>
  <g id="Capa_1-2" data-name="Capa 1">
    <g>
      <g>
        <path class="cls-1" d="M18,3.9c.67,0,1.26-.34,1.61-.86.32.07.81.19,1.41.39,0,.04,0,.07,0,.11,0,.88.71,1.6,1.6,1.6.44,0,.84-.18,1.13-.47.49.28.99.6,1.5.97-.04.13-.07.26-.07.4,0,.71.58,1.29,1.29,1.29.22,0,.41-.06.59-.15.44.43.87.9,1.29,1.42-.03.09-.05.19-.05.29,0,.56.45,1.01,1.01,1.01.33.49.65,1.02.95,1.58-.13.14-.21.33-.21.53,0,.44.36.8.8.8s.8-.36.8-.8c0-.41-.31-.74-.71-.79-.18-.44-.46-1.02-.85-1.69.15-.18.24-.4.24-.64,0-.56-.45-1.01-1.01-1.01-.11,0-.22.02-.32.06-.38-.48-.81-.97-1.31-1.46.05-.13.08-.28.08-.43,0-.71-.58-1.29-1.29-1.29-.22,0-.43.06-.61.16-.51-.38-1.07-.74-1.67-1.09.02-.09.03-.18.03-.28,0-.88-.72-1.6-1.6-1.6-.49,0-.92.22-1.21.56-.46-.18-.95-.35-1.46-.5,0-.02,0-.04,0-.06,0-1.08-.87-1.95-1.95-1.95s-1.95.87-1.95,1.95.87,1.95,1.95,1.95Z"/>
        <path class="cls-1" d="M11.79,7.34c.64-.2,1.1-.7,1.28-1.3.33-.03.83-.06,1.46-.05,0,.04.01.07.02.11.26.84,1.16,1.31,2,1.05.42-.13.75-.42.94-.79.55.12,1.12.28,1.72.48,0,.13,0,.27.05.4.21.68.93,1.06,1.61.84.2-.06.38-.18.52-.32.54.28,1.1.6,1.65.97,0,.1.01.2.04.29.17.53.73.83,1.27.67.46.37.92.78,1.38,1.22-.08.17-.1.37-.04.57.13.42.58.66,1,.52.42-.13.65-.58.52-1-.12-.39-.52-.62-.91-.54-.31-.37-.74-.84-1.32-1.36.09-.21.11-.45.03-.69-.17-.53-.74-.83-1.27-.67-.11.03-.21.09-.29.15-.5-.34-1.07-.68-1.69-1.01,0-.14,0-.29-.05-.43-.21-.68-.93-1.06-1.61-.84-.21.07-.39.18-.53.33-.6-.21-1.24-.39-1.92-.54-.01-.09-.03-.19-.06-.28-.26-.84-1.16-1.31-2-1.05-.46.14-.81.49-.99.9-.5-.03-1.01-.05-1.54-.05,0-.02,0-.04-.01-.06-.32-1.03-1.42-1.6-2.44-1.28-1.03.32-1.6,1.41-1.28,2.44.32,1.03,1.41,1.6,2.44,1.28Z"/>
        <path class="cls-1" d="M4.12,14.17c.45-.49.6-1.16.46-1.76.27-.19.69-.47,1.24-.77.02.03.04.06.07.08.65.6,1.66.55,2.26-.1.3-.33.44-.74.42-1.15.53-.17,1.11-.32,1.73-.45.06.12.14.23.25.32.52.48,1.34.45,1.82-.08.15-.16.24-.34.29-.54.61-.03,1.25-.03,1.91.01.05.08.11.16.18.23.41.38,1.05.35,1.43-.06.59.09,1.19.21,1.81.37.02.19.1.37.25.51.32.3.83.28,1.13-.05.3-.32.28-.83-.05-1.13-.3-.28-.75-.27-1.05,0-.45-.16-1.06-.36-1.83-.52-.03-.22-.13-.44-.31-.61-.41-.38-1.05-.35-1.43.06-.08.08-.13.18-.18.28-.61-.05-1.27-.06-1.97-.02-.07-.13-.15-.24-.26-.35-.52-.48-1.34-.44-1.82.08-.15.16-.24.35-.29.55-.62.12-1.27.28-1.93.49-.06-.07-.12-.15-.19-.21-.65-.6-1.66-.55-2.26.1-.33.36-.46.82-.4,1.27-.45.22-.9.46-1.36.73-.01-.01-.02-.03-.04-.04-.79-.73-2.02-.68-2.75.12-.73.79-.68,2.03.11,2.75.79.73,2.02.68,2.75-.12Z"/>
        <path class="cls-1" d="M3.7,20.69c.3-.6.25-1.28-.06-1.82.2-.26.53-.64.97-1.09.03.02.06.04.09.06.79.39,1.75.06,2.14-.73.2-.4.21-.84.08-1.23.46-.31.97-.62,1.53-.92.09.09.2.18.33.24.64.31,1.41.05,1.72-.59.1-.19.13-.4.13-.6.58-.2,1.19-.38,1.84-.53.07.07.15.13.24.17.5.25,1.11.04,1.36-.46.59-.08,1.2-.13,1.84-.16.07.18.2.33.39.42.4.19.88.03,1.07-.36.19-.4.03-.87-.37-1.07-.37-.18-.8-.05-1.02.29-.48-.03-1.12-.04-1.9.02-.09-.21-.25-.39-.47-.49-.5-.25-1.11-.04-1.36.46-.05.1-.08.21-.09.32-.59.13-1.23.3-1.89.53-.1-.1-.21-.19-.35-.26-.64-.31-1.41-.05-1.72.59-.1.2-.13.41-.12.61-.56.29-1.14.63-1.72,1.02-.07-.05-.15-.11-.24-.15-.79-.39-1.75-.06-2.14.73-.21.44-.2.92-.03,1.33-.36.34-.73.7-1.09,1.09-.02,0-.03-.02-.05-.03-.97-.47-2.13-.07-2.61.89-.47.97-.08,2.13.89,2.61.97.47,2.13.07,2.61-.89Z"/>
        <path class="cls-1" d="M7.04,22c-.04-.21-.13-.4-.25-.56.34-.5.73-1.01,1.17-1.51.1.01.2.01.3,0,.55-.1.92-.62.82-1.17.43-.41.89-.82,1.39-1.21.16.1.36.15.56.11.44-.08.72-.49.65-.93-.08-.43-.49-.72-.93-.65-.4.07-.68.43-.65.83-.4.26-.93.63-1.52,1.14-.2-.11-.43-.16-.67-.12-.55.1-.92.62-.82,1.18.02.11.06.21.11.31-.4.45-.81.97-1.21,1.55-.14-.02-.28-.03-.43,0-.7.12-1.17.79-1.04,1.49.04.22.13.41.26.57-.28.57-.54,1.18-.78,1.84-.09,0-.19,0-.28.02-.87.16-1.45.98-1.29,1.85.08.48.38.86.77,1.09-.09.49-.18.99-.24,1.52-.02,0-.04,0-.06,0-1.06.19-1.77,1.2-1.58,2.26.19,1.06,1.2,1.77,2.26,1.58,1.06-.19,1.77-1.2,1.58-2.26-.12-.66-.55-1.18-1.12-1.44.01-.33.04-.83.14-1.46.04,0,.07,0,.11,0,.87-.15,1.45-.98,1.29-1.85-.08-.44-.32-.8-.66-1.03.19-.53.42-1.08.69-1.65.13.02.27.02.41,0,.7-.12,1.16-.79,1.04-1.49Z"/>
        <path class="cls-1" d="M10.5,38.09c-.19-.27-.46-.69-.75-1.25.03-.03.06-.04.08-.07.61-.64.58-1.65-.06-2.26-.32-.31-.74-.45-1.15-.44-.16-.54-.3-1.11-.42-1.74.12-.06.23-.14.33-.24.49-.51.47-1.33-.05-1.82-.15-.15-.34-.24-.53-.3-.02-.61,0-1.25.04-1.91.08-.05.17-.11.24-.18.38-.41.37-1.04-.04-1.43.1-.59.23-1.19.4-1.8.19-.01.38-.09.52-.24.3-.32.29-.83-.03-1.13-.32-.3-.83-.29-1.13.03-.28.29-.28.74-.03,1.05-.17.45-.38,1.06-.55,1.83-.23.03-.44.13-.61.3-.39.4-.37,1.05.04,1.43.08.08.18.14.27.18-.06.61-.08,1.26-.06,1.97-.13.06-.25.15-.35.25-.49.51-.47,1.33.05,1.82.16.15.35.25.55.3.11.62.26,1.27.46,1.94-.07.05-.15.11-.21.18-.61.64-.58,1.65.06,2.26.35.33.82.47,1.26.42.21.45.45.91.71,1.37-.01.01-.03.02-.04.04-.74.78-.71,2.01.07,2.75.78.74,2.01.71,2.75-.07.74-.78.71-2.01-.07-2.75-.48-.46-1.15-.62-1.76-.49Z"/>
        <path class="cls-1" d="M19.39,39.3c-.6-.29-1.28-.24-1.82.07-.26-.2-.65-.52-1.1-.97.02-.03.04-.06.06-.09.38-.79.05-1.75-.74-2.13-.4-.19-.84-.2-1.23-.07-.32-.46-.63-.97-.93-1.53.09-.1.18-.2.24-.33.31-.64.04-1.41-.6-1.72-.19-.09-.4-.13-.6-.12-.21-.57-.39-1.19-.54-1.84.07-.07.13-.15.17-.24.24-.5.03-1.11-.47-1.35-.08-.59-.14-1.2-.17-1.83.18-.07.33-.2.42-.39.19-.4.03-.88-.37-1.07-.4-.19-.87-.03-1.07.37-.18.37-.04.8.29,1.02-.03.48-.04,1.12.03,1.89-.21.1-.39.26-.49.48-.24.5-.03,1.11.47,1.35.1.05.21.08.32.09.13.59.31,1.23.54,1.89-.1.1-.19.21-.26.35-.31.64-.04,1.41.6,1.72.2.1.41.13.62.12.29.56.64,1.13,1.03,1.71-.05.07-.11.15-.15.24-.38.79-.05,1.75.74,2.13.44.21.92.2,1.33.02.34.36.7.73,1.09,1.09,0,.02-.02.03-.03.05-.47.97-.06,2.13.91,2.6.97.47,2.13.06,2.6-.91.47-.97.06-2.13-.91-2.6Z"/>
        <path class="cls-1" d="M30.1,38.41c-.66.12-1.18.56-1.44,1.12-.33-.01-.83-.04-1.46-.14,0-.04,0-.07,0-.11-.15-.87-.99-1.45-1.85-1.29-.44.08-.8.33-1.03.66-.53-.19-1.08-.41-1.65-.69.02-.13.02-.27,0-.41-.13-.7-.79-1.16-1.49-1.04-.21.04-.4.13-.56.25-.5-.34-1.01-.73-1.52-1.17.01-.1.01-.2,0-.3-.1-.55-.62-.92-1.17-.82-.41-.43-.82-.89-1.21-1.39.1-.16.15-.36.11-.56-.08-.44-.49-.72-.93-.65-.43.08-.72.49-.65.93.07.4.44.68.83.65.26.4.63.93,1.14,1.51-.11.2-.16.43-.12.68.1.55.63.92,1.18.82.11-.02.21-.06.31-.11.45.4.97.81,1.55,1.21-.02.14-.03.28,0,.43.13.7.79,1.16,1.49,1.04.22-.04.41-.13.57-.26.57.28,1.18.54,1.84.78,0,.09,0,.19.02.28.15.87.99,1.45,1.86,1.29.48-.09.86-.38,1.09-.77.49.09,1,.18,1.52.24,0,.02,0,.04,0,.06.19,1.06,1.2,1.76,2.26,1.58,1.06-.19,1.77-1.2,1.58-2.26-.19-1.06-1.2-1.76-2.26-1.57Z"/>
        <path class="cls-1" d="M38.85,32.4c-.51.44-.74,1.08-.67,1.7-.29.16-.74.38-1.33.62-.02-.03-.04-.06-.06-.09-.57-.67-1.58-.75-2.25-.17-.34.29-.52.69-.56,1.09-.55.1-1.14.19-1.77.24-.05-.12-.12-.24-.21-.35-.46-.54-1.28-.6-1.82-.14-.16.14-.28.31-.35.5-.61-.04-1.24-.12-1.9-.24-.04-.09-.09-.18-.15-.25-.36-.42-1-.48-1.43-.11-.57-.16-1.15-.35-1.75-.58,0-.19-.05-.38-.18-.54-.29-.33-.79-.37-1.13-.09-.33.29-.38.79-.09,1.13.26.31.71.35,1.04.14.42.22,1.01.49,1.76.74,0,.23.08.46.24.64.36.42,1,.48,1.43.11.09-.07.15-.16.21-.25.6.12,1.25.21,1.95.26.05.13.12.26.22.37.46.54,1.27.6,1.81.14.17-.14.28-.32.36-.51.63-.05,1.29-.13,1.98-.26.05.08.1.16.16.23.57.67,1.58.75,2.25.17.37-.32.55-.76.55-1.21.47-.17.95-.35,1.43-.57.01.02.02.03.03.05.7.82,1.93.91,2.75.21.82-.7.91-1.93.21-2.75-.7-.82-1.93-.91-2.75-.21Z"/>
        <path class="cls-1" d="M44.48,25.11c-.89-.6-2.1-.37-2.71.52-.38.55-.43,1.23-.19,1.81-.24.23-.61.56-1.11.95-.03-.02-.05-.05-.08-.07-.73-.49-1.73-.3-2.22.43-.25.37-.32.8-.24,1.2-.5.25-1.05.48-1.65.7-.08-.11-.18-.2-.29-.28-.59-.4-1.39-.24-1.79.34-.12.18-.18.38-.21.57-.6.12-1.23.22-1.89.27-.06-.08-.13-.15-.22-.2-.46-.31-1.09-.19-1.41.27-.59,0-1.2-.03-1.84-.1-.05-.19-.15-.35-.32-.47-.37-.25-.86-.15-1.11.21-.25.37-.15.86.21,1.11.34.23.79.16,1.05-.14.47.1,1.1.2,1.88.24.06.22.2.42.4.55.46.31,1.09.19,1.41-.27.06-.09.1-.19.13-.3.61-.04,1.26-.13,1.95-.27.08.11.19.22.31.3.59.4,1.39.24,1.78-.34.12-.18.19-.39.21-.59.6-.21,1.21-.47,1.84-.78.07.06.14.13.22.18.73.5,1.72.3,2.22-.43.27-.4.33-.88.21-1.32.41-.28.82-.59,1.23-.93.02.01.03.03.04.04.89.6,2.1.37,2.71-.52.6-.89.37-2.1-.52-2.71Z"/>
        <path class="cls-1" d="M42.22,19c-.88,0-1.6.7-1.61,1.58,0,.44.17.85.46,1.14-.28.48-.61.98-.98,1.49-.13-.04-.26-.07-.4-.07-.71,0-1.29.57-1.3,1.28,0,.21.05.41.14.59-.43.43-.91.86-1.43,1.27-.09-.03-.19-.05-.29-.05-.56,0-1.02.44-1.02,1-.49.33-1.02.64-1.59.93-.14-.13-.33-.21-.53-.21-.44,0-.8.35-.81.79,0,.44.35.8.79.81.41,0,.75-.3.8-.7.44-.18,1.03-.45,1.7-.84.17.15.4.24.64.24.56,0,1.02-.44,1.02-1,0-.11-.02-.22-.06-.32.48-.37.98-.8,1.48-1.3.13.05.28.08.42.08.71,0,1.29-.56,1.3-1.27,0-.22-.06-.43-.15-.61.38-.51.75-1.06,1.11-1.66.09.02.18.03.28.03.88,0,1.6-.7,1.61-1.58,0-.49-.21-.92-.55-1.21.18-.46.35-.95.52-1.45.02,0,.04,0,.06,0,1.08.01,1.95-.86,1.97-1.93,0-1.08-.86-1.96-1.93-1.97-1.08,0-1.96.86-1.97,1.93,0,.67.33,1.26.84,1.62-.07.32-.2.81-.4,1.41-.04,0-.07-.01-.11-.01Z"/>
        <path class="cls-1" d="M36.68,20.68c-.28.54-.6,1.1-.97,1.65-.1,0-.2.01-.3.04-.53.17-.83.73-.67,1.27-.37.46-.78.92-1.22,1.38-.17-.08-.37-.1-.57-.04-.42.13-.66.58-.52,1,.13.42.58.65,1,.52.39-.12.62-.52.54-.91.37-.31.84-.74,1.36-1.32.21.09.45.11.69.03.53-.17.83-.73.66-1.27-.03-.11-.09-.2-.15-.29.34-.5.68-1.07,1.01-1.69.14,0,.29,0,.43-.05.68-.21,1.06-.93.84-1.61-.07-.21-.18-.39-.33-.53.21-.6.39-1.24.54-1.92.09-.01.18-.03.28-.06.84-.26,1.31-1.16,1.05-2-.15-.46-.48-.81-.9-.98.03-.5.05-1.01.05-1.54.02,0,.04,0,.06-.01,1.03-.32,1.6-1.41,1.28-2.44-.32-1.03-1.41-1.6-2.44-1.28-1.03.32-1.6,1.42-1.28,2.44.2.64.7,1.1,1.3,1.28.03.33.06.83.05,1.46-.03,0-.07,0-.1.02-.84.26-1.31,1.16-1.05,2,.13.42.42.75.79.94-.12.55-.28,1.12-.48,1.72-.13,0-.27,0-.4.05-.68.21-1.05.94-.84,1.61.06.2.18.38.32.52Z"/>
        <path class="cls-1" d="M28.92,4.79c.53.41,1.2.51,1.8.32.21.25.52.65.87,1.18-.02.03-.05.05-.07.08-.54.69-.42,1.7.28,2.24.35.27.78.38,1.18.33.21.52.41,1.08.58,1.69-.11.07-.22.16-.3.27-.44.56-.34,1.37.22,1.81.17.13.36.21.56.25.08.61.13,1.24.14,1.91-.08.06-.16.12-.22.2-.34.44-.27,1.08.17,1.42-.04.59-.12,1.2-.22,1.83-.19.03-.37.13-.49.29-.27.35-.21.85.14,1.12.35.27.85.21,1.12-.14.25-.32.21-.78-.07-1.06.13-.46.27-1.09.37-1.86.22-.05.43-.17.58-.36.34-.44.27-1.08-.18-1.42-.09-.07-.19-.12-.29-.15,0-.61-.04-1.27-.13-1.96.12-.08.23-.17.32-.29.44-.56.34-1.37-.22-1.81-.17-.13-.37-.21-.58-.25-.17-.61-.38-1.24-.65-1.89.07-.06.14-.13.2-.2.54-.69.42-1.7-.28-2.24-.38-.3-.86-.39-1.3-.3-.26-.43-.53-.86-.84-1.29.01-.01.03-.03.04-.04.66-.85.51-2.07-.34-2.74-.85-.66-2.07-.51-2.74.34-.66.85-.51,2.07.34,2.74Z"/>
      </g>
      <g>
        <g>
          <path class="cls-1" d="M53.73,20.44l-.81,4.29h-.92l.81-4.29h.92Z"/>
          <path class="cls-1" d="M53.76,24.72l.81-4.29h1.07l.57,1.63c.17.55.29.99.39,1.46h.02c.02-.44.08-.91.2-1.54l.29-1.56h.85l-.81,4.29h-.95l-.6-1.71c-.19-.58-.31-.97-.42-1.49h-.02c-.05.42-.15,1.03-.28,1.7l-.28,1.5h-.85Z"/>
          <path class="cls-1" d="M58.18,23.73c.25.15.62.27,1.01.27.36,0,.68-.17.68-.5,0-.24-.18-.4-.58-.6-.46-.25-.89-.58-.89-1.14,0-.86.76-1.39,1.69-1.39.52,0,.83.11,1.01.22l-.29.76c-.14-.08-.45-.2-.8-.19-.43,0-.65.22-.65.45,0,.25.26.4.62.6.52.27.85.62.85,1.13,0,.95-.79,1.44-1.74,1.44-.6,0-1.02-.15-1.23-.31l.31-.75Z"/>
          <path class="cls-1" d="M62.67,21.24h-1.13l.16-.8h3.19l-.15.8h-1.14l-.65,3.49h-.92l.65-3.49Z"/>
          <path class="cls-1" d="M66.3,20.44l-.81,4.29h-.92l.81-4.29h.92Z"/>
          <path class="cls-1" d="M67.77,21.24h-1.13l.16-.8h3.19l-.15.8h-1.14l-.65,3.49h-.92l.65-3.49Z"/>
          <path class="cls-1" d="M71.39,20.44l-.47,2.47c-.03.15-.04.32-.04.51,0,.34.21.61.62.61.48,0,.79-.32.95-1.11l.47-2.47h.92l-.46,2.44c-.25,1.3-.82,1.92-1.98,1.92-.88,0-1.42-.45-1.42-1.37,0-.18.03-.39.06-.6l.45-2.39h.92Z"/>
          <path class="cls-1" d="M75.29,21.24h-1.13l.16-.8h3.19l-.15.8h-1.14l-.66,3.49h-.92l.66-3.49Z"/>
          <path class="cls-1" d="M81.37,22.15c0,.78-.27,1.54-.76,2.02-.4.39-.94.62-1.58.62-1.11,0-1.74-.79-1.74-1.79,0-.78.29-1.55.79-2.03.4-.38.95-.61,1.56-.61,1.13,0,1.73.76,1.73,1.79ZM78.79,21.45c-.34.34-.53,1-.53,1.52,0,.6.27,1.06.9,1.06.27,0,.52-.12.72-.31.34-.34.52-1.04.52-1.54,0-.53-.19-1.05-.86-1.05-.29,0-.54.12-.74.32Z"/>
          <path class="cls-1" d="M83.55,20.52c.27-.07.71-.11,1.12-.11.38,0,.83.06,1.14.29.29.2.46.5.46.91,0,.54-.25.95-.59,1.21-.35.27-.85.39-1.37.39-.15,0-.28-.01-.38-.03l-.29,1.55h-.9l.8-4.2ZM84.08,22.43c.1.02.2.03.35.03.55,0,.92-.36.92-.78s-.3-.55-.66-.55c-.17,0-.29.01-.37.03l-.24,1.27Z"/>
          <path class="cls-1" d="M90.57,22.15c0,.78-.27,1.54-.76,2.02-.4.39-.94.62-1.58.62-1.11,0-1.74-.79-1.74-1.79,0-.78.29-1.55.79-2.03.4-.38.95-.61,1.56-.61,1.13,0,1.73.76,1.73,1.79ZM88,21.45c-.34.34-.53,1-.53,1.52,0,.6.27,1.06.9,1.06.27,0,.52-.12.72-.31.34-.34.52-1.04.52-1.54,0-.53-.19-1.05-.86-1.05-.29,0-.54.12-.74.32Z"/>
          <path class="cls-1" d="M92.01,21.24h-1.13l.16-.8h3.19l-.15.8h-1.14l-.66,3.49h-.92l.66-3.49Z"/>
          <path class="cls-1" d="M98.09,22.15c0,.78-.27,1.54-.76,2.02-.4.39-.94.62-1.58.62-1.11,0-1.74-.79-1.74-1.79,0-.78.29-1.55.79-2.03.4-.38.95-.61,1.56-.61,1.13,0,1.73.76,1.73,1.79ZM95.51,21.45c-.34.34-.53,1-.53,1.52,0,.6.27,1.06.9,1.06.27,0,.52-.12.72-.31.34-.34.52-1.04.52-1.54,0-.53-.19-1.05-.86-1.05-.29,0-.54.12-.74.32Z"/>
          <path class="cls-1" d="M98.49,23.73c.25.15.62.27,1.01.27.36,0,.68-.17.68-.5,0-.24-.18-.4-.58-.6-.46-.25-.89-.58-.89-1.14,0-.86.76-1.39,1.69-1.39.52,0,.83.11,1.01.22l-.29.76c-.14-.08-.45-.2-.8-.19-.43,0-.65.22-.65.45,0,.25.26.4.62.6.52.27.85.62.85,1.13,0,.95-.79,1.44-1.74,1.44-.6,0-1.02-.15-1.23-.31l.31-.75Z"/>
          <path class="cls-1" d="M103.26,20.44l-.81,4.29h-.92l.81-4.29h.92Z"/>
          <path class="cls-1" d="M103.29,24.72l.81-4.29h1.07l.57,1.63c.17.55.29.99.39,1.46h.02c.02-.44.08-.91.2-1.54l.29-1.56h.85l-.81,4.29h-.95l-.6-1.71c-.19-.58-.31-.97-.42-1.49h-.02c-.05.42-.15,1.03-.28,1.7l-.28,1.5h-.85Z"/>
          <path class="cls-1" d="M111.79,22.15c0,.78-.27,1.54-.76,2.02-.4.39-.94.62-1.58.62-1.11,0-1.74-.79-1.74-1.79,0-.78.29-1.55.79-2.03.4-.38.95-.61,1.56-.61,1.13,0,1.73.76,1.73,1.79ZM109.22,21.45c-.34.34-.53,1-.53,1.52,0,.6.27,1.06.9,1.06.27,0,.52-.12.72-.31.34-.34.52-1.04.52-1.54,0-.53-.19-1.05-.86-1.05-.29,0-.54.12-.74.32Z"/>
          <path class="cls-1" d="M113.99,20.5c.36-.06.77-.1,1.18-.1.67,0,1.2.15,1.56.46.34.29.56.71.57,1.34,0,.83-.35,1.55-.88,1.97-.5.39-1.13.57-2.05.57-.51,0-.96-.04-1.17-.08l.79-4.17ZM114.24,23.99c.11.02.24.03.4.03.5,0,.93-.18,1.21-.5.29-.33.45-.78.45-1.29,0-.67-.37-1.07-1.13-1.07-.16,0-.29,0-.39.03l-.54,2.82Z"/>
          <path class="cls-1" d="M120.29,22.9h-1.53l-.2,1.04h1.71l-.15.78h-2.63l.81-4.29h2.54l-.15.78h-1.62l-.18.92h1.53l-.15.77Z"/>
          <path class="cls-1" d="M53.73,28.07l-.81,4.29h-.92l.81-4.29h.92Z"/>
          <path class="cls-1" d="M53.76,32.36l.81-4.29h1.07l.57,1.63c.17.55.29.99.39,1.46h.02c.02-.44.08-.91.2-1.54l.29-1.56h.85l-.81,4.29h-.95l-.6-1.71c-.19-.58-.31-.97-.42-1.49h-.02c-.05.42-.15,1.03-.28,1.7l-.28,1.5h-.85Z"/>
          <path class="cls-1" d="M58.92,32.36l-.53-4.29h.95l.19,2.04c.04.45.08.87.1,1.32h.01c.16-.42.36-.88.57-1.32l.96-2.04h1.02l-2.21,4.29h-1.06Z"/>
          <path class="cls-1" d="M64.67,30.54h-1.53l-.2,1.04h1.71l-.15.78h-2.63l.81-4.29h2.54l-.15.78h-1.62l-.18.92h1.53l-.15.77Z"/>
          <path class="cls-1" d="M65.35,31.36c.25.15.62.27,1.01.27.36,0,.68-.17.68-.5,0-.24-.18-.4-.58-.6-.46-.25-.89-.58-.89-1.14,0-.86.76-1.39,1.69-1.39.52,0,.83.11,1.01.22l-.29.76c-.14-.08-.45-.2-.8-.19-.43,0-.65.22-.65.45,0,.25.26.4.62.6.52.27.85.62.85,1.13,0,.95-.79,1.44-1.74,1.44-.6,0-1.02-.15-1.23-.31l.31-.75Z"/>
          <path class="cls-1" d="M69.85,28.87h-1.13l.16-.8h3.19l-.15.8h-1.14l-.65,3.48h-.92l.65-3.48Z"/>
          <path class="cls-1" d="M73.47,28.07l-.81,4.29h-.92l.81-4.29h.92Z"/>
          <path class="cls-1" d="M77.05,32.16c-.33.11-.85.24-1.39.24-.59,0-1.07-.15-1.43-.47-.34-.31-.54-.78-.54-1.32,0-.8.33-1.49.88-1.96.48-.4,1.14-.62,1.89-.62.56,0,.97.11,1.14.19l-.27.78c-.2-.09-.53-.18-.91-.18-.43,0-.81.12-1.09.34-.37.29-.62.8-.62,1.39,0,.72.43,1.08,1.1,1.08.21,0,.36-.03.46-.08l.17-.9h-.66l.14-.73h1.56l-.43,2.24Z"/>
          <path class="cls-1" d="M78.97,31.24l-.51,1.11h-.97l2.09-4.29h1.18l.5,4.29h-.96l-.09-1.11h-1.23ZM80.16,30.54l-.08-.92c-.02-.24-.04-.58-.06-.84h-.01c-.11.26-.23.59-.34.84l-.43.92h.93Z"/>
          <path class="cls-1" d="M84.75,32.23c-.23.1-.62.18-1.13.18-1.13,0-1.9-.69-1.9-1.82,0-.96.43-1.71,1.08-2.14.45-.31.97-.46,1.58-.46.46,0,.81.11.93.18l-.25.74c-.13-.06-.41-.14-.78-.14s-.72.11-.98.33c-.36.29-.59.78-.59,1.38,0,.68.38,1.14,1.14,1.14.3,0,.6-.05.81-.14l.08.74Z"/>
          <path class="cls-1" d="M86.95,28.07l-.81,4.29h-.92l.81-4.29h.92Z"/>
          <path class="cls-1" d="M91.25,29.79c0,.78-.27,1.54-.76,2.02-.4.39-.94.62-1.58.62-1.11,0-1.74-.79-1.74-1.79,0-.78.29-1.55.79-2.03.4-.38.95-.61,1.56-.61,1.13,0,1.73.76,1.73,1.79ZM88.67,29.09c-.34.34-.53,1-.53,1.52,0,.6.27,1.06.9,1.06.27,0,.52-.12.72-.31.34-.34.52-1.04.52-1.54,0-.53-.19-1.05-.86-1.05-.29,0-.54.12-.74.32ZM90.76,27.02l-.84.8h-.78l.6-.8h1.02Z"/>
          <path class="cls-1" d="M91.47,32.36l.81-4.29h1.07l.57,1.63c.17.55.29.99.39,1.46h.02c.02-.44.08-.91.2-1.54l.29-1.56h.85l-.81,4.29h-.95l-.6-1.71c-.19-.58-.31-.97-.42-1.49h-.02c-.05.42-.15,1.03-.28,1.7l-.28,1.5h-.85Z"/>
          <path class="cls-1" d="M100.09,32.23c-.23.1-.62.18-1.13.18-1.13,0-1.9-.69-1.9-1.82,0-.96.43-1.71,1.08-2.14.45-.31.97-.46,1.58-.46.46,0,.81.11.93.18l-.25.74c-.13-.06-.41-.14-.78-.14s-.72.11-.98.33c-.36.29-.59.78-.59,1.38,0,.68.38,1.14,1.14,1.14.3,0,.6-.05.81-.14l.08.74Z"/>
          <path class="cls-1" d="M102.29,28.07l-.81,4.29h-.92l.81-4.29h.92Z"/>
          <path class="cls-1" d="M105.11,30.54h-1.53l-.2,1.04h1.71l-.15.78h-2.63l.81-4.29h2.54l-.15.78h-1.62l-.18.92h1.53l-.15.77Z"/>
          <path class="cls-1" d="M105.61,32.36l.81-4.29h1.07l.57,1.63c.17.55.29.99.39,1.46h.02c.02-.44.08-.91.2-1.54l.29-1.56h.85l-.81,4.29h-.95l-.6-1.71c-.19-.58-.31-.97-.42-1.49h-.02c-.05.42-.15,1.03-.28,1.7l-.28,1.5h-.85Z"/>
          <path class="cls-1" d="M111.28,28.87h-1.13l.16-.8h3.19l-.15.8h-1.14l-.66,3.48h-.92l.66-3.48Z"/>
          <path class="cls-1" d="M114.91,28.07l-.81,4.29h-.92l.81-4.29h.92ZM115.64,27.04l-.84.8h-.78l.6-.8h1.02Z"/>
          <path class="cls-1" d="M115.75,28.07h2.51l-.15.78h-1.59l-.2,1h1.49l-.15.78h-1.49l-.32,1.72h-.92l.81-4.29Z"/>
          <path class="cls-1" d="M119.9,28.07l-.81,4.29h-.92l.81-4.29h.92Z"/>
          <path class="cls-1" d="M123.15,32.23c-.23.1-.62.18-1.13.18-1.13,0-1.9-.69-1.9-1.82,0-.96.43-1.71,1.08-2.14.45-.31.97-.46,1.58-.46.46,0,.81.11.93.18l-.25.74c-.13-.06-.41-.14-.78-.14s-.72.11-.98.33c-.36.29-.59.78-.59,1.38,0,.68.38,1.14,1.14,1.14.3,0,.6-.05.81-.14l.08.74Z"/>
          <path class="cls-1" d="M124.87,31.24l-.51,1.11h-.97l2.09-4.29h1.18l.5,4.29h-.96l-.09-1.11h-1.23ZM126.06,30.54l-.08-.92c-.02-.24-.04-.58-.06-.84h-.01c-.11.26-.23.59-.34.84l-.43.92h.93Z"/>
          <path class="cls-1" d="M52.85,39.99l.33-1.75-.83-2.54h.98l.27,1.09c.08.36.12.56.17.78h.01c.13-.23.25-.47.44-.78l.64-1.08h1.09l-1.85,2.52-.34,1.77h-.92Z"/>
          <path class="cls-1" d="M58.25,36.5h-1.13l.16-.8h3.19l-.15.8h-1.14l-.65,3.49h-.92l.65-3.49Z"/>
          <path class="cls-1" d="M62.95,38.17h-1.53l-.2,1.04h1.71l-.15.78h-2.63l.81-4.29h2.54l-.15.78h-1.62l-.18.92h1.53l-.15.77Z"/>
          <path class="cls-1" d="M66.67,39.87c-.23.1-.62.18-1.13.18-1.13,0-1.9-.69-1.9-1.82,0-.96.43-1.71,1.08-2.14.45-.31.97-.46,1.58-.46.46,0,.81.11.93.18l-.25.74c-.13-.06-.41-.14-.78-.14s-.72.11-.98.33c-.36.29-.59.78-.59,1.38,0,.68.38,1.14,1.14,1.14.3,0,.6-.05.81-.14l.08.74Z"/>
          <path class="cls-1" d="M67.16,39.99l.81-4.29h1.07l.57,1.63c.17.55.29.99.39,1.46h.02c.02-.44.08-.91.2-1.54l.29-1.56h.85l-.81,4.29h-.95l-.6-1.71c-.19-.58-.31-.97-.42-1.49h-.02c-.05.42-.15,1.03-.28,1.7l-.28,1.5h-.85Z"/>
          <path class="cls-1" d="M75.66,37.42c0,.78-.27,1.54-.76,2.02-.4.39-.94.62-1.58.62-1.11,0-1.74-.79-1.74-1.79,0-.78.29-1.55.79-2.03.4-.38.95-.61,1.56-.61,1.13,0,1.73.76,1.73,1.79ZM73.09,36.72c-.34.34-.53,1-.53,1.52,0,.6.27,1.06.9,1.06.27,0,.52-.12.72-.31.34-.34.52-1.04.52-1.54,0-.53-.19-1.05-.86-1.05-.29,0-.54.12-.74.32Z"/>
          <path class="cls-1" d="M76.69,35.7h.92l-.66,3.48h1.65l-.15.8h-2.56l.81-4.29Z"/>
          <path class="cls-1" d="M82.98,37.42c0,.78-.27,1.54-.76,2.02-.4.39-.94.62-1.58.62-1.11,0-1.74-.79-1.74-1.79,0-.78.29-1.55.79-2.03.4-.38.95-.61,1.56-.61,1.13,0,1.73.76,1.73,1.79ZM80.4,36.72c-.34.34-.53,1-.53,1.52,0,.6.27,1.06.9,1.06.27,0,.52-.12.72-.31.34-.34.52-1.04.52-1.54,0-.53-.19-1.05-.86-1.05-.29,0-.54.12-.74.32ZM82.49,34.65l-.84.8h-.78l.6-.8h1.02Z"/>
          <path class="cls-1" d="M86.73,39.79c-.33.11-.85.24-1.39.24-.59,0-1.07-.15-1.43-.47-.34-.31-.54-.78-.54-1.32,0-.8.33-1.49.88-1.96.48-.4,1.14-.62,1.89-.62.56,0,.97.11,1.14.19l-.27.78c-.2-.09-.53-.18-.91-.18-.43,0-.81.12-1.09.34-.37.29-.62.8-.62,1.39,0,.72.43,1.08,1.1,1.08.21,0,.36-.03.46-.08l.17-.9h-.66l.14-.73h1.56l-.43,2.24Z"/>
          <path class="cls-1" d="M89.18,35.7l-.81,4.29h-.92l.81-4.29h.92Z"/>
          <path class="cls-1" d="M92.43,39.87c-.23.1-.62.18-1.13.18-1.13,0-1.9-.69-1.9-1.82,0-.96.43-1.71,1.08-2.14.45-.31.97-.46,1.58-.46.46,0,.81.11.93.18l-.25.74c-.13-.06-.41-.14-.78-.14s-.72.11-.98.33c-.36.29-.59.78-.59,1.38,0,.68.38,1.14,1.14,1.14.3,0,.6-.05.81-.14l.08.74Z"/>
          <path class="cls-1" d="M94.15,38.87l-.51,1.11h-.97l2.09-4.29h1.18l.5,4.29h-.96l-.09-1.11h-1.23ZM95.34,38.17l-.08-.92c-.02-.24-.04-.58-.06-.84h-.01c-.11.26-.23.59-.34.84l-.43.92h.93Z"/>
          <path class="cls-1" d="M96.41,40.74c.28-.57.56-1.23.72-1.81l.99-.06c-.29.65-.68,1.32-1.06,1.81l-.66.06Z"/>
          <path class="cls-1" d="M100.9,38.87l-.51,1.11h-.97l2.09-4.29h1.18l.5,4.29h-.96l-.09-1.11h-1.23ZM102.1,38.17l-.08-.92c-.02-.24-.04-.58-.06-.84h-.01c-.11.26-.23.59-.34.84l-.43.92h.93Z"/>
          <path class="cls-1" d="M103.64,39.52c0-.35.25-.65.62-.65.31,0,.53.22.53.54,0,.38-.27.64-.63.64-.31,0-.52-.22-.52-.53Z"/>
          <path class="cls-1" d="M108.52,39.87c-.23.1-.62.18-1.13.18-1.13,0-1.9-.69-1.9-1.82,0-.96.43-1.71,1.08-2.14.45-.31.97-.46,1.58-.46.46,0,.81.11.93.18l-.25.74c-.13-.06-.41-.14-.78-.14s-.72.11-.98.33c-.36.29-.59.78-.59,1.38,0,.68.38,1.14,1.14,1.14.3,0,.6-.05.81-.14l.08.74Z"/>
          <path class="cls-1" d="M109.01,39.52c0-.35.25-.65.62-.65.31,0,.53.22.53.54,0,.38-.27.64-.63.64-.31,0-.52-.22-.52-.53Z"/>
        </g>
        <g>
          <path class="cls-1" d="M57.64,2.49l-2.67,14.04h-3l2.67-14.04h3Z"/>
          <path class="cls-1" d="M60.35,2.76c.9-.23,2.31-.37,3.67-.37,1.25,0,2.71.21,3.73.94.94.65,1.52,1.62,1.52,2.98,0,1.77-.81,3.1-1.92,3.96-1.15.9-2.77,1.29-4.48,1.29-.5,0-.92-.04-1.23-.08l-.96,5.06h-2.94l2.6-13.77ZM62.1,9.03c.31.06.65.1,1.15.1,1.81,0,3-1.17,3-2.56s-.98-1.79-2.15-1.79c-.56,0-.96.04-1.21.1l-.79,4.15Z"/>
          <path class="cls-1" d="M75.1,2.49l-2.67,14.04h-3l2.67-14.04h3Z"/>
          <path class="cls-1" d="M85.74,16.13c-.75.33-2.02.6-3.71.6-3.71,0-6.21-2.25-6.21-5.96,0-3.15,1.42-5.6,3.54-7.02,1.46-1.02,3.19-1.5,5.17-1.5,1.52,0,2.67.35,3.06.6l-.81,2.44c-.42-.21-1.33-.46-2.54-.46s-2.35.37-3.21,1.08c-1.19.96-1.94,2.56-1.94,4.52,0,2.23,1.25,3.73,3.73,3.73.98,0,1.96-.17,2.67-.46l.25,2.42Z"/>
          <path class="cls-1" d="M90.16,16.52l1.08-5.73-2.73-8.31h3.21l.9,3.56c.25,1.17.4,1.83.54,2.54h.04c.42-.75.83-1.54,1.44-2.56l2.1-3.54h3.58l-6.06,8.25-1.1,5.79h-3Z"/>
          <path class="cls-1" d="M104.01,5.11h-3.71l.52-2.62h10.44l-.5,2.62h-3.75l-2.15,11.41h-3l2.15-11.41Z"/>
        </g>
      </g>
    </g>
  </g>
</svg>